G04 #@! TF.FileFunction,Legend,Bot*
%FSLAX46Y46*%
G04 Gerber Fmt 4.6, Leading zero omitted, Abs format (unit mm)*
G04 Created by KiCad (PCBNEW (2015-08-21 BZR 6112)-product) date 2015 October 20, Tuesday 21:56:33*
%MOMM*%
G01*
G04 APERTURE LIST*
%ADD10C,0.100000*%
%ADD11C,0.010000*%
G04 APERTURE END LIST*
D10*
D11*
G36*
X136985837Y-98175197D02*
X138383557Y-96777478D01*
X137182181Y-95565774D01*
X136696787Y-95069856D01*
X136321199Y-94664905D01*
X136041504Y-94326268D01*
X135843792Y-94029293D01*
X135714150Y-93749327D01*
X135638666Y-93461717D01*
X135603429Y-93141811D01*
X135594528Y-92764956D01*
X135594522Y-92752334D01*
X135605049Y-92321674D01*
X135642538Y-92003169D01*
X135715848Y-91740608D01*
X135777049Y-91594460D01*
X136092064Y-91082897D01*
X136524606Y-90620183D01*
X137022919Y-90259230D01*
X137148019Y-90192900D01*
X137423451Y-90070693D01*
X137674553Y-89999393D01*
X137966619Y-89966208D01*
X138345333Y-89958334D01*
X138565770Y-89956648D01*
X138759836Y-89956577D01*
X138936907Y-89965598D01*
X139106363Y-89991191D01*
X139277583Y-90040833D01*
X139459944Y-90122004D01*
X139662825Y-90242181D01*
X139895604Y-90408843D01*
X140167660Y-90629470D01*
X140488371Y-90911538D01*
X140867117Y-91262528D01*
X141313274Y-91689916D01*
X141836222Y-92201182D01*
X142445338Y-92803805D01*
X143150002Y-93505262D01*
X143959592Y-94313032D01*
X144569683Y-94921722D01*
X149227699Y-99567224D01*
X150623349Y-98169467D01*
X152019000Y-96771710D01*
X147150666Y-91915468D01*
X146232605Y-90999838D01*
X145425035Y-90195671D01*
X144718480Y-89494926D01*
X144103461Y-88889563D01*
X143570499Y-88371543D01*
X143110117Y-87932825D01*
X142712837Y-87565369D01*
X142369180Y-87261134D01*
X142069669Y-87012082D01*
X141804825Y-86810171D01*
X141565170Y-86647361D01*
X141341227Y-86515613D01*
X141123517Y-86406886D01*
X140902561Y-86313139D01*
X140668883Y-86226334D01*
X140413004Y-86138429D01*
X140292666Y-86097911D01*
X139916243Y-85977786D01*
X139598277Y-85897293D01*
X139281684Y-85847410D01*
X138909382Y-85819114D01*
X138430000Y-85803512D01*
X138004074Y-85797559D01*
X137623239Y-85798765D01*
X137328653Y-85806573D01*
X137161470Y-85820426D01*
X137160000Y-85820705D01*
X136069315Y-86109877D01*
X135069378Y-86534891D01*
X134168788Y-87088108D01*
X133376142Y-87761889D01*
X132700040Y-88548593D01*
X132149081Y-89440581D01*
X131731863Y-90430214D01*
X131639786Y-90725125D01*
X131558090Y-91034549D01*
X131502601Y-91327430D01*
X131468757Y-91648933D01*
X131451999Y-92044223D01*
X131447762Y-92558468D01*
X131447867Y-92625334D01*
X131451166Y-93118697D01*
X131462608Y-93487616D01*
X131488367Y-93776969D01*
X131534613Y-94031633D01*
X131607518Y-94296487D01*
X131713254Y-94616409D01*
X131727307Y-94657334D01*
X131900659Y-95130926D01*
X132081484Y-95548192D01*
X132287365Y-95934250D01*
X132535882Y-96314215D01*
X132844617Y-96713207D01*
X133231153Y-97156343D01*
X133713071Y-97668739D01*
X134144087Y-98109959D01*
X135588118Y-99572917D01*
X136985837Y-98175197D01*
X136985837Y-98175197D01*
G37*
X136985837Y-98175197D02*
X138383557Y-96777478D01*
X137182181Y-95565774D01*
X136696787Y-95069856D01*
X136321199Y-94664905D01*
X136041504Y-94326268D01*
X135843792Y-94029293D01*
X135714150Y-93749327D01*
X135638666Y-93461717D01*
X135603429Y-93141811D01*
X135594528Y-92764956D01*
X135594522Y-92752334D01*
X135605049Y-92321674D01*
X135642538Y-92003169D01*
X135715848Y-91740608D01*
X135777049Y-91594460D01*
X136092064Y-91082897D01*
X136524606Y-90620183D01*
X137022919Y-90259230D01*
X137148019Y-90192900D01*
X137423451Y-90070693D01*
X137674553Y-89999393D01*
X137966619Y-89966208D01*
X138345333Y-89958334D01*
X138565770Y-89956648D01*
X138759836Y-89956577D01*
X138936907Y-89965598D01*
X139106363Y-89991191D01*
X139277583Y-90040833D01*
X139459944Y-90122004D01*
X139662825Y-90242181D01*
X139895604Y-90408843D01*
X140167660Y-90629470D01*
X140488371Y-90911538D01*
X140867117Y-91262528D01*
X141313274Y-91689916D01*
X141836222Y-92201182D01*
X142445338Y-92803805D01*
X143150002Y-93505262D01*
X143959592Y-94313032D01*
X144569683Y-94921722D01*
X149227699Y-99567224D01*
X150623349Y-98169467D01*
X152019000Y-96771710D01*
X147150666Y-91915468D01*
X146232605Y-90999838D01*
X145425035Y-90195671D01*
X144718480Y-89494926D01*
X144103461Y-88889563D01*
X143570499Y-88371543D01*
X143110117Y-87932825D01*
X142712837Y-87565369D01*
X142369180Y-87261134D01*
X142069669Y-87012082D01*
X141804825Y-86810171D01*
X141565170Y-86647361D01*
X141341227Y-86515613D01*
X141123517Y-86406886D01*
X140902561Y-86313139D01*
X140668883Y-86226334D01*
X140413004Y-86138429D01*
X140292666Y-86097911D01*
X139916243Y-85977786D01*
X139598277Y-85897293D01*
X139281684Y-85847410D01*
X138909382Y-85819114D01*
X138430000Y-85803512D01*
X138004074Y-85797559D01*
X137623239Y-85798765D01*
X137328653Y-85806573D01*
X137161470Y-85820426D01*
X137160000Y-85820705D01*
X136069315Y-86109877D01*
X135069378Y-86534891D01*
X134168788Y-87088108D01*
X133376142Y-87761889D01*
X132700040Y-88548593D01*
X132149081Y-89440581D01*
X131731863Y-90430214D01*
X131639786Y-90725125D01*
X131558090Y-91034549D01*
X131502601Y-91327430D01*
X131468757Y-91648933D01*
X131451999Y-92044223D01*
X131447762Y-92558468D01*
X131447867Y-92625334D01*
X131451166Y-93118697D01*
X131462608Y-93487616D01*
X131488367Y-93776969D01*
X131534613Y-94031633D01*
X131607518Y-94296487D01*
X131713254Y-94616409D01*
X131727307Y-94657334D01*
X131900659Y-95130926D01*
X132081484Y-95548192D01*
X132287365Y-95934250D01*
X132535882Y-96314215D01*
X132844617Y-96713207D01*
X133231153Y-97156343D01*
X133713071Y-97668739D01*
X134144087Y-98109959D01*
X135588118Y-99572917D01*
X136985837Y-98175197D01*
G36*
X153977484Y-101494859D02*
X154890379Y-100579411D01*
X155691865Y-99774416D01*
X156390029Y-99070348D01*
X156992953Y-98457679D01*
X157508724Y-97926882D01*
X157945425Y-97468432D01*
X158311142Y-97072801D01*
X158613960Y-96730462D01*
X158861962Y-96431888D01*
X159063234Y-96167553D01*
X159225861Y-95927929D01*
X159357927Y-95703491D01*
X159467518Y-95484711D01*
X159562717Y-95262062D01*
X159651610Y-95026018D01*
X159742281Y-94767052D01*
X159780025Y-94657334D01*
X159889793Y-94328517D01*
X159966044Y-94059757D01*
X160014949Y-93806177D01*
X160042680Y-93522899D01*
X160055410Y-93165045D01*
X160059309Y-92687736D01*
X160059465Y-92625334D01*
X160056246Y-92092940D01*
X160040864Y-91684885D01*
X160008847Y-91356350D01*
X159955719Y-91062515D01*
X159877009Y-90758560D01*
X159871075Y-90737988D01*
X159497394Y-89741439D01*
X158983400Y-88824444D01*
X158342791Y-88000792D01*
X157589266Y-87284271D01*
X156736523Y-86688670D01*
X155798263Y-86227776D01*
X155179490Y-86015688D01*
X154706678Y-85913117D01*
X154132983Y-85840513D01*
X153512248Y-85800023D01*
X152898318Y-85793791D01*
X152345033Y-85823964D01*
X151933180Y-85886329D01*
X151188259Y-86103210D01*
X150439166Y-86405227D01*
X149759555Y-86761253D01*
X149551741Y-86892857D01*
X149314063Y-87072693D01*
X148987070Y-87349410D01*
X148598752Y-87697770D01*
X148177099Y-88092536D01*
X147750102Y-88508469D01*
X147659660Y-88598868D01*
X146348320Y-89916063D01*
X147742037Y-91311703D01*
X149135755Y-92707343D01*
X150326843Y-91526408D01*
X150819971Y-91044042D01*
X151222718Y-90671576D01*
X151560085Y-90394977D01*
X151857076Y-90200209D01*
X152138694Y-90073239D01*
X152429941Y-90000031D01*
X152755822Y-89966552D01*
X153119666Y-89958762D01*
X153517061Y-89965681D01*
X153805893Y-89994580D01*
X154046604Y-90056875D01*
X154299635Y-90163980D01*
X154359314Y-90192900D01*
X154864325Y-90519942D01*
X155316099Y-90960672D01*
X155663211Y-91462470D01*
X155729062Y-91594460D01*
X155831773Y-91872119D01*
X155889144Y-92183122D01*
X155910968Y-92587179D01*
X155912018Y-92710000D01*
X155914200Y-92930661D01*
X155914668Y-93124900D01*
X155905931Y-93302122D01*
X155880500Y-93471732D01*
X155830884Y-93643135D01*
X155749594Y-93825734D01*
X155629140Y-94028934D01*
X155462031Y-94262139D01*
X155240778Y-94534754D01*
X154957890Y-94856184D01*
X154605878Y-95235832D01*
X154177252Y-95683104D01*
X153664521Y-96207403D01*
X153060197Y-96818133D01*
X152356787Y-97524700D01*
X151546804Y-98336508D01*
X150972092Y-98912564D01*
X146348424Y-103548794D01*
X147745387Y-104945756D01*
X149142349Y-106342718D01*
X153977484Y-101494859D01*
X153977484Y-101494859D01*
G37*
X153977484Y-101494859D02*
X154890379Y-100579411D01*
X155691865Y-99774416D01*
X156390029Y-99070348D01*
X156992953Y-98457679D01*
X157508724Y-97926882D01*
X157945425Y-97468432D01*
X158311142Y-97072801D01*
X158613960Y-96730462D01*
X158861962Y-96431888D01*
X159063234Y-96167553D01*
X159225861Y-95927929D01*
X159357927Y-95703491D01*
X159467518Y-95484711D01*
X159562717Y-95262062D01*
X159651610Y-95026018D01*
X159742281Y-94767052D01*
X159780025Y-94657334D01*
X159889793Y-94328517D01*
X159966044Y-94059757D01*
X160014949Y-93806177D01*
X160042680Y-93522899D01*
X160055410Y-93165045D01*
X160059309Y-92687736D01*
X160059465Y-92625334D01*
X160056246Y-92092940D01*
X160040864Y-91684885D01*
X160008847Y-91356350D01*
X159955719Y-91062515D01*
X159877009Y-90758560D01*
X159871075Y-90737988D01*
X159497394Y-89741439D01*
X158983400Y-88824444D01*
X158342791Y-88000792D01*
X157589266Y-87284271D01*
X156736523Y-86688670D01*
X155798263Y-86227776D01*
X155179490Y-86015688D01*
X154706678Y-85913117D01*
X154132983Y-85840513D01*
X153512248Y-85800023D01*
X152898318Y-85793791D01*
X152345033Y-85823964D01*
X151933180Y-85886329D01*
X151188259Y-86103210D01*
X150439166Y-86405227D01*
X149759555Y-86761253D01*
X149551741Y-86892857D01*
X149314063Y-87072693D01*
X148987070Y-87349410D01*
X148598752Y-87697770D01*
X148177099Y-88092536D01*
X147750102Y-88508469D01*
X147659660Y-88598868D01*
X146348320Y-89916063D01*
X147742037Y-91311703D01*
X149135755Y-92707343D01*
X150326843Y-91526408D01*
X150819971Y-91044042D01*
X151222718Y-90671576D01*
X151560085Y-90394977D01*
X151857076Y-90200209D01*
X152138694Y-90073239D01*
X152429941Y-90000031D01*
X152755822Y-89966552D01*
X153119666Y-89958762D01*
X153517061Y-89965681D01*
X153805893Y-89994580D01*
X154046604Y-90056875D01*
X154299635Y-90163980D01*
X154359314Y-90192900D01*
X154864325Y-90519942D01*
X155316099Y-90960672D01*
X155663211Y-91462470D01*
X155729062Y-91594460D01*
X155831773Y-91872119D01*
X155889144Y-92183122D01*
X155910968Y-92587179D01*
X155912018Y-92710000D01*
X155914200Y-92930661D01*
X155914668Y-93124900D01*
X155905931Y-93302122D01*
X155880500Y-93471732D01*
X155830884Y-93643135D01*
X155749594Y-93825734D01*
X155629140Y-94028934D01*
X155462031Y-94262139D01*
X155240778Y-94534754D01*
X154957890Y-94856184D01*
X154605878Y-95235832D01*
X154177252Y-95683104D01*
X153664521Y-96207403D01*
X153060197Y-96818133D01*
X152356787Y-97524700D01*
X151546804Y-98336508D01*
X150972092Y-98912564D01*
X146348424Y-103548794D01*
X147745387Y-104945756D01*
X149142349Y-106342718D01*
X153977484Y-101494859D01*
G36*
X138260666Y-114424133D02*
X138754029Y-114420834D01*
X139122948Y-114409392D01*
X139412301Y-114383633D01*
X139666966Y-114337387D01*
X139931820Y-114264482D01*
X140251741Y-114158746D01*
X140292666Y-114144693D01*
X140770677Y-113969589D01*
X141191409Y-113786805D01*
X141580377Y-113578515D01*
X141963091Y-113326895D01*
X142365067Y-113014121D01*
X142811816Y-112622366D01*
X143328852Y-112133807D01*
X143721666Y-111749003D01*
X145161000Y-110325703D01*
X143766289Y-108927514D01*
X142371578Y-107529324D01*
X141180490Y-108710260D01*
X140687361Y-109192626D01*
X140284615Y-109565092D01*
X139947248Y-109841691D01*
X139650257Y-110036458D01*
X139368639Y-110163429D01*
X139077391Y-110236636D01*
X138751510Y-110270116D01*
X138387666Y-110277906D01*
X137990272Y-110270986D01*
X137701440Y-110242087D01*
X137460729Y-110179793D01*
X137207697Y-110072688D01*
X137148019Y-110043768D01*
X136643007Y-109716726D01*
X136191233Y-109275996D01*
X135844121Y-108774198D01*
X135778270Y-108642207D01*
X135675559Y-108364549D01*
X135618188Y-108053546D01*
X135596365Y-107649488D01*
X135595315Y-107526667D01*
X135593132Y-107306007D01*
X135592665Y-107111768D01*
X135601401Y-106934546D01*
X135626832Y-106764935D01*
X135676448Y-106593533D01*
X135757738Y-106410934D01*
X135878192Y-106207734D01*
X136045301Y-105974529D01*
X136266554Y-105701913D01*
X136549442Y-105380484D01*
X136901454Y-105000835D01*
X137330080Y-104553564D01*
X137842811Y-104029265D01*
X138447136Y-103418534D01*
X139150545Y-102711967D01*
X139960529Y-101900159D01*
X140535240Y-101324104D01*
X145158908Y-96687874D01*
X143761945Y-95290912D01*
X142364983Y-93893949D01*
X137529849Y-98741808D01*
X136616954Y-99657256D01*
X135815467Y-100462251D01*
X135117304Y-101166320D01*
X134514379Y-101778989D01*
X133998608Y-102309785D01*
X133561907Y-102768236D01*
X133196190Y-103163867D01*
X132893373Y-103506206D01*
X132645370Y-103804780D01*
X132444098Y-104069115D01*
X132281471Y-104308738D01*
X132149405Y-104533176D01*
X132039815Y-104751957D01*
X131944616Y-104974605D01*
X131855723Y-105210650D01*
X131765052Y-105469616D01*
X131727307Y-105579334D01*
X131617539Y-105908151D01*
X131541289Y-106176910D01*
X131492383Y-106430490D01*
X131464652Y-106713769D01*
X131451923Y-107071623D01*
X131448024Y-107548932D01*
X131447867Y-107611334D01*
X131450987Y-108141685D01*
X131466119Y-108548033D01*
X131497826Y-108875544D01*
X131550668Y-109169382D01*
X131629208Y-109474714D01*
X131639786Y-109511543D01*
X132016457Y-110517167D01*
X132533981Y-111438246D01*
X133180066Y-112262490D01*
X133942419Y-112977605D01*
X134808748Y-113571299D01*
X135766761Y-114031280D01*
X136360457Y-114232214D01*
X136669882Y-114313910D01*
X136962762Y-114369399D01*
X137284265Y-114403243D01*
X137679556Y-114420001D01*
X138193800Y-114424238D01*
X138260666Y-114424133D01*
X138260666Y-114424133D01*
G37*
X138260666Y-114424133D02*
X138754029Y-114420834D01*
X139122948Y-114409392D01*
X139412301Y-114383633D01*
X139666966Y-114337387D01*
X139931820Y-114264482D01*
X140251741Y-114158746D01*
X140292666Y-114144693D01*
X140770677Y-113969589D01*
X141191409Y-113786805D01*
X141580377Y-113578515D01*
X141963091Y-113326895D01*
X142365067Y-113014121D01*
X142811816Y-112622366D01*
X143328852Y-112133807D01*
X143721666Y-111749003D01*
X145161000Y-110325703D01*
X143766289Y-108927514D01*
X142371578Y-107529324D01*
X141180490Y-108710260D01*
X140687361Y-109192626D01*
X140284615Y-109565092D01*
X139947248Y-109841691D01*
X139650257Y-110036458D01*
X139368639Y-110163429D01*
X139077391Y-110236636D01*
X138751510Y-110270116D01*
X138387666Y-110277906D01*
X137990272Y-110270986D01*
X137701440Y-110242087D01*
X137460729Y-110179793D01*
X137207697Y-110072688D01*
X137148019Y-110043768D01*
X136643007Y-109716726D01*
X136191233Y-109275996D01*
X135844121Y-108774198D01*
X135778270Y-108642207D01*
X135675559Y-108364549D01*
X135618188Y-108053546D01*
X135596365Y-107649488D01*
X135595315Y-107526667D01*
X135593132Y-107306007D01*
X135592665Y-107111768D01*
X135601401Y-106934546D01*
X135626832Y-106764935D01*
X135676448Y-106593533D01*
X135757738Y-106410934D01*
X135878192Y-106207734D01*
X136045301Y-105974529D01*
X136266554Y-105701913D01*
X136549442Y-105380484D01*
X136901454Y-105000835D01*
X137330080Y-104553564D01*
X137842811Y-104029265D01*
X138447136Y-103418534D01*
X139150545Y-102711967D01*
X139960529Y-101900159D01*
X140535240Y-101324104D01*
X145158908Y-96687874D01*
X143761945Y-95290912D01*
X142364983Y-93893949D01*
X137529849Y-98741808D01*
X136616954Y-99657256D01*
X135815467Y-100462251D01*
X135117304Y-101166320D01*
X134514379Y-101778989D01*
X133998608Y-102309785D01*
X133561907Y-102768236D01*
X133196190Y-103163867D01*
X132893373Y-103506206D01*
X132645370Y-103804780D01*
X132444098Y-104069115D01*
X132281471Y-104308738D01*
X132149405Y-104533176D01*
X132039815Y-104751957D01*
X131944616Y-104974605D01*
X131855723Y-105210650D01*
X131765052Y-105469616D01*
X131727307Y-105579334D01*
X131617539Y-105908151D01*
X131541289Y-106176910D01*
X131492383Y-106430490D01*
X131464652Y-106713769D01*
X131451923Y-107071623D01*
X131448024Y-107548932D01*
X131447867Y-107611334D01*
X131450987Y-108141685D01*
X131466119Y-108548033D01*
X131497826Y-108875544D01*
X131550668Y-109169382D01*
X131629208Y-109474714D01*
X131639786Y-109511543D01*
X132016457Y-110517167D01*
X132533981Y-111438246D01*
X133180066Y-112262490D01*
X133942419Y-112977605D01*
X134808748Y-113571299D01*
X135766761Y-114031280D01*
X136360457Y-114232214D01*
X136669882Y-114313910D01*
X136962762Y-114369399D01*
X137284265Y-114403243D01*
X137679556Y-114420001D01*
X138193800Y-114424238D01*
X138260666Y-114424133D01*
G36*
X153777018Y-114421013D02*
X154183366Y-114405881D01*
X154510876Y-114374174D01*
X154804714Y-114321332D01*
X155110046Y-114242792D01*
X155146875Y-114232214D01*
X156152499Y-113855543D01*
X157073579Y-113338019D01*
X157897822Y-112691934D01*
X158612937Y-111929581D01*
X159206631Y-111063252D01*
X159666612Y-110105239D01*
X159867546Y-109511543D01*
X159949243Y-109202118D01*
X160004732Y-108909238D01*
X160038575Y-108587735D01*
X160055334Y-108192444D01*
X160059570Y-107678200D01*
X160059465Y-107611334D01*
X160056167Y-107117971D01*
X160044724Y-106749052D01*
X160018966Y-106459699D01*
X159972720Y-106205034D01*
X159899814Y-105940180D01*
X159794079Y-105620259D01*
X159780025Y-105579334D01*
X159606673Y-105105741D01*
X159425848Y-104688475D01*
X159219968Y-104302418D01*
X158971451Y-103922452D01*
X158662715Y-103523460D01*
X158276179Y-103080325D01*
X157794261Y-102567928D01*
X157363245Y-102126709D01*
X155919214Y-100663751D01*
X153123775Y-103459190D01*
X154325152Y-104670894D01*
X154810524Y-105166794D01*
X155186096Y-105571739D01*
X155465787Y-105910390D01*
X155663517Y-106207407D01*
X155793206Y-106487450D01*
X155868774Y-106775180D01*
X155904141Y-107095258D01*
X155913227Y-107472344D01*
X155913238Y-107484334D01*
X155906319Y-107881728D01*
X155877420Y-108170560D01*
X155815125Y-108411271D01*
X155708020Y-108664303D01*
X155679100Y-108723981D01*
X155352058Y-109228993D01*
X154911328Y-109680767D01*
X154409530Y-110027879D01*
X154277540Y-110093730D01*
X153999881Y-110196441D01*
X153688878Y-110253812D01*
X153284821Y-110275635D01*
X153162000Y-110276685D01*
X152941804Y-110278883D01*
X152747954Y-110279409D01*
X152571075Y-110270790D01*
X152401792Y-110245554D01*
X152230730Y-110196227D01*
X152048513Y-110115334D01*
X151845767Y-109995404D01*
X151613115Y-109828962D01*
X151341184Y-109608536D01*
X151020598Y-109326651D01*
X150641982Y-108975834D01*
X150195960Y-108548612D01*
X149673158Y-108037512D01*
X149064200Y-107435060D01*
X148359711Y-106733783D01*
X147550317Y-105926208D01*
X146937650Y-105314946D01*
X142279633Y-100669443D01*
X140883983Y-102067201D01*
X139488333Y-103464958D01*
X144356666Y-108321199D01*
X145273897Y-109236008D01*
X146080651Y-110039386D01*
X146786426Y-110739399D01*
X147400721Y-111344112D01*
X147933035Y-111861592D01*
X148392867Y-112299904D01*
X148789714Y-112667115D01*
X149133077Y-112971290D01*
X149432453Y-113220495D01*
X149697341Y-113422795D01*
X149937240Y-113586258D01*
X150161649Y-113718948D01*
X150380067Y-113828932D01*
X150601992Y-113924274D01*
X150836922Y-114013043D01*
X151094357Y-114103302D01*
X151214666Y-114144693D01*
X151543483Y-114254461D01*
X151812243Y-114330711D01*
X152065823Y-114379617D01*
X152349101Y-114407348D01*
X152706955Y-114420077D01*
X153184264Y-114423976D01*
X153246666Y-114424133D01*
X153777018Y-114421013D01*
X153777018Y-114421013D01*
G37*
X153777018Y-114421013D02*
X154183366Y-114405881D01*
X154510876Y-114374174D01*
X154804714Y-114321332D01*
X155110046Y-114242792D01*
X155146875Y-114232214D01*
X156152499Y-113855543D01*
X157073579Y-113338019D01*
X157897822Y-112691934D01*
X158612937Y-111929581D01*
X159206631Y-111063252D01*
X159666612Y-110105239D01*
X159867546Y-109511543D01*
X159949243Y-109202118D01*
X160004732Y-108909238D01*
X160038575Y-108587735D01*
X160055334Y-108192444D01*
X160059570Y-107678200D01*
X160059465Y-107611334D01*
X160056167Y-107117971D01*
X160044724Y-106749052D01*
X160018966Y-106459699D01*
X159972720Y-106205034D01*
X159899814Y-105940180D01*
X159794079Y-105620259D01*
X159780025Y-105579334D01*
X159606673Y-105105741D01*
X159425848Y-104688475D01*
X159219968Y-104302418D01*
X158971451Y-103922452D01*
X158662715Y-103523460D01*
X158276179Y-103080325D01*
X157794261Y-102567928D01*
X157363245Y-102126709D01*
X155919214Y-100663751D01*
X153123775Y-103459190D01*
X154325152Y-104670894D01*
X154810524Y-105166794D01*
X155186096Y-105571739D01*
X155465787Y-105910390D01*
X155663517Y-106207407D01*
X155793206Y-106487450D01*
X155868774Y-106775180D01*
X155904141Y-107095258D01*
X155913227Y-107472344D01*
X155913238Y-107484334D01*
X155906319Y-107881728D01*
X155877420Y-108170560D01*
X155815125Y-108411271D01*
X155708020Y-108664303D01*
X155679100Y-108723981D01*
X155352058Y-109228993D01*
X154911328Y-109680767D01*
X154409530Y-110027879D01*
X154277540Y-110093730D01*
X153999881Y-110196441D01*
X153688878Y-110253812D01*
X153284821Y-110275635D01*
X153162000Y-110276685D01*
X152941804Y-110278883D01*
X152747954Y-110279409D01*
X152571075Y-110270790D01*
X152401792Y-110245554D01*
X152230730Y-110196227D01*
X152048513Y-110115334D01*
X151845767Y-109995404D01*
X151613115Y-109828962D01*
X151341184Y-109608536D01*
X151020598Y-109326651D01*
X150641982Y-108975834D01*
X150195960Y-108548612D01*
X149673158Y-108037512D01*
X149064200Y-107435060D01*
X148359711Y-106733783D01*
X147550317Y-105926208D01*
X146937650Y-105314946D01*
X142279633Y-100669443D01*
X140883983Y-102067201D01*
X139488333Y-103464958D01*
X144356666Y-108321199D01*
X145273897Y-109236008D01*
X146080651Y-110039386D01*
X146786426Y-110739399D01*
X147400721Y-111344112D01*
X147933035Y-111861592D01*
X148392867Y-112299904D01*
X148789714Y-112667115D01*
X149133077Y-112971290D01*
X149432453Y-113220495D01*
X149697341Y-113422795D01*
X149937240Y-113586258D01*
X150161649Y-113718948D01*
X150380067Y-113828932D01*
X150601992Y-113924274D01*
X150836922Y-114013043D01*
X151094357Y-114103302D01*
X151214666Y-114144693D01*
X151543483Y-114254461D01*
X151812243Y-114330711D01*
X152065823Y-114379617D01*
X152349101Y-114407348D01*
X152706955Y-114420077D01*
X153184264Y-114423976D01*
X153246666Y-114424133D01*
X153777018Y-114421013D01*
M02*
