G04 #@! TF.FileFunction,Legend,Top*
%FSLAX46Y46*%
G04 Gerber Fmt 4.6, Leading zero omitted, Abs format (unit mm)*
G04 Created by KiCad (PCBNEW (2015-08-21 BZR 6112)-product) date 2015 October 15, Thursday 21:52:47*
%MOMM*%
G01*
G04 APERTURE LIST*
%ADD10C,0.100000*%
%ADD11C,0.300000*%
%ADD12C,0.200000*%
%ADD13C,0.010000*%
%ADD14C,0.150000*%
G04 APERTURE END LIST*
D10*
D11*
X154103142Y-121606571D02*
X154388856Y-121606571D01*
X154531714Y-121678000D01*
X154674571Y-121820857D01*
X154745999Y-122106571D01*
X154745999Y-122606571D01*
X154674571Y-122892286D01*
X154531714Y-123035143D01*
X154388856Y-123106571D01*
X154103142Y-123106571D01*
X153960285Y-123035143D01*
X153817428Y-122892286D01*
X153745999Y-122606571D01*
X153745999Y-122106571D01*
X153817428Y-121820857D01*
X153960285Y-121678000D01*
X154103142Y-121606571D01*
X155174571Y-122106571D02*
X155746000Y-122106571D01*
X155388857Y-123106571D02*
X155388857Y-121820857D01*
X155460285Y-121678000D01*
X155603143Y-121606571D01*
X155746000Y-121606571D01*
X156031714Y-122106571D02*
X156603143Y-122106571D01*
X156246000Y-123106571D02*
X156246000Y-121820857D01*
X156317428Y-121678000D01*
X156460286Y-121606571D01*
X156603143Y-121606571D01*
X159317428Y-121535143D02*
X158031714Y-123463714D01*
X161246000Y-121606571D02*
X161531714Y-121606571D01*
X161674572Y-121678000D01*
X161817429Y-121820857D01*
X161888857Y-122106571D01*
X161888857Y-122606571D01*
X161817429Y-122892286D01*
X161674572Y-123035143D01*
X161531714Y-123106571D01*
X161246000Y-123106571D01*
X161103143Y-123035143D01*
X160960286Y-122892286D01*
X160888857Y-122606571D01*
X160888857Y-122106571D01*
X160960286Y-121820857D01*
X161103143Y-121678000D01*
X161246000Y-121606571D01*
X162531715Y-122106571D02*
X162531715Y-123106571D01*
X162531715Y-122249429D02*
X162603143Y-122178000D01*
X162746001Y-122106571D01*
X162960286Y-122106571D01*
X163103143Y-122178000D01*
X163174572Y-122320857D01*
X163174572Y-123106571D01*
D10*
X167132000Y-130556000D02*
X103124000Y-130556000D01*
X170180000Y-127508000D02*
X170180000Y-68580000D01*
X103124000Y-65532000D02*
X167132000Y-65532000D01*
X100076000Y-127508000D02*
X100076000Y-68580000D01*
D12*
X168656000Y-70104000D02*
X168656000Y-97536000D01*
X164592000Y-70104000D02*
X164592000Y-97536000D01*
X168656000Y-70104000D02*
X164592000Y-70104000D01*
D11*
X166731143Y-96609714D02*
X166731143Y-95466857D01*
X167302571Y-96038286D02*
X166159714Y-96038286D01*
X165802571Y-94038285D02*
X165802571Y-94752571D01*
X166516857Y-94824000D01*
X166445429Y-94752571D01*
X166374000Y-94609714D01*
X166374000Y-94252571D01*
X166445429Y-94109714D01*
X166516857Y-94038285D01*
X166659714Y-93966857D01*
X167016857Y-93966857D01*
X167159714Y-94038285D01*
X167231143Y-94109714D01*
X167302571Y-94252571D01*
X167302571Y-94609714D01*
X167231143Y-94752571D01*
X167159714Y-94824000D01*
X166302571Y-92324000D02*
X167302571Y-91966857D01*
X166302571Y-91609715D01*
X167302571Y-90824000D02*
X167231143Y-90966858D01*
X167159714Y-91038286D01*
X167016857Y-91109715D01*
X166588286Y-91109715D01*
X166445429Y-91038286D01*
X166374000Y-90966858D01*
X166302571Y-90824000D01*
X166302571Y-90609715D01*
X166374000Y-90466858D01*
X166445429Y-90395429D01*
X166588286Y-90324000D01*
X167016857Y-90324000D01*
X167159714Y-90395429D01*
X167231143Y-90466858D01*
X167302571Y-90609715D01*
X167302571Y-90824000D01*
X167302571Y-89466857D02*
X167231143Y-89609715D01*
X167088286Y-89681143D01*
X165802571Y-89681143D01*
X166302571Y-89109715D02*
X166302571Y-88538286D01*
X165802571Y-88895429D02*
X167088286Y-88895429D01*
X167231143Y-88824001D01*
X167302571Y-88681143D01*
X167302571Y-88538286D01*
X167231143Y-88109715D02*
X167302571Y-87966858D01*
X167302571Y-87681143D01*
X167231143Y-87538286D01*
X167088286Y-87466858D01*
X167016857Y-87466858D01*
X166874000Y-87538286D01*
X166802571Y-87681143D01*
X166802571Y-87895429D01*
X166731143Y-88038286D01*
X166588286Y-88109715D01*
X166516857Y-88109715D01*
X166374000Y-88038286D01*
X166302571Y-87895429D01*
X166302571Y-87681143D01*
X166374000Y-87538286D01*
X166302571Y-85681143D02*
X167802571Y-85681143D01*
X166374000Y-85681143D02*
X166302571Y-85538286D01*
X166302571Y-85252572D01*
X166374000Y-85109715D01*
X166445429Y-85038286D01*
X166588286Y-84966857D01*
X167016857Y-84966857D01*
X167159714Y-85038286D01*
X167231143Y-85109715D01*
X167302571Y-85252572D01*
X167302571Y-85538286D01*
X167231143Y-85681143D01*
X167302571Y-84109714D02*
X167231143Y-84252572D01*
X167159714Y-84324000D01*
X167016857Y-84395429D01*
X166588286Y-84395429D01*
X166445429Y-84324000D01*
X166374000Y-84252572D01*
X166302571Y-84109714D01*
X166302571Y-83895429D01*
X166374000Y-83752572D01*
X166445429Y-83681143D01*
X166588286Y-83609714D01*
X167016857Y-83609714D01*
X167159714Y-83681143D01*
X167231143Y-83752572D01*
X167302571Y-83895429D01*
X167302571Y-84109714D01*
X166302571Y-83109714D02*
X167302571Y-82824000D01*
X166588286Y-82538286D01*
X167302571Y-82252571D01*
X166302571Y-81966857D01*
X167231143Y-80824000D02*
X167302571Y-80966857D01*
X167302571Y-81252571D01*
X167231143Y-81395428D01*
X167088286Y-81466857D01*
X166516857Y-81466857D01*
X166374000Y-81395428D01*
X166302571Y-81252571D01*
X166302571Y-80966857D01*
X166374000Y-80824000D01*
X166516857Y-80752571D01*
X166659714Y-80752571D01*
X166802571Y-81466857D01*
X167302571Y-80109714D02*
X166302571Y-80109714D01*
X166588286Y-80109714D02*
X166445429Y-80038286D01*
X166374000Y-79966857D01*
X166302571Y-79824000D01*
X166302571Y-79681143D01*
X167231143Y-78109715D02*
X167302571Y-77966858D01*
X167302571Y-77681143D01*
X167231143Y-77538286D01*
X167088286Y-77466858D01*
X167016857Y-77466858D01*
X166874000Y-77538286D01*
X166802571Y-77681143D01*
X166802571Y-77895429D01*
X166731143Y-78038286D01*
X166588286Y-78109715D01*
X166516857Y-78109715D01*
X166374000Y-78038286D01*
X166302571Y-77895429D01*
X166302571Y-77681143D01*
X166374000Y-77538286D01*
X166302571Y-76181143D02*
X167302571Y-76181143D01*
X166302571Y-76824000D02*
X167088286Y-76824000D01*
X167231143Y-76752572D01*
X167302571Y-76609714D01*
X167302571Y-76395429D01*
X167231143Y-76252572D01*
X167159714Y-76181143D01*
X166302571Y-75466857D02*
X167802571Y-75466857D01*
X166374000Y-75466857D02*
X166302571Y-75324000D01*
X166302571Y-75038286D01*
X166374000Y-74895429D01*
X166445429Y-74824000D01*
X166588286Y-74752571D01*
X167016857Y-74752571D01*
X167159714Y-74824000D01*
X167231143Y-74895429D01*
X167302571Y-75038286D01*
X167302571Y-75324000D01*
X167231143Y-75466857D01*
X166302571Y-74109714D02*
X167802571Y-74109714D01*
X166374000Y-74109714D02*
X166302571Y-73966857D01*
X166302571Y-73681143D01*
X166374000Y-73538286D01*
X166445429Y-73466857D01*
X166588286Y-73395428D01*
X167016857Y-73395428D01*
X167159714Y-73466857D01*
X167231143Y-73538286D01*
X167302571Y-73681143D01*
X167302571Y-73966857D01*
X167231143Y-74109714D01*
X167302571Y-72538285D02*
X167231143Y-72681143D01*
X167088286Y-72752571D01*
X165802571Y-72752571D01*
X166302571Y-72109714D02*
X167302571Y-71752571D01*
X166302571Y-71395429D02*
X167302571Y-71752571D01*
X167659714Y-71895429D01*
X167731143Y-71966857D01*
X167802571Y-72109714D01*
D12*
X164592000Y-109728000D02*
X164592000Y-97536000D01*
X168656000Y-97536000D02*
X168656000Y-109728000D01*
X164592000Y-97536000D02*
X168656000Y-97536000D01*
X164592000Y-109728000D02*
X168656000Y-109728000D01*
X152400000Y-122936000D02*
X119380000Y-122936000D01*
X152400000Y-129032000D02*
X152400000Y-122936000D01*
X119380000Y-129032000D02*
X152400000Y-129032000D01*
X119380000Y-122936000D02*
X119380000Y-129032000D01*
X159512000Y-127508000D02*
X159512000Y-124460000D01*
X165100000Y-127508000D02*
X159512000Y-127508000D01*
X165100000Y-124460000D02*
X165100000Y-127508000D01*
X159512000Y-124460000D02*
X165100000Y-124460000D01*
D11*
X167302571Y-108608857D02*
X165802571Y-108608857D01*
X165802571Y-108037429D01*
X165874000Y-107894571D01*
X165945429Y-107823143D01*
X166088286Y-107751714D01*
X166302571Y-107751714D01*
X166445429Y-107823143D01*
X166516857Y-107894571D01*
X166588286Y-108037429D01*
X166588286Y-108608857D01*
X165802571Y-107251714D02*
X167302571Y-106894571D01*
X166231143Y-106608857D01*
X167302571Y-106323143D01*
X165802571Y-105966000D01*
X167302571Y-104537428D02*
X166588286Y-105037428D01*
X167302571Y-105394571D02*
X165802571Y-105394571D01*
X165802571Y-104823143D01*
X165874000Y-104680285D01*
X165945429Y-104608857D01*
X166088286Y-104537428D01*
X166302571Y-104537428D01*
X166445429Y-104608857D01*
X166516857Y-104680285D01*
X166588286Y-104823143D01*
X166588286Y-105394571D01*
X167302571Y-102751714D02*
X166302571Y-102751714D01*
X166588286Y-102751714D02*
X166445429Y-102680286D01*
X166374000Y-102608857D01*
X166302571Y-102466000D01*
X166302571Y-102323143D01*
X167231143Y-101251715D02*
X167302571Y-101394572D01*
X167302571Y-101680286D01*
X167231143Y-101823143D01*
X167088286Y-101894572D01*
X166516857Y-101894572D01*
X166374000Y-101823143D01*
X166302571Y-101680286D01*
X166302571Y-101394572D01*
X166374000Y-101251715D01*
X166516857Y-101180286D01*
X166659714Y-101180286D01*
X166802571Y-101894572D01*
X166302571Y-100680286D02*
X167302571Y-100323143D01*
X166302571Y-99966001D01*
X167302571Y-98608858D02*
X167302571Y-99466001D01*
X167302571Y-99037429D02*
X165802571Y-99037429D01*
X166016857Y-99180286D01*
X166159714Y-99323144D01*
X166231143Y-99466001D01*
D10*
X100076000Y-127508000D02*
G75*
G03X103124000Y-130556000I3048000J0D01*
G01*
X167132000Y-130556000D02*
G75*
G03X170180000Y-127508000I0J3048000D01*
G01*
X170180000Y-68580000D02*
G75*
G03X167132000Y-65532000I-3048000J0D01*
G01*
X103124000Y-65532000D02*
G75*
G03X100076000Y-68580000I0J-3048000D01*
G01*
D11*
X131478001Y-123962571D02*
X132478001Y-125462571D01*
X132478001Y-123962571D02*
X131478001Y-125462571D01*
X132978000Y-125391143D02*
X133192286Y-125462571D01*
X133549429Y-125462571D01*
X133692286Y-125391143D01*
X133763715Y-125319714D01*
X133835143Y-125176857D01*
X133835143Y-125034000D01*
X133763715Y-124891143D01*
X133692286Y-124819714D01*
X133549429Y-124748286D01*
X133263715Y-124676857D01*
X133120857Y-124605429D01*
X133049429Y-124534000D01*
X132978000Y-124391143D01*
X132978000Y-124248286D01*
X133049429Y-124105429D01*
X133120857Y-124034000D01*
X133263715Y-123962571D01*
X133620857Y-123962571D01*
X133835143Y-124034000D01*
X134478000Y-124891143D02*
X135620857Y-124891143D01*
X137049429Y-125462571D02*
X136335143Y-125462571D01*
X136335143Y-123962571D01*
X138192286Y-125462571D02*
X138192286Y-124676857D01*
X138120857Y-124534000D01*
X137978000Y-124462571D01*
X137692286Y-124462571D01*
X137549429Y-124534000D01*
X138192286Y-125391143D02*
X138049429Y-125462571D01*
X137692286Y-125462571D01*
X137549429Y-125391143D01*
X137478000Y-125248286D01*
X137478000Y-125105429D01*
X137549429Y-124962571D01*
X137692286Y-124891143D01*
X138049429Y-124891143D01*
X138192286Y-124819714D01*
X138906572Y-125462571D02*
X138906572Y-123962571D01*
X138906572Y-124534000D02*
X139049429Y-124462571D01*
X139335143Y-124462571D01*
X139478000Y-124534000D01*
X139549429Y-124605429D01*
X139620858Y-124748286D01*
X139620858Y-125176857D01*
X139549429Y-125319714D01*
X139478000Y-125391143D01*
X139335143Y-125462571D01*
X139049429Y-125462571D01*
X138906572Y-125391143D01*
X140192286Y-125391143D02*
X140335143Y-125462571D01*
X140620858Y-125462571D01*
X140763715Y-125391143D01*
X140835143Y-125248286D01*
X140835143Y-125176857D01*
X140763715Y-125034000D01*
X140620858Y-124962571D01*
X140406572Y-124962571D01*
X140263715Y-124891143D01*
X140192286Y-124748286D01*
X140192286Y-124676857D01*
X140263715Y-124534000D01*
X140406572Y-124462571D01*
X140620858Y-124462571D01*
X140763715Y-124534000D01*
X143835144Y-124319714D02*
X143692286Y-124248286D01*
X143406572Y-124248286D01*
X143263715Y-124319714D01*
X143120858Y-124462571D01*
X143049429Y-124605429D01*
X143049429Y-124891143D01*
X143120858Y-125034000D01*
X143263715Y-125176857D01*
X143406572Y-125248286D01*
X143692286Y-125248286D01*
X143835144Y-125176857D01*
X143549429Y-123748286D02*
X143192286Y-123819714D01*
X142835144Y-124034000D01*
X142620858Y-124391143D01*
X142549429Y-124748286D01*
X142620858Y-125105429D01*
X142835144Y-125462571D01*
X143192286Y-125676857D01*
X143549429Y-125748286D01*
X143906572Y-125676857D01*
X144263715Y-125462571D01*
X144478001Y-125105429D01*
X144549429Y-124748286D01*
X144478001Y-124391143D01*
X144263715Y-124034000D01*
X143906572Y-123819714D01*
X143549429Y-123748286D01*
X146263715Y-124105429D02*
X146335144Y-124034000D01*
X146478001Y-123962571D01*
X146835144Y-123962571D01*
X146978001Y-124034000D01*
X147049430Y-124105429D01*
X147120858Y-124248286D01*
X147120858Y-124391143D01*
X147049430Y-124605429D01*
X146192287Y-125462571D01*
X147120858Y-125462571D01*
X148049429Y-123962571D02*
X148192286Y-123962571D01*
X148335143Y-124034000D01*
X148406572Y-124105429D01*
X148478001Y-124248286D01*
X148549429Y-124534000D01*
X148549429Y-124891143D01*
X148478001Y-125176857D01*
X148406572Y-125319714D01*
X148335143Y-125391143D01*
X148192286Y-125462571D01*
X148049429Y-125462571D01*
X147906572Y-125391143D01*
X147835143Y-125319714D01*
X147763715Y-125176857D01*
X147692286Y-124891143D01*
X147692286Y-124534000D01*
X147763715Y-124248286D01*
X147835143Y-124105429D01*
X147906572Y-124034000D01*
X148049429Y-123962571D01*
X149978000Y-125462571D02*
X149120857Y-125462571D01*
X149549429Y-125462571D02*
X149549429Y-123962571D01*
X149406572Y-124176857D01*
X149263714Y-124319714D01*
X149120857Y-124391143D01*
X151335143Y-123962571D02*
X150620857Y-123962571D01*
X150549428Y-124676857D01*
X150620857Y-124605429D01*
X150763714Y-124534000D01*
X151120857Y-124534000D01*
X151263714Y-124605429D01*
X151335143Y-124676857D01*
X151406571Y-124819714D01*
X151406571Y-125176857D01*
X151335143Y-125319714D01*
X151263714Y-125391143D01*
X151120857Y-125462571D01*
X150763714Y-125462571D01*
X150620857Y-125391143D01*
X150549428Y-125319714D01*
X131799428Y-126862571D02*
X132085142Y-127862571D01*
X132370856Y-127148286D01*
X132656571Y-127862571D01*
X132942285Y-126862571D01*
X133370857Y-126862571D02*
X133656571Y-127862571D01*
X133942285Y-127148286D01*
X134228000Y-127862571D01*
X134513714Y-126862571D01*
X134942286Y-126862571D02*
X135228000Y-127862571D01*
X135513714Y-127148286D01*
X135799429Y-127862571D01*
X136085143Y-126862571D01*
X136656572Y-127719714D02*
X136728000Y-127791143D01*
X136656572Y-127862571D01*
X136585143Y-127791143D01*
X136656572Y-127719714D01*
X136656572Y-127862571D01*
X137228001Y-127862571D02*
X138013715Y-126862571D01*
X137228001Y-126862571D02*
X138013715Y-127862571D01*
X138513715Y-127791143D02*
X138656572Y-127862571D01*
X138942287Y-127862571D01*
X139085144Y-127791143D01*
X139156572Y-127648286D01*
X139156572Y-127576857D01*
X139085144Y-127434000D01*
X138942287Y-127362571D01*
X138728001Y-127362571D01*
X138585144Y-127291143D01*
X138513715Y-127148286D01*
X138513715Y-127076857D01*
X138585144Y-126934000D01*
X138728001Y-126862571D01*
X138942287Y-126862571D01*
X139085144Y-126934000D01*
X139799430Y-127291143D02*
X140942287Y-127291143D01*
X141870859Y-127862571D02*
X141728001Y-127791143D01*
X141656573Y-127648286D01*
X141656573Y-126362571D01*
X143085144Y-127862571D02*
X143085144Y-127076857D01*
X143013715Y-126934000D01*
X142870858Y-126862571D01*
X142585144Y-126862571D01*
X142442287Y-126934000D01*
X143085144Y-127791143D02*
X142942287Y-127862571D01*
X142585144Y-127862571D01*
X142442287Y-127791143D01*
X142370858Y-127648286D01*
X142370858Y-127505429D01*
X142442287Y-127362571D01*
X142585144Y-127291143D01*
X142942287Y-127291143D01*
X143085144Y-127219714D01*
X143799430Y-127862571D02*
X143799430Y-126362571D01*
X143799430Y-126934000D02*
X143942287Y-126862571D01*
X144228001Y-126862571D01*
X144370858Y-126934000D01*
X144442287Y-127005429D01*
X144513716Y-127148286D01*
X144513716Y-127576857D01*
X144442287Y-127719714D01*
X144370858Y-127791143D01*
X144228001Y-127862571D01*
X143942287Y-127862571D01*
X143799430Y-127791143D01*
X145085144Y-127791143D02*
X145228001Y-127862571D01*
X145513716Y-127862571D01*
X145656573Y-127791143D01*
X145728001Y-127648286D01*
X145728001Y-127576857D01*
X145656573Y-127434000D01*
X145513716Y-127362571D01*
X145299430Y-127362571D01*
X145156573Y-127291143D01*
X145085144Y-127148286D01*
X145085144Y-127076857D01*
X145156573Y-126934000D01*
X145299430Y-126862571D01*
X145513716Y-126862571D01*
X145656573Y-126934000D01*
X146370859Y-127719714D02*
X146442287Y-127791143D01*
X146370859Y-127862571D01*
X146299430Y-127791143D01*
X146370859Y-127719714D01*
X146370859Y-127862571D01*
X147728002Y-127791143D02*
X147585145Y-127862571D01*
X147299431Y-127862571D01*
X147156573Y-127791143D01*
X147085145Y-127719714D01*
X147013716Y-127576857D01*
X147013716Y-127148286D01*
X147085145Y-127005429D01*
X147156573Y-126934000D01*
X147299431Y-126862571D01*
X147585145Y-126862571D01*
X147728002Y-126934000D01*
X148585145Y-127862571D02*
X148442287Y-127791143D01*
X148370859Y-127719714D01*
X148299430Y-127576857D01*
X148299430Y-127148286D01*
X148370859Y-127005429D01*
X148442287Y-126934000D01*
X148585145Y-126862571D01*
X148799430Y-126862571D01*
X148942287Y-126934000D01*
X149013716Y-127005429D01*
X149085145Y-127148286D01*
X149085145Y-127576857D01*
X149013716Y-127719714D01*
X148942287Y-127791143D01*
X148799430Y-127862571D01*
X148585145Y-127862571D01*
X149728002Y-127862571D02*
X149728002Y-126862571D01*
X149728002Y-127005429D02*
X149799430Y-126934000D01*
X149942288Y-126862571D01*
X150156573Y-126862571D01*
X150299430Y-126934000D01*
X150370859Y-127076857D01*
X150370859Y-127862571D01*
X150370859Y-127076857D02*
X150442288Y-126934000D01*
X150585145Y-126862571D01*
X150799430Y-126862571D01*
X150942288Y-126934000D01*
X151013716Y-127076857D01*
X151013716Y-127862571D01*
D13*
G36*
X124925667Y-128481667D02*
X119930334Y-128481667D01*
X119930334Y-126385822D01*
X120087446Y-126385822D01*
X120088190Y-126442409D01*
X120090195Y-126481503D01*
X120093693Y-126506678D01*
X120098916Y-126521509D01*
X120106097Y-126529570D01*
X120109982Y-126531917D01*
X120131447Y-126538514D01*
X120175774Y-126548893D01*
X120238021Y-126562008D01*
X120313241Y-126576813D01*
X120388945Y-126590900D01*
X120472106Y-126606269D01*
X120547220Y-126620722D01*
X120609226Y-126633242D01*
X120653062Y-126642808D01*
X120672816Y-126648058D01*
X120687217Y-126659584D01*
X120705016Y-126686208D01*
X120727628Y-126730748D01*
X120756470Y-126796024D01*
X120792961Y-126884853D01*
X120797388Y-126895898D01*
X120892088Y-127132589D01*
X120720128Y-127385632D01*
X120548167Y-127638675D01*
X120771938Y-127862774D01*
X120837749Y-127927625D01*
X120897369Y-127984368D01*
X120947780Y-128030290D01*
X120985965Y-128062678D01*
X121008906Y-128078819D01*
X121013559Y-128080023D01*
X121030287Y-128070158D01*
X121066264Y-128046756D01*
X121117594Y-128012425D01*
X121180379Y-127969774D01*
X121250723Y-127921411D01*
X121256252Y-127917587D01*
X121326705Y-127869353D01*
X121389704Y-127827204D01*
X121441423Y-127793620D01*
X121478038Y-127771080D01*
X121495723Y-127762064D01*
X121496249Y-127762000D01*
X121514914Y-127768004D01*
X121552061Y-127784071D01*
X121601113Y-127807279D01*
X121625753Y-127819494D01*
X121677106Y-127843601D01*
X121718892Y-127860025D01*
X121744960Y-127866496D01*
X121750124Y-127865355D01*
X121757335Y-127850446D01*
X121773765Y-127812951D01*
X121797981Y-127756329D01*
X121828550Y-127684036D01*
X121864037Y-127599530D01*
X121903008Y-127506269D01*
X121944030Y-127407710D01*
X121985669Y-127307310D01*
X122026492Y-127208527D01*
X122065064Y-127114819D01*
X122099951Y-127029643D01*
X122129721Y-126956455D01*
X122152938Y-126898715D01*
X122168170Y-126859879D01*
X122173982Y-126843405D01*
X122174000Y-126843210D01*
X122163282Y-126831830D01*
X122135239Y-126809688D01*
X122097599Y-126782738D01*
X121981541Y-126688508D01*
X121891629Y-126583703D01*
X121827880Y-126468355D01*
X121790313Y-126342497D01*
X121778889Y-126215530D01*
X121791778Y-126080895D01*
X121830549Y-125957449D01*
X121895359Y-125844832D01*
X121982023Y-125746756D01*
X122084224Y-125667634D01*
X122198718Y-125609800D01*
X122320298Y-125574945D01*
X122443760Y-125564758D01*
X122520820Y-125571876D01*
X122636297Y-125603063D01*
X122748095Y-125655654D01*
X122849911Y-125725468D01*
X122935442Y-125808324D01*
X122988383Y-125882002D01*
X123041824Y-126000286D01*
X123070782Y-126127715D01*
X123075138Y-126259191D01*
X123054773Y-126389614D01*
X123009567Y-126513888D01*
X123003441Y-126526243D01*
X122966650Y-126582938D01*
X122912519Y-126646834D01*
X122847959Y-126710696D01*
X122779883Y-126767288D01*
X122758402Y-126782738D01*
X122719499Y-126810633D01*
X122691982Y-126832467D01*
X122682000Y-126843210D01*
X122687229Y-126858298D01*
X122701959Y-126895945D01*
X122724758Y-126952695D01*
X122754190Y-127025090D01*
X122788823Y-127109673D01*
X122827223Y-127202986D01*
X122867955Y-127301571D01*
X122909586Y-127401971D01*
X122950683Y-127500730D01*
X122989810Y-127594388D01*
X123025536Y-127679489D01*
X123056425Y-127752575D01*
X123081044Y-127810189D01*
X123097959Y-127848874D01*
X123105737Y-127865171D01*
X123105876Y-127865355D01*
X123122029Y-127864570D01*
X123156906Y-127852725D01*
X123204355Y-127832087D01*
X123230247Y-127819494D01*
X123282556Y-127793989D01*
X123325971Y-127774290D01*
X123353917Y-127763315D01*
X123359752Y-127762000D01*
X123375575Y-127769698D01*
X123410667Y-127791140D01*
X123461202Y-127823846D01*
X123523356Y-127865336D01*
X123593303Y-127913131D01*
X123599749Y-127917587D01*
X123670506Y-127966276D01*
X123734001Y-128009451D01*
X123786336Y-128044504D01*
X123823613Y-128068826D01*
X123841935Y-128079808D01*
X123842441Y-128080023D01*
X123857189Y-128072436D01*
X123888600Y-128047326D01*
X123933660Y-128007406D01*
X123989354Y-127955384D01*
X124052670Y-127893970D01*
X124084443Y-127862393D01*
X124308594Y-127637913D01*
X124150805Y-127408520D01*
X124101333Y-127336319D01*
X124056794Y-127270792D01*
X124019899Y-127215970D01*
X123993362Y-127175885D01*
X123979892Y-127154570D01*
X123979362Y-127153614D01*
X123979076Y-127130361D01*
X123989061Y-127087009D01*
X124007200Y-127028818D01*
X124031371Y-126961045D01*
X124059455Y-126888949D01*
X124089333Y-126817788D01*
X124118885Y-126752819D01*
X124145991Y-126699302D01*
X124168531Y-126662494D01*
X124183184Y-126647990D01*
X124206176Y-126642023D01*
X124251999Y-126632228D01*
X124315679Y-126619593D01*
X124392238Y-126605106D01*
X124474111Y-126590217D01*
X124557401Y-126574825D01*
X124631648Y-126560090D01*
X124692148Y-126547025D01*
X124734201Y-126536646D01*
X124753070Y-126529993D01*
X124759181Y-126518503D01*
X124763611Y-126492796D01*
X124766484Y-126450012D01*
X124767925Y-126387289D01*
X124768058Y-126301763D01*
X124767182Y-126204562D01*
X124763389Y-125892797D01*
X124456655Y-125835100D01*
X124367338Y-125818082D01*
X124287756Y-125802504D01*
X124221959Y-125789194D01*
X124173993Y-125778976D01*
X124147906Y-125772678D01*
X124144380Y-125771340D01*
X124137280Y-125756994D01*
X124121064Y-125721017D01*
X124097646Y-125667757D01*
X124068941Y-125601561D01*
X124043357Y-125541979D01*
X123947875Y-125318679D01*
X124126541Y-125055521D01*
X124305207Y-124792362D01*
X124082908Y-124569737D01*
X124018027Y-124505286D01*
X123959513Y-124448157D01*
X123910375Y-124401208D01*
X123873623Y-124367295D01*
X123852268Y-124349277D01*
X123848407Y-124347111D01*
X123833656Y-124354786D01*
X123799324Y-124376244D01*
X123748988Y-124409138D01*
X123686223Y-124451119D01*
X123614606Y-124499838D01*
X123588639Y-124517683D01*
X123514448Y-124568578D01*
X123447605Y-124614007D01*
X123391770Y-124651519D01*
X123350602Y-124678661D01*
X123327760Y-124692981D01*
X123324871Y-124694473D01*
X123307984Y-124691173D01*
X123270496Y-124679012D01*
X123217804Y-124660106D01*
X123155306Y-124636576D01*
X123088399Y-124610539D01*
X123022481Y-124584113D01*
X122962948Y-124559416D01*
X122915199Y-124538568D01*
X122884630Y-124523685D01*
X122876975Y-124518695D01*
X122871591Y-124502581D01*
X122862144Y-124462996D01*
X122849551Y-124404249D01*
X122834726Y-124330648D01*
X122818588Y-124246503D01*
X122814982Y-124227167D01*
X122798436Y-124139491D01*
X122782853Y-124059706D01*
X122769204Y-123992577D01*
X122758463Y-123942869D01*
X122751603Y-123915347D01*
X122750884Y-123913195D01*
X122746423Y-123902863D01*
X122739300Y-123895058D01*
X122725915Y-123889425D01*
X122702664Y-123885610D01*
X122665947Y-123883259D01*
X122612162Y-123882017D01*
X122537707Y-123881530D01*
X122438980Y-123881445D01*
X122428000Y-123881445D01*
X122326732Y-123881510D01*
X122250085Y-123881942D01*
X122194456Y-123883096D01*
X122156244Y-123885324D01*
X122131848Y-123888982D01*
X122117664Y-123894424D01*
X122110093Y-123902003D01*
X122105532Y-123912074D01*
X122105116Y-123913195D01*
X122099023Y-123936415D01*
X122088881Y-123982642D01*
X122075663Y-124047111D01*
X122060343Y-124125056D01*
X122043894Y-124211713D01*
X122041018Y-124227167D01*
X122024715Y-124313040D01*
X122009525Y-124389309D01*
X121996367Y-124451664D01*
X121986155Y-124495797D01*
X121979807Y-124517399D01*
X121979025Y-124518695D01*
X121960622Y-124529245D01*
X121921971Y-124546964D01*
X121868470Y-124569734D01*
X121805517Y-124595438D01*
X121738510Y-124621956D01*
X121672845Y-124647170D01*
X121613920Y-124668963D01*
X121567132Y-124685215D01*
X121537880Y-124693810D01*
X121531130Y-124694473D01*
X121515127Y-124684916D01*
X121479593Y-124661727D01*
X121428187Y-124627361D01*
X121364567Y-124584269D01*
X121292392Y-124534905D01*
X121267361Y-124517683D01*
X121193531Y-124467193D01*
X121127326Y-124422635D01*
X121072323Y-124386359D01*
X121032097Y-124360713D01*
X121010225Y-124348045D01*
X121007594Y-124347111D01*
X120994505Y-124356681D01*
X120964607Y-124383487D01*
X120920910Y-124424671D01*
X120866424Y-124477376D01*
X120804157Y-124538745D01*
X120773092Y-124569737D01*
X120550793Y-124792362D01*
X120729834Y-125056072D01*
X120908874Y-125319782D01*
X120812912Y-125542530D01*
X120781177Y-125615831D01*
X120753229Y-125679697D01*
X120730994Y-125729782D01*
X120716398Y-125761742D01*
X120711514Y-125771340D01*
X120696667Y-125775597D01*
X120658110Y-125784146D01*
X120599891Y-125796161D01*
X120526055Y-125810816D01*
X120440646Y-125827285D01*
X120399345Y-125835100D01*
X120092611Y-125892797D01*
X120088815Y-126205870D01*
X120087732Y-126308167D01*
X120087446Y-126385822D01*
X119930334Y-126385822D01*
X119930334Y-123486334D01*
X124925667Y-123486334D01*
X124925667Y-128481667D01*
X124925667Y-128481667D01*
G37*
X124925667Y-128481667D02*
X119930334Y-128481667D01*
X119930334Y-126385822D01*
X120087446Y-126385822D01*
X120088190Y-126442409D01*
X120090195Y-126481503D01*
X120093693Y-126506678D01*
X120098916Y-126521509D01*
X120106097Y-126529570D01*
X120109982Y-126531917D01*
X120131447Y-126538514D01*
X120175774Y-126548893D01*
X120238021Y-126562008D01*
X120313241Y-126576813D01*
X120388945Y-126590900D01*
X120472106Y-126606269D01*
X120547220Y-126620722D01*
X120609226Y-126633242D01*
X120653062Y-126642808D01*
X120672816Y-126648058D01*
X120687217Y-126659584D01*
X120705016Y-126686208D01*
X120727628Y-126730748D01*
X120756470Y-126796024D01*
X120792961Y-126884853D01*
X120797388Y-126895898D01*
X120892088Y-127132589D01*
X120720128Y-127385632D01*
X120548167Y-127638675D01*
X120771938Y-127862774D01*
X120837749Y-127927625D01*
X120897369Y-127984368D01*
X120947780Y-128030290D01*
X120985965Y-128062678D01*
X121008906Y-128078819D01*
X121013559Y-128080023D01*
X121030287Y-128070158D01*
X121066264Y-128046756D01*
X121117594Y-128012425D01*
X121180379Y-127969774D01*
X121250723Y-127921411D01*
X121256252Y-127917587D01*
X121326705Y-127869353D01*
X121389704Y-127827204D01*
X121441423Y-127793620D01*
X121478038Y-127771080D01*
X121495723Y-127762064D01*
X121496249Y-127762000D01*
X121514914Y-127768004D01*
X121552061Y-127784071D01*
X121601113Y-127807279D01*
X121625753Y-127819494D01*
X121677106Y-127843601D01*
X121718892Y-127860025D01*
X121744960Y-127866496D01*
X121750124Y-127865355D01*
X121757335Y-127850446D01*
X121773765Y-127812951D01*
X121797981Y-127756329D01*
X121828550Y-127684036D01*
X121864037Y-127599530D01*
X121903008Y-127506269D01*
X121944030Y-127407710D01*
X121985669Y-127307310D01*
X122026492Y-127208527D01*
X122065064Y-127114819D01*
X122099951Y-127029643D01*
X122129721Y-126956455D01*
X122152938Y-126898715D01*
X122168170Y-126859879D01*
X122173982Y-126843405D01*
X122174000Y-126843210D01*
X122163282Y-126831830D01*
X122135239Y-126809688D01*
X122097599Y-126782738D01*
X121981541Y-126688508D01*
X121891629Y-126583703D01*
X121827880Y-126468355D01*
X121790313Y-126342497D01*
X121778889Y-126215530D01*
X121791778Y-126080895D01*
X121830549Y-125957449D01*
X121895359Y-125844832D01*
X121982023Y-125746756D01*
X122084224Y-125667634D01*
X122198718Y-125609800D01*
X122320298Y-125574945D01*
X122443760Y-125564758D01*
X122520820Y-125571876D01*
X122636297Y-125603063D01*
X122748095Y-125655654D01*
X122849911Y-125725468D01*
X122935442Y-125808324D01*
X122988383Y-125882002D01*
X123041824Y-126000286D01*
X123070782Y-126127715D01*
X123075138Y-126259191D01*
X123054773Y-126389614D01*
X123009567Y-126513888D01*
X123003441Y-126526243D01*
X122966650Y-126582938D01*
X122912519Y-126646834D01*
X122847959Y-126710696D01*
X122779883Y-126767288D01*
X122758402Y-126782738D01*
X122719499Y-126810633D01*
X122691982Y-126832467D01*
X122682000Y-126843210D01*
X122687229Y-126858298D01*
X122701959Y-126895945D01*
X122724758Y-126952695D01*
X122754190Y-127025090D01*
X122788823Y-127109673D01*
X122827223Y-127202986D01*
X122867955Y-127301571D01*
X122909586Y-127401971D01*
X122950683Y-127500730D01*
X122989810Y-127594388D01*
X123025536Y-127679489D01*
X123056425Y-127752575D01*
X123081044Y-127810189D01*
X123097959Y-127848874D01*
X123105737Y-127865171D01*
X123105876Y-127865355D01*
X123122029Y-127864570D01*
X123156906Y-127852725D01*
X123204355Y-127832087D01*
X123230247Y-127819494D01*
X123282556Y-127793989D01*
X123325971Y-127774290D01*
X123353917Y-127763315D01*
X123359752Y-127762000D01*
X123375575Y-127769698D01*
X123410667Y-127791140D01*
X123461202Y-127823846D01*
X123523356Y-127865336D01*
X123593303Y-127913131D01*
X123599749Y-127917587D01*
X123670506Y-127966276D01*
X123734001Y-128009451D01*
X123786336Y-128044504D01*
X123823613Y-128068826D01*
X123841935Y-128079808D01*
X123842441Y-128080023D01*
X123857189Y-128072436D01*
X123888600Y-128047326D01*
X123933660Y-128007406D01*
X123989354Y-127955384D01*
X124052670Y-127893970D01*
X124084443Y-127862393D01*
X124308594Y-127637913D01*
X124150805Y-127408520D01*
X124101333Y-127336319D01*
X124056794Y-127270792D01*
X124019899Y-127215970D01*
X123993362Y-127175885D01*
X123979892Y-127154570D01*
X123979362Y-127153614D01*
X123979076Y-127130361D01*
X123989061Y-127087009D01*
X124007200Y-127028818D01*
X124031371Y-126961045D01*
X124059455Y-126888949D01*
X124089333Y-126817788D01*
X124118885Y-126752819D01*
X124145991Y-126699302D01*
X124168531Y-126662494D01*
X124183184Y-126647990D01*
X124206176Y-126642023D01*
X124251999Y-126632228D01*
X124315679Y-126619593D01*
X124392238Y-126605106D01*
X124474111Y-126590217D01*
X124557401Y-126574825D01*
X124631648Y-126560090D01*
X124692148Y-126547025D01*
X124734201Y-126536646D01*
X124753070Y-126529993D01*
X124759181Y-126518503D01*
X124763611Y-126492796D01*
X124766484Y-126450012D01*
X124767925Y-126387289D01*
X124768058Y-126301763D01*
X124767182Y-126204562D01*
X124763389Y-125892797D01*
X124456655Y-125835100D01*
X124367338Y-125818082D01*
X124287756Y-125802504D01*
X124221959Y-125789194D01*
X124173993Y-125778976D01*
X124147906Y-125772678D01*
X124144380Y-125771340D01*
X124137280Y-125756994D01*
X124121064Y-125721017D01*
X124097646Y-125667757D01*
X124068941Y-125601561D01*
X124043357Y-125541979D01*
X123947875Y-125318679D01*
X124126541Y-125055521D01*
X124305207Y-124792362D01*
X124082908Y-124569737D01*
X124018027Y-124505286D01*
X123959513Y-124448157D01*
X123910375Y-124401208D01*
X123873623Y-124367295D01*
X123852268Y-124349277D01*
X123848407Y-124347111D01*
X123833656Y-124354786D01*
X123799324Y-124376244D01*
X123748988Y-124409138D01*
X123686223Y-124451119D01*
X123614606Y-124499838D01*
X123588639Y-124517683D01*
X123514448Y-124568578D01*
X123447605Y-124614007D01*
X123391770Y-124651519D01*
X123350602Y-124678661D01*
X123327760Y-124692981D01*
X123324871Y-124694473D01*
X123307984Y-124691173D01*
X123270496Y-124679012D01*
X123217804Y-124660106D01*
X123155306Y-124636576D01*
X123088399Y-124610539D01*
X123022481Y-124584113D01*
X122962948Y-124559416D01*
X122915199Y-124538568D01*
X122884630Y-124523685D01*
X122876975Y-124518695D01*
X122871591Y-124502581D01*
X122862144Y-124462996D01*
X122849551Y-124404249D01*
X122834726Y-124330648D01*
X122818588Y-124246503D01*
X122814982Y-124227167D01*
X122798436Y-124139491D01*
X122782853Y-124059706D01*
X122769204Y-123992577D01*
X122758463Y-123942869D01*
X122751603Y-123915347D01*
X122750884Y-123913195D01*
X122746423Y-123902863D01*
X122739300Y-123895058D01*
X122725915Y-123889425D01*
X122702664Y-123885610D01*
X122665947Y-123883259D01*
X122612162Y-123882017D01*
X122537707Y-123881530D01*
X122438980Y-123881445D01*
X122428000Y-123881445D01*
X122326732Y-123881510D01*
X122250085Y-123881942D01*
X122194456Y-123883096D01*
X122156244Y-123885324D01*
X122131848Y-123888982D01*
X122117664Y-123894424D01*
X122110093Y-123902003D01*
X122105532Y-123912074D01*
X122105116Y-123913195D01*
X122099023Y-123936415D01*
X122088881Y-123982642D01*
X122075663Y-124047111D01*
X122060343Y-124125056D01*
X122043894Y-124211713D01*
X122041018Y-124227167D01*
X122024715Y-124313040D01*
X122009525Y-124389309D01*
X121996367Y-124451664D01*
X121986155Y-124495797D01*
X121979807Y-124517399D01*
X121979025Y-124518695D01*
X121960622Y-124529245D01*
X121921971Y-124546964D01*
X121868470Y-124569734D01*
X121805517Y-124595438D01*
X121738510Y-124621956D01*
X121672845Y-124647170D01*
X121613920Y-124668963D01*
X121567132Y-124685215D01*
X121537880Y-124693810D01*
X121531130Y-124694473D01*
X121515127Y-124684916D01*
X121479593Y-124661727D01*
X121428187Y-124627361D01*
X121364567Y-124584269D01*
X121292392Y-124534905D01*
X121267361Y-124517683D01*
X121193531Y-124467193D01*
X121127326Y-124422635D01*
X121072323Y-124386359D01*
X121032097Y-124360713D01*
X121010225Y-124348045D01*
X121007594Y-124347111D01*
X120994505Y-124356681D01*
X120964607Y-124383487D01*
X120920910Y-124424671D01*
X120866424Y-124477376D01*
X120804157Y-124538745D01*
X120773092Y-124569737D01*
X120550793Y-124792362D01*
X120729834Y-125056072D01*
X120908874Y-125319782D01*
X120812912Y-125542530D01*
X120781177Y-125615831D01*
X120753229Y-125679697D01*
X120730994Y-125729782D01*
X120716398Y-125761742D01*
X120711514Y-125771340D01*
X120696667Y-125775597D01*
X120658110Y-125784146D01*
X120599891Y-125796161D01*
X120526055Y-125810816D01*
X120440646Y-125827285D01*
X120399345Y-125835100D01*
X120092611Y-125892797D01*
X120088815Y-126205870D01*
X120087732Y-126308167D01*
X120087446Y-126385822D01*
X119930334Y-126385822D01*
X119930334Y-123486334D01*
X124925667Y-123486334D01*
X124925667Y-128481667D01*
G36*
X130513667Y-128481667D02*
X125518334Y-128481667D01*
X125518334Y-127089650D01*
X125901845Y-127089650D01*
X125905162Y-127142173D01*
X125911020Y-127193262D01*
X125945546Y-127362800D01*
X126004001Y-127519297D01*
X126084712Y-127660960D01*
X126186007Y-127786000D01*
X126306213Y-127892624D01*
X126443659Y-127979043D01*
X126596671Y-128043465D01*
X126738945Y-128079819D01*
X126824569Y-128093156D01*
X126899092Y-128097865D01*
X126973618Y-128093727D01*
X127059252Y-128080522D01*
X127098778Y-128072720D01*
X127261338Y-128025145D01*
X127412598Y-127951762D01*
X127551848Y-127852922D01*
X127564747Y-127841944D01*
X127593453Y-127815748D01*
X127639984Y-127771540D01*
X127702286Y-127711338D01*
X127778304Y-127637162D01*
X127865984Y-127551030D01*
X127931448Y-127486386D01*
X128100749Y-127486386D01*
X128231236Y-127618661D01*
X128348381Y-127733749D01*
X128453075Y-127828017D01*
X128548950Y-127903835D01*
X128639641Y-127963571D01*
X128728779Y-128009596D01*
X128819998Y-128044280D01*
X128916931Y-128069992D01*
X128926167Y-128071970D01*
X129013830Y-128088653D01*
X129084921Y-128097179D01*
X129149755Y-128097970D01*
X129218646Y-128091452D01*
X129257778Y-128085593D01*
X129427292Y-128044784D01*
X129582409Y-127980541D01*
X129721530Y-127894506D01*
X129843054Y-127788319D01*
X129945382Y-127663623D01*
X130026912Y-127522058D01*
X130086045Y-127365266D01*
X130120406Y-127200817D01*
X130126424Y-127051729D01*
X130106260Y-126898218D01*
X130060761Y-126743985D01*
X129990772Y-126592731D01*
X129975193Y-126565346D01*
X129957342Y-126540156D01*
X129925376Y-126501734D01*
X129878536Y-126449285D01*
X129816063Y-126382012D01*
X129737199Y-126299118D01*
X129641185Y-126199807D01*
X129527262Y-126083280D01*
X129394673Y-125948742D01*
X129242657Y-125795396D01*
X129230255Y-125782917D01*
X129114071Y-125666238D01*
X129003519Y-125555624D01*
X128900231Y-125452679D01*
X128805837Y-125359010D01*
X128721967Y-125276221D01*
X128650250Y-125205919D01*
X128592318Y-125149709D01*
X128549800Y-125109195D01*
X128524326Y-125085985D01*
X128517455Y-125080889D01*
X128503307Y-125090454D01*
X128472663Y-125117118D01*
X128428796Y-125157835D01*
X128374975Y-125209561D01*
X128314471Y-125269249D01*
X128305352Y-125278370D01*
X128108249Y-125475852D01*
X128779519Y-126149731D01*
X128916286Y-126287449D01*
X129040473Y-126413346D01*
X129151090Y-126526393D01*
X129247150Y-126625556D01*
X129327664Y-126709805D01*
X129391643Y-126778107D01*
X129438099Y-126829431D01*
X129466043Y-126862745D01*
X129473954Y-126874555D01*
X129509711Y-126983166D01*
X129518538Y-127089921D01*
X129500914Y-127192010D01*
X129457319Y-127286620D01*
X129389501Y-127369720D01*
X129303546Y-127434269D01*
X129207371Y-127473628D01*
X129104757Y-127486782D01*
X129003309Y-127473710D01*
X128959249Y-127461214D01*
X128920937Y-127446480D01*
X128884142Y-127426486D01*
X128844636Y-127398210D01*
X128798190Y-127358628D01*
X128740577Y-127304719D01*
X128668615Y-127234495D01*
X128509841Y-127078024D01*
X128100749Y-127486386D01*
X127931448Y-127486386D01*
X127963270Y-127454963D01*
X128068107Y-127350978D01*
X128178442Y-127241096D01*
X128292218Y-127127336D01*
X128305157Y-127114369D01*
X128940037Y-126478013D01*
X128735802Y-126273413D01*
X128531568Y-126068814D01*
X127853978Y-126743804D01*
X127715769Y-126881068D01*
X127589422Y-127005714D01*
X127475960Y-127116760D01*
X127376406Y-127213225D01*
X127291783Y-127294130D01*
X127223117Y-127358492D01*
X127171429Y-127405331D01*
X127137744Y-127433666D01*
X127125445Y-127441956D01*
X127016829Y-127477712D01*
X126910071Y-127486537D01*
X126807982Y-127468912D01*
X126713373Y-127425315D01*
X126630280Y-127357501D01*
X126565732Y-127271546D01*
X126526372Y-127175371D01*
X126513218Y-127072757D01*
X126526290Y-126971309D01*
X126538786Y-126927249D01*
X126553520Y-126888937D01*
X126573514Y-126852142D01*
X126601791Y-126812636D01*
X126641372Y-126766190D01*
X126695281Y-126708577D01*
X126765506Y-126636615D01*
X126921976Y-126477841D01*
X126513614Y-126068749D01*
X126381340Y-126199236D01*
X126268719Y-126313545D01*
X126176488Y-126415113D01*
X126102198Y-126507779D01*
X126043401Y-126595383D01*
X125997647Y-126681764D01*
X125962490Y-126770763D01*
X125935479Y-126866219D01*
X125924715Y-126915334D01*
X125911101Y-126986785D01*
X125903651Y-127041372D01*
X125901845Y-127089650D01*
X125518334Y-127089650D01*
X125518334Y-124916271D01*
X125905576Y-124916271D01*
X125925740Y-125069782D01*
X125971239Y-125224016D01*
X126041229Y-125375270D01*
X126056808Y-125402654D01*
X126074659Y-125427845D01*
X126106625Y-125466266D01*
X126153465Y-125518715D01*
X126215938Y-125585988D01*
X126294802Y-125668882D01*
X126390815Y-125768194D01*
X126504738Y-125884720D01*
X126637328Y-126019258D01*
X126789343Y-126172604D01*
X126801745Y-126185084D01*
X126917930Y-126301762D01*
X127028481Y-126412376D01*
X127131769Y-126515321D01*
X127226163Y-126608990D01*
X127310034Y-126691779D01*
X127381750Y-126762081D01*
X127439682Y-126818292D01*
X127482201Y-126858805D01*
X127507674Y-126882015D01*
X127514545Y-126887111D01*
X127528694Y-126877547D01*
X127559337Y-126850883D01*
X127603205Y-126810165D01*
X127657026Y-126758440D01*
X127717529Y-126698751D01*
X127726648Y-126689630D01*
X127923751Y-126492149D01*
X127252481Y-125818269D01*
X127115714Y-125680552D01*
X126991527Y-125554654D01*
X126928250Y-125489987D01*
X127091964Y-125489987D01*
X127296198Y-125694587D01*
X127500433Y-125899186D01*
X128178022Y-125224196D01*
X128316231Y-125086932D01*
X128442578Y-124962286D01*
X128556041Y-124851241D01*
X128655595Y-124754775D01*
X128740217Y-124673871D01*
X128808883Y-124609509D01*
X128860571Y-124562670D01*
X128894256Y-124534334D01*
X128906555Y-124526044D01*
X129015171Y-124490288D01*
X129121929Y-124481463D01*
X129224018Y-124499088D01*
X129318628Y-124542685D01*
X129401720Y-124610499D01*
X129466269Y-124696454D01*
X129505628Y-124792629D01*
X129518782Y-124895243D01*
X129505710Y-124996691D01*
X129493214Y-125040751D01*
X129478480Y-125079064D01*
X129458486Y-125115859D01*
X129430210Y-125155365D01*
X129390628Y-125201810D01*
X129336719Y-125259424D01*
X129266495Y-125331385D01*
X129110024Y-125490159D01*
X129518386Y-125899251D01*
X129650661Y-125768764D01*
X129763281Y-125654455D01*
X129855512Y-125552888D01*
X129929802Y-125460222D01*
X129988600Y-125372618D01*
X130034353Y-125286236D01*
X130069511Y-125197237D01*
X130096521Y-125101782D01*
X130107286Y-125052667D01*
X130120899Y-124981216D01*
X130128349Y-124926629D01*
X130130155Y-124878351D01*
X130126838Y-124825827D01*
X130120980Y-124774739D01*
X130086320Y-124604377D01*
X130027738Y-124447597D01*
X129946892Y-124306057D01*
X129845440Y-124181414D01*
X129725041Y-124075326D01*
X129587351Y-123989452D01*
X129434029Y-123925450D01*
X129266733Y-123884976D01*
X129225262Y-123879020D01*
X129162005Y-123872044D01*
X129111284Y-123869783D01*
X129062541Y-123872758D01*
X129005222Y-123881487D01*
X128947334Y-123892715D01*
X128785898Y-123937369D01*
X128640367Y-124003674D01*
X128506179Y-124093846D01*
X128467253Y-124126056D01*
X128438547Y-124152252D01*
X128392016Y-124196460D01*
X128329714Y-124256663D01*
X128253696Y-124330839D01*
X128166017Y-124416970D01*
X128068731Y-124513038D01*
X127963893Y-124617022D01*
X127853559Y-124726904D01*
X127739782Y-124840665D01*
X127726843Y-124853631D01*
X127091964Y-125489987D01*
X126928250Y-125489987D01*
X126880910Y-125441608D01*
X126784850Y-125342444D01*
X126704336Y-125258196D01*
X126640357Y-125189894D01*
X126593901Y-125138570D01*
X126565957Y-125105256D01*
X126558046Y-125093445D01*
X126522289Y-124984835D01*
X126513463Y-124878079D01*
X126531086Y-124775990D01*
X126574681Y-124681380D01*
X126642499Y-124598280D01*
X126728454Y-124533732D01*
X126824629Y-124494372D01*
X126927243Y-124481218D01*
X127028691Y-124494290D01*
X127072751Y-124506786D01*
X127111064Y-124521520D01*
X127147859Y-124541514D01*
X127187365Y-124569791D01*
X127233810Y-124609372D01*
X127291424Y-124663281D01*
X127363385Y-124733506D01*
X127522159Y-124889976D01*
X127931251Y-124481614D01*
X127800764Y-124349340D01*
X127686455Y-124236719D01*
X127584888Y-124144488D01*
X127492222Y-124070198D01*
X127404618Y-124011401D01*
X127318236Y-123965647D01*
X127229237Y-123930490D01*
X127133782Y-123903479D01*
X127084667Y-123892715D01*
X127013141Y-123879093D01*
X126958488Y-123871645D01*
X126910164Y-123869847D01*
X126857627Y-123873176D01*
X126807414Y-123878935D01*
X126637052Y-123913596D01*
X126480206Y-123972194D01*
X126338548Y-124053070D01*
X126213748Y-124154567D01*
X126107477Y-124275028D01*
X126021408Y-124412797D01*
X125957212Y-124566214D01*
X125916560Y-124733625D01*
X125911595Y-124767184D01*
X125905576Y-124916271D01*
X125518334Y-124916271D01*
X125518334Y-123486334D01*
X130513667Y-123486334D01*
X130513667Y-128481667D01*
X130513667Y-128481667D01*
G37*
X130513667Y-128481667D02*
X125518334Y-128481667D01*
X125518334Y-127089650D01*
X125901845Y-127089650D01*
X125905162Y-127142173D01*
X125911020Y-127193262D01*
X125945546Y-127362800D01*
X126004001Y-127519297D01*
X126084712Y-127660960D01*
X126186007Y-127786000D01*
X126306213Y-127892624D01*
X126443659Y-127979043D01*
X126596671Y-128043465D01*
X126738945Y-128079819D01*
X126824569Y-128093156D01*
X126899092Y-128097865D01*
X126973618Y-128093727D01*
X127059252Y-128080522D01*
X127098778Y-128072720D01*
X127261338Y-128025145D01*
X127412598Y-127951762D01*
X127551848Y-127852922D01*
X127564747Y-127841944D01*
X127593453Y-127815748D01*
X127639984Y-127771540D01*
X127702286Y-127711338D01*
X127778304Y-127637162D01*
X127865984Y-127551030D01*
X127931448Y-127486386D01*
X128100749Y-127486386D01*
X128231236Y-127618661D01*
X128348381Y-127733749D01*
X128453075Y-127828017D01*
X128548950Y-127903835D01*
X128639641Y-127963571D01*
X128728779Y-128009596D01*
X128819998Y-128044280D01*
X128916931Y-128069992D01*
X128926167Y-128071970D01*
X129013830Y-128088653D01*
X129084921Y-128097179D01*
X129149755Y-128097970D01*
X129218646Y-128091452D01*
X129257778Y-128085593D01*
X129427292Y-128044784D01*
X129582409Y-127980541D01*
X129721530Y-127894506D01*
X129843054Y-127788319D01*
X129945382Y-127663623D01*
X130026912Y-127522058D01*
X130086045Y-127365266D01*
X130120406Y-127200817D01*
X130126424Y-127051729D01*
X130106260Y-126898218D01*
X130060761Y-126743985D01*
X129990772Y-126592731D01*
X129975193Y-126565346D01*
X129957342Y-126540156D01*
X129925376Y-126501734D01*
X129878536Y-126449285D01*
X129816063Y-126382012D01*
X129737199Y-126299118D01*
X129641185Y-126199807D01*
X129527262Y-126083280D01*
X129394673Y-125948742D01*
X129242657Y-125795396D01*
X129230255Y-125782917D01*
X129114071Y-125666238D01*
X129003519Y-125555624D01*
X128900231Y-125452679D01*
X128805837Y-125359010D01*
X128721967Y-125276221D01*
X128650250Y-125205919D01*
X128592318Y-125149709D01*
X128549800Y-125109195D01*
X128524326Y-125085985D01*
X128517455Y-125080889D01*
X128503307Y-125090454D01*
X128472663Y-125117118D01*
X128428796Y-125157835D01*
X128374975Y-125209561D01*
X128314471Y-125269249D01*
X128305352Y-125278370D01*
X128108249Y-125475852D01*
X128779519Y-126149731D01*
X128916286Y-126287449D01*
X129040473Y-126413346D01*
X129151090Y-126526393D01*
X129247150Y-126625556D01*
X129327664Y-126709805D01*
X129391643Y-126778107D01*
X129438099Y-126829431D01*
X129466043Y-126862745D01*
X129473954Y-126874555D01*
X129509711Y-126983166D01*
X129518538Y-127089921D01*
X129500914Y-127192010D01*
X129457319Y-127286620D01*
X129389501Y-127369720D01*
X129303546Y-127434269D01*
X129207371Y-127473628D01*
X129104757Y-127486782D01*
X129003309Y-127473710D01*
X128959249Y-127461214D01*
X128920937Y-127446480D01*
X128884142Y-127426486D01*
X128844636Y-127398210D01*
X128798190Y-127358628D01*
X128740577Y-127304719D01*
X128668615Y-127234495D01*
X128509841Y-127078024D01*
X128100749Y-127486386D01*
X127931448Y-127486386D01*
X127963270Y-127454963D01*
X128068107Y-127350978D01*
X128178442Y-127241096D01*
X128292218Y-127127336D01*
X128305157Y-127114369D01*
X128940037Y-126478013D01*
X128735802Y-126273413D01*
X128531568Y-126068814D01*
X127853978Y-126743804D01*
X127715769Y-126881068D01*
X127589422Y-127005714D01*
X127475960Y-127116760D01*
X127376406Y-127213225D01*
X127291783Y-127294130D01*
X127223117Y-127358492D01*
X127171429Y-127405331D01*
X127137744Y-127433666D01*
X127125445Y-127441956D01*
X127016829Y-127477712D01*
X126910071Y-127486537D01*
X126807982Y-127468912D01*
X126713373Y-127425315D01*
X126630280Y-127357501D01*
X126565732Y-127271546D01*
X126526372Y-127175371D01*
X126513218Y-127072757D01*
X126526290Y-126971309D01*
X126538786Y-126927249D01*
X126553520Y-126888937D01*
X126573514Y-126852142D01*
X126601791Y-126812636D01*
X126641372Y-126766190D01*
X126695281Y-126708577D01*
X126765506Y-126636615D01*
X126921976Y-126477841D01*
X126513614Y-126068749D01*
X126381340Y-126199236D01*
X126268719Y-126313545D01*
X126176488Y-126415113D01*
X126102198Y-126507779D01*
X126043401Y-126595383D01*
X125997647Y-126681764D01*
X125962490Y-126770763D01*
X125935479Y-126866219D01*
X125924715Y-126915334D01*
X125911101Y-126986785D01*
X125903651Y-127041372D01*
X125901845Y-127089650D01*
X125518334Y-127089650D01*
X125518334Y-124916271D01*
X125905576Y-124916271D01*
X125925740Y-125069782D01*
X125971239Y-125224016D01*
X126041229Y-125375270D01*
X126056808Y-125402654D01*
X126074659Y-125427845D01*
X126106625Y-125466266D01*
X126153465Y-125518715D01*
X126215938Y-125585988D01*
X126294802Y-125668882D01*
X126390815Y-125768194D01*
X126504738Y-125884720D01*
X126637328Y-126019258D01*
X126789343Y-126172604D01*
X126801745Y-126185084D01*
X126917930Y-126301762D01*
X127028481Y-126412376D01*
X127131769Y-126515321D01*
X127226163Y-126608990D01*
X127310034Y-126691779D01*
X127381750Y-126762081D01*
X127439682Y-126818292D01*
X127482201Y-126858805D01*
X127507674Y-126882015D01*
X127514545Y-126887111D01*
X127528694Y-126877547D01*
X127559337Y-126850883D01*
X127603205Y-126810165D01*
X127657026Y-126758440D01*
X127717529Y-126698751D01*
X127726648Y-126689630D01*
X127923751Y-126492149D01*
X127252481Y-125818269D01*
X127115714Y-125680552D01*
X126991527Y-125554654D01*
X126928250Y-125489987D01*
X127091964Y-125489987D01*
X127296198Y-125694587D01*
X127500433Y-125899186D01*
X128178022Y-125224196D01*
X128316231Y-125086932D01*
X128442578Y-124962286D01*
X128556041Y-124851241D01*
X128655595Y-124754775D01*
X128740217Y-124673871D01*
X128808883Y-124609509D01*
X128860571Y-124562670D01*
X128894256Y-124534334D01*
X128906555Y-124526044D01*
X129015171Y-124490288D01*
X129121929Y-124481463D01*
X129224018Y-124499088D01*
X129318628Y-124542685D01*
X129401720Y-124610499D01*
X129466269Y-124696454D01*
X129505628Y-124792629D01*
X129518782Y-124895243D01*
X129505710Y-124996691D01*
X129493214Y-125040751D01*
X129478480Y-125079064D01*
X129458486Y-125115859D01*
X129430210Y-125155365D01*
X129390628Y-125201810D01*
X129336719Y-125259424D01*
X129266495Y-125331385D01*
X129110024Y-125490159D01*
X129518386Y-125899251D01*
X129650661Y-125768764D01*
X129763281Y-125654455D01*
X129855512Y-125552888D01*
X129929802Y-125460222D01*
X129988600Y-125372618D01*
X130034353Y-125286236D01*
X130069511Y-125197237D01*
X130096521Y-125101782D01*
X130107286Y-125052667D01*
X130120899Y-124981216D01*
X130128349Y-124926629D01*
X130130155Y-124878351D01*
X130126838Y-124825827D01*
X130120980Y-124774739D01*
X130086320Y-124604377D01*
X130027738Y-124447597D01*
X129946892Y-124306057D01*
X129845440Y-124181414D01*
X129725041Y-124075326D01*
X129587351Y-123989452D01*
X129434029Y-123925450D01*
X129266733Y-123884976D01*
X129225262Y-123879020D01*
X129162005Y-123872044D01*
X129111284Y-123869783D01*
X129062541Y-123872758D01*
X129005222Y-123881487D01*
X128947334Y-123892715D01*
X128785898Y-123937369D01*
X128640367Y-124003674D01*
X128506179Y-124093846D01*
X128467253Y-124126056D01*
X128438547Y-124152252D01*
X128392016Y-124196460D01*
X128329714Y-124256663D01*
X128253696Y-124330839D01*
X128166017Y-124416970D01*
X128068731Y-124513038D01*
X127963893Y-124617022D01*
X127853559Y-124726904D01*
X127739782Y-124840665D01*
X127726843Y-124853631D01*
X127091964Y-125489987D01*
X126928250Y-125489987D01*
X126880910Y-125441608D01*
X126784850Y-125342444D01*
X126704336Y-125258196D01*
X126640357Y-125189894D01*
X126593901Y-125138570D01*
X126565957Y-125105256D01*
X126558046Y-125093445D01*
X126522289Y-124984835D01*
X126513463Y-124878079D01*
X126531086Y-124775990D01*
X126574681Y-124681380D01*
X126642499Y-124598280D01*
X126728454Y-124533732D01*
X126824629Y-124494372D01*
X126927243Y-124481218D01*
X127028691Y-124494290D01*
X127072751Y-124506786D01*
X127111064Y-124521520D01*
X127147859Y-124541514D01*
X127187365Y-124569791D01*
X127233810Y-124609372D01*
X127291424Y-124663281D01*
X127363385Y-124733506D01*
X127522159Y-124889976D01*
X127931251Y-124481614D01*
X127800764Y-124349340D01*
X127686455Y-124236719D01*
X127584888Y-124144488D01*
X127492222Y-124070198D01*
X127404618Y-124011401D01*
X127318236Y-123965647D01*
X127229237Y-123930490D01*
X127133782Y-123903479D01*
X127084667Y-123892715D01*
X127013141Y-123879093D01*
X126958488Y-123871645D01*
X126910164Y-123869847D01*
X126857627Y-123873176D01*
X126807414Y-123878935D01*
X126637052Y-123913596D01*
X126480206Y-123972194D01*
X126338548Y-124053070D01*
X126213748Y-124154567D01*
X126107477Y-124275028D01*
X126021408Y-124412797D01*
X125957212Y-124566214D01*
X125916560Y-124733625D01*
X125911595Y-124767184D01*
X125905576Y-124916271D01*
X125518334Y-124916271D01*
X125518334Y-123486334D01*
X130513667Y-123486334D01*
X130513667Y-128481667D01*
D14*
X134874000Y-96774000D02*
X134366000Y-96774000D01*
X134874000Y-96520000D02*
X134366000Y-96520000D01*
X134874000Y-96266000D02*
X134366000Y-96266000D01*
X134874000Y-96012000D02*
X134366000Y-96012000D01*
X134874000Y-95758000D02*
X134366000Y-95758000D01*
X134874000Y-95504000D02*
X134366000Y-95504000D01*
X134874000Y-95250000D02*
X134366000Y-95250000D01*
X134874000Y-94996000D02*
X134366000Y-94996000D01*
X134874000Y-94742000D02*
X134366000Y-94742000D01*
X134874000Y-94488000D02*
X134366000Y-94488000D01*
X134874000Y-94234000D02*
X134366000Y-94234000D01*
X134874000Y-93980000D02*
X134366000Y-93980000D01*
X134874000Y-93726000D02*
X134366000Y-93726000D01*
X134874000Y-93472000D02*
X134366000Y-93472000D01*
X134874000Y-93218000D02*
X134366000Y-93218000D01*
X134874000Y-92964000D02*
X134366000Y-92964000D01*
X134874000Y-92710000D02*
X134366000Y-92710000D01*
X134874000Y-92456000D02*
X134366000Y-92456000D01*
X134874000Y-92202000D02*
X134366000Y-92202000D01*
X132334000Y-92202000D02*
X131826000Y-92202000D01*
X132334000Y-92456000D02*
X131826000Y-92456000D01*
X132334000Y-92710000D02*
X131826000Y-92710000D01*
X132334000Y-92964000D02*
X131826000Y-92964000D01*
X132334000Y-93218000D02*
X131826000Y-93218000D01*
X132334000Y-93472000D02*
X131826000Y-93472000D01*
X132334000Y-93726000D02*
X131826000Y-93726000D01*
X132334000Y-93980000D02*
X131826000Y-93980000D01*
X132334000Y-94234000D02*
X131826000Y-94234000D01*
X132334000Y-94488000D02*
X131826000Y-94488000D01*
X132334000Y-94742000D02*
X131826000Y-94742000D01*
X132334000Y-94996000D02*
X131826000Y-94996000D01*
X132334000Y-95250000D02*
X131826000Y-95250000D01*
X132334000Y-95504000D02*
X131826000Y-95504000D01*
X132334000Y-95758000D02*
X131826000Y-95758000D01*
X132334000Y-96012000D02*
X131826000Y-96012000D01*
X132334000Y-96266000D02*
X131826000Y-96266000D01*
X132334000Y-96520000D02*
X131826000Y-96520000D01*
X132334000Y-96774000D02*
X131826000Y-96774000D01*
X133858000Y-93218000D02*
X132842000Y-93218000D01*
X133858000Y-93472000D02*
X132842000Y-93472000D01*
X133858000Y-93726000D02*
X132842000Y-93726000D01*
X133858000Y-93980000D02*
X132842000Y-93980000D01*
X133858000Y-94234000D02*
X132842000Y-94234000D01*
X133858000Y-94488000D02*
X132842000Y-94488000D01*
X133858000Y-94742000D02*
X132842000Y-94742000D01*
X133858000Y-94996000D02*
X132842000Y-94996000D01*
X133858000Y-95250000D02*
X132842000Y-95250000D01*
X133858000Y-95504000D02*
X132842000Y-95504000D01*
X133858000Y-95758000D02*
X132842000Y-95758000D01*
X136398000Y-93218000D02*
X135382000Y-93218000D01*
X136398000Y-93472000D02*
X135382000Y-93472000D01*
X136398000Y-93726000D02*
X135382000Y-93726000D01*
X136398000Y-93980000D02*
X135382000Y-93980000D01*
X136398000Y-94234000D02*
X135382000Y-94234000D01*
X136398000Y-94488000D02*
X135382000Y-94488000D01*
X136398000Y-94742000D02*
X135382000Y-94742000D01*
X136398000Y-94996000D02*
X135382000Y-94996000D01*
X136398000Y-95250000D02*
X135382000Y-95250000D01*
X136398000Y-95504000D02*
X135382000Y-95504000D01*
X135382000Y-95758000D02*
X136398000Y-95758000D01*
X136144000Y-92964000D02*
X136144000Y-96012000D01*
X135890000Y-96012000D02*
X135890000Y-92964000D01*
X135636000Y-92964000D02*
X135636000Y-96012000D01*
X134620000Y-97028000D02*
X134620000Y-91948000D01*
X133604000Y-96012000D02*
X133604000Y-92964000D01*
X133350000Y-92964000D02*
X133350000Y-96012000D01*
X133096000Y-96012000D02*
X133096000Y-92964000D01*
X132080000Y-97028000D02*
X132080000Y-91948000D01*
X132334000Y-97028000D02*
X132334000Y-91948000D01*
X132334000Y-91948000D02*
X131826000Y-91948000D01*
X131826000Y-91948000D02*
X131826000Y-97028000D01*
X131826000Y-97028000D02*
X132334000Y-97028000D01*
X133858000Y-96012000D02*
X132842000Y-96012000D01*
X132842000Y-96012000D02*
X132842000Y-92964000D01*
X132842000Y-92964000D02*
X133858000Y-92964000D01*
X133858000Y-92964000D02*
X133858000Y-96012000D01*
X134874000Y-97028000D02*
X134874000Y-91948000D01*
X134874000Y-91948000D02*
X134366000Y-91948000D01*
X134366000Y-91948000D02*
X134366000Y-97028000D01*
X134366000Y-97028000D02*
X134874000Y-97028000D01*
X135382000Y-96012000D02*
X136398000Y-96012000D01*
X136398000Y-96012000D02*
X136398000Y-92964000D01*
X136398000Y-92964000D02*
X135382000Y-92964000D01*
X135382000Y-92964000D02*
X135382000Y-96012000D01*
X119380000Y-73152000D02*
X148844000Y-73152000D01*
X148844000Y-120396000D02*
X119380000Y-120396000D01*
X148844000Y-68580000D02*
X148844000Y-120396000D01*
X148844000Y-68580000D02*
X119380000Y-68580000D01*
X119380000Y-120396000D02*
X119380000Y-68580000D01*
X109220000Y-116840000D02*
X109220000Y-116332000D01*
X108966000Y-116840000D02*
X108966000Y-116332000D01*
X108712000Y-116840000D02*
X108712000Y-116332000D01*
X108458000Y-116840000D02*
X108458000Y-116332000D01*
X108204000Y-116840000D02*
X108204000Y-116332000D01*
X107950000Y-116840000D02*
X107950000Y-116332000D01*
X107696000Y-116840000D02*
X107696000Y-116332000D01*
X107442000Y-116840000D02*
X107442000Y-116332000D01*
X107188000Y-116840000D02*
X107188000Y-116332000D01*
X106934000Y-116332000D02*
X106934000Y-116840000D01*
X106680000Y-116332000D02*
X106680000Y-116840000D01*
X106426000Y-116332000D02*
X106426000Y-116840000D01*
X106172000Y-116332000D02*
X106172000Y-116840000D01*
X105918000Y-116586000D02*
X109474000Y-116586000D01*
X109474000Y-116332000D02*
X105918000Y-116332000D01*
X109474000Y-116332000D02*
X109474000Y-116840000D01*
X105918000Y-116332000D02*
X105918000Y-116840000D01*
X105918000Y-116840000D02*
X109474000Y-116840000D01*
X105918000Y-115316000D02*
X105918000Y-115824000D01*
X105918000Y-115316000D02*
X109474000Y-115316000D01*
X109474000Y-115316000D02*
X109474000Y-115824000D01*
X109474000Y-115824000D02*
X105918000Y-115824000D01*
X111760000Y-113792000D02*
G75*
G03X111760000Y-113792000I-4064000J0D01*
G01*
X104140000Y-127000000D02*
X104140000Y-121920000D01*
X107696000Y-128524000D02*
X103632000Y-128524000D01*
X107696000Y-120396000D02*
X107696000Y-128524000D01*
X103632000Y-120396000D02*
X107696000Y-120396000D01*
X103632000Y-128524000D02*
X103632000Y-120396000D01*
X107188000Y-127000000D02*
X107188000Y-121920000D01*
X113030000Y-127000000D02*
X113030000Y-121920000D01*
X116586000Y-128524000D02*
X112522000Y-128524000D01*
X116586000Y-120396000D02*
X116586000Y-128524000D01*
X112522000Y-120396000D02*
X116586000Y-120396000D01*
X112522000Y-128524000D02*
X112522000Y-120396000D01*
X116078000Y-127000000D02*
X116078000Y-121920000D01*
X118110000Y-113792000D02*
G75*
G03X118110000Y-113792000I-2540000J0D01*
G01*
X109220000Y-85852000D02*
X110236000Y-85852000D01*
X112268000Y-85852000D02*
X110998000Y-85852000D01*
X110236000Y-84836000D02*
X110236000Y-86868000D01*
X110998000Y-86868000D02*
X110236000Y-85852000D01*
X110236000Y-85852000D02*
X110998000Y-84836000D01*
X110998000Y-84836000D02*
X110998000Y-86868000D01*
X107442000Y-87376000D02*
X107442000Y-84328000D01*
X108458000Y-87376000D02*
X108458000Y-84328000D01*
X107950000Y-87376000D02*
X107950000Y-84328000D01*
X107188000Y-85852000D02*
X105664000Y-85852000D01*
X112776000Y-85852000D02*
X114300000Y-85852000D01*
X107696000Y-84328000D02*
X107696000Y-87376000D01*
X108204000Y-84328000D02*
X108204000Y-87376000D01*
X108712000Y-84328000D02*
X108712000Y-87376000D01*
X112776000Y-84328000D02*
X112776000Y-87376000D01*
X107188000Y-87376000D02*
X112776000Y-87376000D01*
X107188000Y-84328000D02*
X112776000Y-84328000D01*
X107188000Y-84328000D02*
X107188000Y-87376000D01*
X109220000Y-93980000D02*
X110236000Y-93980000D01*
X112268000Y-93980000D02*
X110998000Y-93980000D01*
X110236000Y-92964000D02*
X110236000Y-94996000D01*
X110998000Y-94996000D02*
X110236000Y-93980000D01*
X110236000Y-93980000D02*
X110998000Y-92964000D01*
X110998000Y-92964000D02*
X110998000Y-94996000D01*
X107442000Y-95504000D02*
X107442000Y-92456000D01*
X108458000Y-95504000D02*
X108458000Y-92456000D01*
X107950000Y-95504000D02*
X107950000Y-92456000D01*
X107188000Y-93980000D02*
X105664000Y-93980000D01*
X112776000Y-93980000D02*
X114300000Y-93980000D01*
X107696000Y-92456000D02*
X107696000Y-95504000D01*
X108204000Y-92456000D02*
X108204000Y-95504000D01*
X108712000Y-92456000D02*
X108712000Y-95504000D01*
X112776000Y-92456000D02*
X112776000Y-95504000D01*
X107188000Y-95504000D02*
X112776000Y-95504000D01*
X107188000Y-92456000D02*
X112776000Y-92456000D01*
X107188000Y-92456000D02*
X107188000Y-95504000D01*
X160528000Y-102616000D02*
X159766000Y-103378000D01*
X160020000Y-102616000D02*
X160528000Y-102616000D01*
X160528000Y-102616000D02*
X160528000Y-103124000D01*
X159512000Y-102616000D02*
X159512000Y-103124000D01*
X159512000Y-102616000D02*
X159004000Y-102616000D01*
X158750000Y-103378000D02*
X159512000Y-102616000D01*
X157480000Y-105918000D02*
X157480000Y-106426000D01*
X157480000Y-102870000D02*
X157480000Y-103378000D01*
X157499614Y-106448170D02*
G75*
G03X157480000Y-102870000I2012386J1800170D01*
G01*
X156972000Y-102870000D02*
X156972000Y-106426000D01*
X156972495Y-106426707D02*
G75*
G03X156972000Y-102870000I2539505J1778707D01*
G01*
X160528000Y-87884000D02*
X159766000Y-88646000D01*
X160020000Y-87884000D02*
X160528000Y-87884000D01*
X160528000Y-87884000D02*
X160528000Y-88392000D01*
X159512000Y-87884000D02*
X159512000Y-88392000D01*
X159512000Y-87884000D02*
X159004000Y-87884000D01*
X158750000Y-88646000D02*
X159512000Y-87884000D01*
X157480000Y-91186000D02*
X157480000Y-91694000D01*
X157480000Y-88138000D02*
X157480000Y-88646000D01*
X157499614Y-91716170D02*
G75*
G03X157480000Y-88138000I2012386J1800170D01*
G01*
X156972000Y-88138000D02*
X156972000Y-91694000D01*
X156972495Y-91694707D02*
G75*
G03X156972000Y-88138000I2539505J1778707D01*
G01*
X160528000Y-73660000D02*
X159766000Y-74422000D01*
X160020000Y-73660000D02*
X160528000Y-73660000D01*
X160528000Y-73660000D02*
X160528000Y-74168000D01*
X159512000Y-73660000D02*
X159512000Y-74168000D01*
X159512000Y-73660000D02*
X159004000Y-73660000D01*
X158750000Y-74422000D02*
X159512000Y-73660000D01*
X157480000Y-76962000D02*
X157480000Y-77470000D01*
X157480000Y-73914000D02*
X157480000Y-74422000D01*
X157499614Y-77492170D02*
G75*
G03X157480000Y-73914000I2012386J1800170D01*
G01*
X156972000Y-73914000D02*
X156972000Y-77470000D01*
X156972495Y-77470707D02*
G75*
G03X156972000Y-73914000I2539505J1778707D01*
G01*
X153162000Y-103124000D02*
X153162000Y-101600000D01*
X153162000Y-107442000D02*
X153162000Y-106172000D01*
X153924000Y-103378000D02*
X153162000Y-103124000D01*
X152400000Y-103886000D02*
X153924000Y-103378000D01*
X153924000Y-104394000D02*
X152400000Y-103886000D01*
X152400000Y-104902000D02*
X153924000Y-104394000D01*
X153924000Y-105410000D02*
X152400000Y-104902000D01*
X152400000Y-105918000D02*
X153924000Y-105410000D01*
X153162000Y-106172000D02*
X152400000Y-105918000D01*
X153162000Y-109220000D02*
X153162000Y-107950000D01*
X153162000Y-101092000D02*
X153162000Y-99822000D01*
X151892000Y-101092000D02*
X151892000Y-107950000D01*
X151892000Y-101092000D02*
X154432000Y-101092000D01*
X154432000Y-107950000D02*
X154432000Y-101092000D01*
X151892000Y-107950000D02*
X154432000Y-107950000D01*
X153162000Y-88646000D02*
X153162000Y-87122000D01*
X153162000Y-92964000D02*
X153162000Y-91694000D01*
X153924000Y-88900000D02*
X153162000Y-88646000D01*
X152400000Y-89408000D02*
X153924000Y-88900000D01*
X153924000Y-89916000D02*
X152400000Y-89408000D01*
X152400000Y-90424000D02*
X153924000Y-89916000D01*
X153924000Y-90932000D02*
X152400000Y-90424000D01*
X152400000Y-91440000D02*
X153924000Y-90932000D01*
X153162000Y-91694000D02*
X152400000Y-91440000D01*
X153162000Y-94742000D02*
X153162000Y-93472000D01*
X153162000Y-86614000D02*
X153162000Y-85344000D01*
X151892000Y-86614000D02*
X151892000Y-93472000D01*
X151892000Y-86614000D02*
X154432000Y-86614000D01*
X154432000Y-93472000D02*
X154432000Y-86614000D01*
X151892000Y-93472000D02*
X154432000Y-93472000D01*
X153162000Y-74168000D02*
X153162000Y-72644000D01*
X153162000Y-78486000D02*
X153162000Y-77216000D01*
X153924000Y-74422000D02*
X153162000Y-74168000D01*
X152400000Y-74930000D02*
X153924000Y-74422000D01*
X153924000Y-75438000D02*
X152400000Y-74930000D01*
X152400000Y-75946000D02*
X153924000Y-75438000D01*
X153924000Y-76454000D02*
X152400000Y-75946000D01*
X152400000Y-76962000D02*
X153924000Y-76454000D01*
X153162000Y-77216000D02*
X152400000Y-76962000D01*
X153162000Y-80264000D02*
X153162000Y-78994000D01*
X153162000Y-72136000D02*
X153162000Y-70866000D01*
X151892000Y-72136000D02*
X151892000Y-78994000D01*
X151892000Y-72136000D02*
X154432000Y-72136000D01*
X154432000Y-78994000D02*
X154432000Y-72136000D01*
X151892000Y-78994000D02*
X154432000Y-78994000D01*
X160528000Y-113030000D02*
X156464000Y-114554000D01*
X157031961Y-113030000D02*
G75*
G03X157031961Y-113030000I-567961J0D01*
G01*
X161095961Y-113030000D02*
G75*
G03X161095961Y-113030000I-567961J0D01*
G01*
X157031961Y-114554000D02*
G75*
G03X157031961Y-114554000I-567961J0D01*
G01*
X165100000Y-112014000D02*
X151892000Y-112014000D01*
X165100000Y-120142000D02*
X165100000Y-112014000D01*
X151892000Y-120142000D02*
X165100000Y-120142000D01*
X151892000Y-120142000D02*
X151892000Y-112014000D01*
X110744000Y-102362000D02*
X110744000Y-101854000D01*
X110236000Y-102362000D02*
X111252000Y-102362000D01*
X110490000Y-102616000D02*
X110998000Y-102616000D01*
X105410000Y-101092000D02*
X116078000Y-101092000D01*
X105410000Y-101600000D02*
X116078000Y-101600000D01*
X116078000Y-100584000D02*
X116078000Y-105410000D01*
X105410000Y-105410000D02*
X116078000Y-105410000D01*
X105410000Y-100584000D02*
X105410000Y-105410000D01*
X105410000Y-100584000D02*
X116078000Y-100584000D01*
X118364000Y-74676000D02*
X118364000Y-79502000D01*
X118364000Y-79502000D02*
X117602000Y-79502000D01*
X117602000Y-68580000D02*
X118364000Y-68580000D01*
X118364000Y-68580000D02*
X118364000Y-71882000D01*
X115316000Y-79502000D02*
X117602000Y-79502000D01*
X117602000Y-79502000D02*
X117602000Y-77724000D01*
X103124000Y-77724000D02*
X103124000Y-79502000D01*
X103124000Y-79502000D02*
X112268000Y-79502000D01*
X107696000Y-71882000D02*
X107696000Y-72898000D01*
X108204000Y-72898000D02*
X108204000Y-71882000D01*
X107696000Y-72898000D02*
X108204000Y-72898000D01*
X117602000Y-74676000D02*
X117602000Y-77724000D01*
X118364000Y-74676000D02*
X117602000Y-74676000D01*
X117602000Y-71882000D02*
X118364000Y-71882000D01*
X118364000Y-71882000D02*
X118364000Y-74676000D01*
X103124000Y-68580000D02*
X117602000Y-68580000D01*
X115316000Y-79502000D02*
X115316000Y-77724000D01*
X112268000Y-79502000D02*
X115316000Y-79502000D01*
X112268000Y-77724000D02*
X112268000Y-79502000D01*
X117602000Y-71882000D02*
X117602000Y-68580000D01*
X112268000Y-77724000D02*
X103124000Y-77724000D01*
X117602000Y-77724000D02*
X115316000Y-77724000D01*
X107696000Y-71882000D02*
X108204000Y-71882000D01*
X104902000Y-72136000D02*
X107696000Y-72136000D01*
X104902000Y-72644000D02*
X107696000Y-72644000D01*
X104902000Y-72136000D02*
G75*
G03X104902000Y-72644000I0J-254000D01*
G01*
X106426000Y-74422000D02*
X106172000Y-74168000D01*
X106426000Y-74422000D02*
X106680000Y-74168000D01*
X106426000Y-73406000D02*
X108204000Y-73406000D01*
X106426000Y-74422000D02*
X106426000Y-73406000D01*
X105664000Y-74676000D02*
X108204000Y-74676000D01*
X105156000Y-73914000D02*
X105664000Y-74676000D01*
X104648000Y-74676000D02*
X105156000Y-73914000D01*
X103124000Y-68580000D02*
X103124000Y-77724000D01*
X150296571Y-95273714D02*
X150344190Y-95130857D01*
X150391810Y-95083238D01*
X150487048Y-95035619D01*
X150629905Y-95035619D01*
X150725143Y-95083238D01*
X150772762Y-95130857D01*
X150820381Y-95226095D01*
X150820381Y-95607048D01*
X149820381Y-95607048D01*
X149820381Y-95273714D01*
X149868000Y-95178476D01*
X149915619Y-95130857D01*
X150010857Y-95083238D01*
X150106095Y-95083238D01*
X150201333Y-95130857D01*
X150248952Y-95178476D01*
X150296571Y-95273714D01*
X150296571Y-95607048D01*
X149820381Y-94749905D02*
X149820381Y-94178476D01*
X150820381Y-94464191D02*
X149820381Y-94464191D01*
X150820381Y-93321333D02*
X150820381Y-93892762D01*
X150820381Y-93607048D02*
X149820381Y-93607048D01*
X149963238Y-93702286D01*
X150058476Y-93797524D01*
X150106095Y-93892762D01*
X117927429Y-95726095D02*
X117927429Y-94964190D01*
X118308381Y-95345142D02*
X117546476Y-95345142D01*
X118308381Y-94440381D02*
X118308381Y-94249905D01*
X118260762Y-94154666D01*
X118213143Y-94107047D01*
X118070286Y-94011809D01*
X117879810Y-93964190D01*
X117498857Y-93964190D01*
X117403619Y-94011809D01*
X117356000Y-94059428D01*
X117308381Y-94154666D01*
X117308381Y-94345143D01*
X117356000Y-94440381D01*
X117403619Y-94488000D01*
X117498857Y-94535619D01*
X117736952Y-94535619D01*
X117832190Y-94488000D01*
X117879810Y-94440381D01*
X117927429Y-94345143D01*
X117927429Y-94154666D01*
X117879810Y-94059428D01*
X117832190Y-94011809D01*
X117736952Y-93964190D01*
X117641714Y-93630857D02*
X118308381Y-93392762D01*
X117641714Y-93154666D01*
X137231429Y-94868952D02*
X137231429Y-94107047D01*
X131135429Y-94868952D02*
X131135429Y-94107047D01*
X131516381Y-94487999D02*
X130754476Y-94487999D01*
X142565429Y-71246952D02*
X142565429Y-70485047D01*
X142946381Y-70865999D02*
X142184476Y-70865999D01*
X129865429Y-71246952D02*
X129865429Y-70485047D01*
X107529334Y-119229143D02*
X107481715Y-119276762D01*
X107338858Y-119324381D01*
X107243620Y-119324381D01*
X107100762Y-119276762D01*
X107005524Y-119181524D01*
X106957905Y-119086286D01*
X106910286Y-118895810D01*
X106910286Y-118752952D01*
X106957905Y-118562476D01*
X107005524Y-118467238D01*
X107100762Y-118372000D01*
X107243620Y-118324381D01*
X107338858Y-118324381D01*
X107481715Y-118372000D01*
X107529334Y-118419619D01*
X108481715Y-119324381D02*
X107910286Y-119324381D01*
X108196000Y-119324381D02*
X108196000Y-118324381D01*
X108100762Y-118467238D01*
X108005524Y-118562476D01*
X107910286Y-118610095D01*
X106291238Y-109164381D02*
X105719809Y-109164381D01*
X106005523Y-109164381D02*
X106005523Y-108164381D01*
X105910285Y-108307238D01*
X105815047Y-108402476D01*
X105719809Y-108450095D01*
X106910285Y-108164381D02*
X107005524Y-108164381D01*
X107100762Y-108212000D01*
X107148381Y-108259619D01*
X107196000Y-108354857D01*
X107243619Y-108545333D01*
X107243619Y-108783429D01*
X107196000Y-108973905D01*
X107148381Y-109069143D01*
X107100762Y-109116762D01*
X107005524Y-109164381D01*
X106910285Y-109164381D01*
X106815047Y-109116762D01*
X106767428Y-109069143D01*
X106719809Y-108973905D01*
X106672190Y-108783429D01*
X106672190Y-108545333D01*
X106719809Y-108354857D01*
X106767428Y-108259619D01*
X106815047Y-108212000D01*
X106910285Y-108164381D01*
X107862666Y-108164381D02*
X107957905Y-108164381D01*
X108053143Y-108212000D01*
X108100762Y-108259619D01*
X108148381Y-108354857D01*
X108196000Y-108545333D01*
X108196000Y-108783429D01*
X108148381Y-108973905D01*
X108100762Y-109069143D01*
X108053143Y-109116762D01*
X107957905Y-109164381D01*
X107862666Y-109164381D01*
X107767428Y-109116762D01*
X107719809Y-109069143D01*
X107672190Y-108973905D01*
X107624571Y-108783429D01*
X107624571Y-108545333D01*
X107672190Y-108354857D01*
X107719809Y-108259619D01*
X107767428Y-108212000D01*
X107862666Y-108164381D01*
X109053143Y-108497714D02*
X109053143Y-109164381D01*
X108624571Y-108497714D02*
X108624571Y-109021524D01*
X108672190Y-109116762D01*
X108767428Y-109164381D01*
X108910286Y-109164381D01*
X109005524Y-109116762D01*
X109053143Y-109069143D01*
X109386476Y-108497714D02*
X109767428Y-108497714D01*
X109529333Y-109164381D02*
X109529333Y-108307238D01*
X109576952Y-108212000D01*
X109672190Y-108164381D01*
X109767428Y-108164381D01*
X109093048Y-112085429D02*
X109854953Y-112085429D01*
X105537048Y-112085429D02*
X106298953Y-112085429D01*
X105918001Y-112466381D02*
X105918001Y-111704476D01*
X109577143Y-124626666D02*
X109624762Y-124674285D01*
X109672381Y-124817142D01*
X109672381Y-124912380D01*
X109624762Y-125055238D01*
X109529524Y-125150476D01*
X109434286Y-125198095D01*
X109243810Y-125245714D01*
X109100952Y-125245714D01*
X108910476Y-125198095D01*
X108815238Y-125150476D01*
X108720000Y-125055238D01*
X108672381Y-124912380D01*
X108672381Y-124817142D01*
X108720000Y-124674285D01*
X108767619Y-124626666D01*
X108767619Y-124245714D02*
X108720000Y-124198095D01*
X108672381Y-124102857D01*
X108672381Y-123864761D01*
X108720000Y-123769523D01*
X108767619Y-123721904D01*
X108862857Y-123674285D01*
X108958095Y-123674285D01*
X109100952Y-123721904D01*
X109672381Y-124293333D01*
X109672381Y-123674285D01*
X101814381Y-126436191D02*
X101814381Y-126340952D01*
X101862000Y-126245714D01*
X101909619Y-126198095D01*
X102004857Y-126150476D01*
X102195333Y-126102857D01*
X102433429Y-126102857D01*
X102623905Y-126150476D01*
X102719143Y-126198095D01*
X102766762Y-126245714D01*
X102814381Y-126340952D01*
X102814381Y-126436191D01*
X102766762Y-126531429D01*
X102719143Y-126579048D01*
X102623905Y-126626667D01*
X102433429Y-126674286D01*
X102195333Y-126674286D01*
X102004857Y-126626667D01*
X101909619Y-126579048D01*
X101862000Y-126531429D01*
X101814381Y-126436191D01*
X102719143Y-125674286D02*
X102766762Y-125626667D01*
X102814381Y-125674286D01*
X102766762Y-125721905D01*
X102719143Y-125674286D01*
X102814381Y-125674286D01*
X101814381Y-125293334D02*
X101814381Y-124674286D01*
X102195333Y-125007620D01*
X102195333Y-124864762D01*
X102242952Y-124769524D01*
X102290571Y-124721905D01*
X102385810Y-124674286D01*
X102623905Y-124674286D01*
X102719143Y-124721905D01*
X102766762Y-124769524D01*
X102814381Y-124864762D01*
X102814381Y-125150477D01*
X102766762Y-125245715D01*
X102719143Y-125293334D01*
X101814381Y-124340953D02*
X101814381Y-123721905D01*
X102195333Y-124055239D01*
X102195333Y-123912381D01*
X102242952Y-123817143D01*
X102290571Y-123769524D01*
X102385810Y-123721905D01*
X102623905Y-123721905D01*
X102719143Y-123769524D01*
X102766762Y-123817143D01*
X102814381Y-123912381D01*
X102814381Y-124198096D01*
X102766762Y-124293334D01*
X102719143Y-124340953D01*
X102147714Y-122864762D02*
X102814381Y-122864762D01*
X102147714Y-123293334D02*
X102671524Y-123293334D01*
X102766762Y-123245715D01*
X102814381Y-123150477D01*
X102814381Y-123007619D01*
X102766762Y-122912381D01*
X102719143Y-122864762D01*
X102147714Y-122531429D02*
X102147714Y-122150477D01*
X102814381Y-122388572D02*
X101957238Y-122388572D01*
X101862000Y-122340953D01*
X101814381Y-122245715D01*
X101814381Y-122150477D01*
X118467143Y-124626666D02*
X118514762Y-124674285D01*
X118562381Y-124817142D01*
X118562381Y-124912380D01*
X118514762Y-125055238D01*
X118419524Y-125150476D01*
X118324286Y-125198095D01*
X118133810Y-125245714D01*
X117990952Y-125245714D01*
X117800476Y-125198095D01*
X117705238Y-125150476D01*
X117610000Y-125055238D01*
X117562381Y-124912380D01*
X117562381Y-124817142D01*
X117610000Y-124674285D01*
X117657619Y-124626666D01*
X117562381Y-124293333D02*
X117562381Y-123674285D01*
X117943333Y-124007619D01*
X117943333Y-123864761D01*
X117990952Y-123769523D01*
X118038571Y-123721904D01*
X118133810Y-123674285D01*
X118371905Y-123674285D01*
X118467143Y-123721904D01*
X118514762Y-123769523D01*
X118562381Y-123864761D01*
X118562381Y-124150476D01*
X118514762Y-124245714D01*
X118467143Y-124293333D01*
X110704381Y-125960000D02*
X110704381Y-125864761D01*
X110752000Y-125769523D01*
X110799619Y-125721904D01*
X110894857Y-125674285D01*
X111085333Y-125626666D01*
X111323429Y-125626666D01*
X111513905Y-125674285D01*
X111609143Y-125721904D01*
X111656762Y-125769523D01*
X111704381Y-125864761D01*
X111704381Y-125960000D01*
X111656762Y-126055238D01*
X111609143Y-126102857D01*
X111513905Y-126150476D01*
X111323429Y-126198095D01*
X111085333Y-126198095D01*
X110894857Y-126150476D01*
X110799619Y-126102857D01*
X110752000Y-126055238D01*
X110704381Y-125960000D01*
X111609143Y-125198095D02*
X111656762Y-125150476D01*
X111704381Y-125198095D01*
X111656762Y-125245714D01*
X111609143Y-125198095D01*
X111704381Y-125198095D01*
X111704381Y-124198095D02*
X111704381Y-124769524D01*
X111704381Y-124483810D02*
X110704381Y-124483810D01*
X110847238Y-124579048D01*
X110942476Y-124674286D01*
X110990095Y-124769524D01*
X111037714Y-123340952D02*
X111704381Y-123340952D01*
X111037714Y-123769524D02*
X111561524Y-123769524D01*
X111656762Y-123721905D01*
X111704381Y-123626667D01*
X111704381Y-123483809D01*
X111656762Y-123388571D01*
X111609143Y-123340952D01*
X111037714Y-123007619D02*
X111037714Y-122626667D01*
X111704381Y-122864762D02*
X110847238Y-122864762D01*
X110752000Y-122817143D01*
X110704381Y-122721905D01*
X110704381Y-122626667D01*
X115403334Y-117705143D02*
X115355715Y-117752762D01*
X115212858Y-117800381D01*
X115117620Y-117800381D01*
X114974762Y-117752762D01*
X114879524Y-117657524D01*
X114831905Y-117562286D01*
X114784286Y-117371810D01*
X114784286Y-117228952D01*
X114831905Y-117038476D01*
X114879524Y-116943238D01*
X114974762Y-116848000D01*
X115117620Y-116800381D01*
X115212858Y-116800381D01*
X115355715Y-116848000D01*
X115403334Y-116895619D01*
X116260477Y-117133714D02*
X116260477Y-117800381D01*
X116022381Y-116752762D02*
X115784286Y-117467048D01*
X116403334Y-117467048D01*
X114641429Y-110688381D02*
X114070000Y-110688381D01*
X114355714Y-110688381D02*
X114355714Y-109688381D01*
X114260476Y-109831238D01*
X114165238Y-109926476D01*
X114070000Y-109974095D01*
X115260476Y-109688381D02*
X115355715Y-109688381D01*
X115450953Y-109736000D01*
X115498572Y-109783619D01*
X115546191Y-109878857D01*
X115593810Y-110069333D01*
X115593810Y-110307429D01*
X115546191Y-110497905D01*
X115498572Y-110593143D01*
X115450953Y-110640762D01*
X115355715Y-110688381D01*
X115260476Y-110688381D01*
X115165238Y-110640762D01*
X115117619Y-110593143D01*
X115070000Y-110497905D01*
X115022381Y-110307429D01*
X115022381Y-110069333D01*
X115070000Y-109878857D01*
X115117619Y-109783619D01*
X115165238Y-109736000D01*
X115260476Y-109688381D01*
X116450953Y-110021714D02*
X116450953Y-110688381D01*
X116022381Y-110021714D02*
X116022381Y-110545524D01*
X116070000Y-110640762D01*
X116165238Y-110688381D01*
X116308096Y-110688381D01*
X116403334Y-110640762D01*
X116450953Y-110593143D01*
X116784286Y-110021714D02*
X117165238Y-110021714D01*
X116927143Y-110688381D02*
X116927143Y-109831238D01*
X116974762Y-109736000D01*
X117070000Y-109688381D01*
X117165238Y-109688381D01*
X116205048Y-112339429D02*
X116966953Y-112339429D01*
X114173048Y-112339429D02*
X114934953Y-112339429D01*
X114554001Y-112720381D02*
X114554001Y-111958476D01*
X109243905Y-89352381D02*
X109243905Y-88352381D01*
X109482000Y-88352381D01*
X109624858Y-88400000D01*
X109720096Y-88495238D01*
X109767715Y-88590476D01*
X109815334Y-88780952D01*
X109815334Y-88923810D01*
X109767715Y-89114286D01*
X109720096Y-89209524D01*
X109624858Y-89304762D01*
X109482000Y-89352381D01*
X109243905Y-89352381D01*
X110767715Y-89352381D02*
X110196286Y-89352381D01*
X110482000Y-89352381D02*
X110482000Y-88352381D01*
X110386762Y-88495238D01*
X110291524Y-88590476D01*
X110196286Y-88638095D01*
X107839143Y-83256381D02*
X107267714Y-83256381D01*
X107553428Y-83256381D02*
X107553428Y-82256381D01*
X107458190Y-82399238D01*
X107362952Y-82494476D01*
X107267714Y-82542095D01*
X108267714Y-83256381D02*
X108267714Y-82256381D01*
X108839143Y-83256381D01*
X108839143Y-82256381D01*
X109743905Y-82589714D02*
X109743905Y-83256381D01*
X109505809Y-82208762D02*
X109267714Y-82923048D01*
X109886762Y-82923048D01*
X110458190Y-82256381D02*
X110553429Y-82256381D01*
X110648667Y-82304000D01*
X110696286Y-82351619D01*
X110743905Y-82446857D01*
X110791524Y-82637333D01*
X110791524Y-82875429D01*
X110743905Y-83065905D01*
X110696286Y-83161143D01*
X110648667Y-83208762D01*
X110553429Y-83256381D01*
X110458190Y-83256381D01*
X110362952Y-83208762D01*
X110315333Y-83161143D01*
X110267714Y-83065905D01*
X110220095Y-82875429D01*
X110220095Y-82637333D01*
X110267714Y-82446857D01*
X110315333Y-82351619D01*
X110362952Y-82304000D01*
X110458190Y-82256381D01*
X111410571Y-82256381D02*
X111505810Y-82256381D01*
X111601048Y-82304000D01*
X111648667Y-82351619D01*
X111696286Y-82446857D01*
X111743905Y-82637333D01*
X111743905Y-82875429D01*
X111696286Y-83065905D01*
X111648667Y-83161143D01*
X111601048Y-83208762D01*
X111505810Y-83256381D01*
X111410571Y-83256381D01*
X111315333Y-83208762D01*
X111267714Y-83161143D01*
X111220095Y-83065905D01*
X111172476Y-82875429D01*
X111172476Y-82637333D01*
X111220095Y-82446857D01*
X111267714Y-82351619D01*
X111315333Y-82304000D01*
X111410571Y-82256381D01*
X112696286Y-83256381D02*
X112124857Y-83256381D01*
X112410571Y-83256381D02*
X112410571Y-82256381D01*
X112315333Y-82399238D01*
X112220095Y-82494476D01*
X112124857Y-82542095D01*
X104013048Y-87447429D02*
X104774953Y-87447429D01*
X115189048Y-87447429D02*
X115950953Y-87447429D01*
X115570001Y-87828381D02*
X115570001Y-87066476D01*
X109243905Y-97480381D02*
X109243905Y-96480381D01*
X109482000Y-96480381D01*
X109624858Y-96528000D01*
X109720096Y-96623238D01*
X109767715Y-96718476D01*
X109815334Y-96908952D01*
X109815334Y-97051810D01*
X109767715Y-97242286D01*
X109720096Y-97337524D01*
X109624858Y-97432762D01*
X109482000Y-97480381D01*
X109243905Y-97480381D01*
X110196286Y-96575619D02*
X110243905Y-96528000D01*
X110339143Y-96480381D01*
X110577239Y-96480381D01*
X110672477Y-96528000D01*
X110720096Y-96575619D01*
X110767715Y-96670857D01*
X110767715Y-96766095D01*
X110720096Y-96908952D01*
X110148667Y-97480381D01*
X110767715Y-97480381D01*
X107839143Y-91384381D02*
X107267714Y-91384381D01*
X107553428Y-91384381D02*
X107553428Y-90384381D01*
X107458190Y-90527238D01*
X107362952Y-90622476D01*
X107267714Y-90670095D01*
X108267714Y-91384381D02*
X108267714Y-90384381D01*
X108839143Y-91384381D01*
X108839143Y-90384381D01*
X109743905Y-90717714D02*
X109743905Y-91384381D01*
X109505809Y-90336762D02*
X109267714Y-91051048D01*
X109886762Y-91051048D01*
X110458190Y-90384381D02*
X110553429Y-90384381D01*
X110648667Y-90432000D01*
X110696286Y-90479619D01*
X110743905Y-90574857D01*
X110791524Y-90765333D01*
X110791524Y-91003429D01*
X110743905Y-91193905D01*
X110696286Y-91289143D01*
X110648667Y-91336762D01*
X110553429Y-91384381D01*
X110458190Y-91384381D01*
X110362952Y-91336762D01*
X110315333Y-91289143D01*
X110267714Y-91193905D01*
X110220095Y-91003429D01*
X110220095Y-90765333D01*
X110267714Y-90574857D01*
X110315333Y-90479619D01*
X110362952Y-90432000D01*
X110458190Y-90384381D01*
X111410571Y-90384381D02*
X111505810Y-90384381D01*
X111601048Y-90432000D01*
X111648667Y-90479619D01*
X111696286Y-90574857D01*
X111743905Y-90765333D01*
X111743905Y-91003429D01*
X111696286Y-91193905D01*
X111648667Y-91289143D01*
X111601048Y-91336762D01*
X111505810Y-91384381D01*
X111410571Y-91384381D01*
X111315333Y-91336762D01*
X111267714Y-91289143D01*
X111220095Y-91193905D01*
X111172476Y-91003429D01*
X111172476Y-90765333D01*
X111220095Y-90574857D01*
X111267714Y-90479619D01*
X111315333Y-90432000D01*
X111410571Y-90384381D01*
X112696286Y-91384381D02*
X112124857Y-91384381D01*
X112410571Y-91384381D02*
X112410571Y-90384381D01*
X112315333Y-90527238D01*
X112220095Y-90622476D01*
X112124857Y-90670095D01*
X104013048Y-95575429D02*
X104774953Y-95575429D01*
X115189048Y-95575429D02*
X115950953Y-95575429D01*
X115570001Y-95956381D02*
X115570001Y-95194476D01*
X158297714Y-109418381D02*
X158297714Y-108418381D01*
X158535809Y-108418381D01*
X158678667Y-108466000D01*
X158773905Y-108561238D01*
X158821524Y-108656476D01*
X158869143Y-108846952D01*
X158869143Y-108989810D01*
X158821524Y-109180286D01*
X158773905Y-109275524D01*
X158678667Y-109370762D01*
X158535809Y-109418381D01*
X158297714Y-109418381D01*
X159250095Y-109370762D02*
X159392952Y-109418381D01*
X159631048Y-109418381D01*
X159726286Y-109370762D01*
X159773905Y-109323143D01*
X159821524Y-109227905D01*
X159821524Y-109132667D01*
X159773905Y-109037429D01*
X159726286Y-108989810D01*
X159631048Y-108942190D01*
X159440571Y-108894571D01*
X159345333Y-108846952D01*
X159297714Y-108799333D01*
X159250095Y-108704095D01*
X159250095Y-108608857D01*
X159297714Y-108513619D01*
X159345333Y-108466000D01*
X159440571Y-108418381D01*
X159678667Y-108418381D01*
X159821524Y-108466000D01*
X160773905Y-109418381D02*
X160202476Y-109418381D01*
X160488190Y-109418381D02*
X160488190Y-108418381D01*
X160392952Y-108561238D01*
X160297714Y-108656476D01*
X160202476Y-108704095D01*
X157845334Y-99830000D02*
X157750096Y-99782381D01*
X157607239Y-99782381D01*
X157464381Y-99830000D01*
X157369143Y-99925238D01*
X157321524Y-100020476D01*
X157273905Y-100210952D01*
X157273905Y-100353810D01*
X157321524Y-100544286D01*
X157369143Y-100639524D01*
X157464381Y-100734762D01*
X157607239Y-100782381D01*
X157702477Y-100782381D01*
X157845334Y-100734762D01*
X157892953Y-100687143D01*
X157892953Y-100353810D01*
X157702477Y-100353810D01*
X158892953Y-100782381D02*
X158559619Y-100306190D01*
X158321524Y-100782381D02*
X158321524Y-99782381D01*
X158702477Y-99782381D01*
X158797715Y-99830000D01*
X158845334Y-99877619D01*
X158892953Y-99972857D01*
X158892953Y-100115714D01*
X158845334Y-100210952D01*
X158797715Y-100258571D01*
X158702477Y-100306190D01*
X158321524Y-100306190D01*
X159321524Y-100258571D02*
X159654858Y-100258571D01*
X159797715Y-100782381D02*
X159321524Y-100782381D01*
X159321524Y-99782381D01*
X159797715Y-99782381D01*
X160226286Y-100258571D02*
X160559620Y-100258571D01*
X160702477Y-100782381D02*
X160226286Y-100782381D01*
X160226286Y-99782381D01*
X160702477Y-99782381D01*
X161131048Y-100782381D02*
X161131048Y-99782381D01*
X161702477Y-100782381D01*
X161702477Y-99782381D01*
X160401048Y-106243429D02*
X161162953Y-106243429D01*
X160782001Y-106624381D02*
X160782001Y-105862476D01*
X157861048Y-106243429D02*
X158622953Y-106243429D01*
X158297714Y-94686381D02*
X158297714Y-93686381D01*
X158535809Y-93686381D01*
X158678667Y-93734000D01*
X158773905Y-93829238D01*
X158821524Y-93924476D01*
X158869143Y-94114952D01*
X158869143Y-94257810D01*
X158821524Y-94448286D01*
X158773905Y-94543524D01*
X158678667Y-94638762D01*
X158535809Y-94686381D01*
X158297714Y-94686381D01*
X159250095Y-94638762D02*
X159392952Y-94686381D01*
X159631048Y-94686381D01*
X159726286Y-94638762D01*
X159773905Y-94591143D01*
X159821524Y-94495905D01*
X159821524Y-94400667D01*
X159773905Y-94305429D01*
X159726286Y-94257810D01*
X159631048Y-94210190D01*
X159440571Y-94162571D01*
X159345333Y-94114952D01*
X159297714Y-94067333D01*
X159250095Y-93972095D01*
X159250095Y-93876857D01*
X159297714Y-93781619D01*
X159345333Y-93734000D01*
X159440571Y-93686381D01*
X159678667Y-93686381D01*
X159821524Y-93734000D01*
X160202476Y-93781619D02*
X160250095Y-93734000D01*
X160345333Y-93686381D01*
X160583429Y-93686381D01*
X160678667Y-93734000D01*
X160726286Y-93781619D01*
X160773905Y-93876857D01*
X160773905Y-93972095D01*
X160726286Y-94114952D01*
X160154857Y-94686381D01*
X160773905Y-94686381D01*
X157012000Y-85050381D02*
X157202477Y-85050381D01*
X157297715Y-85098000D01*
X157392953Y-85193238D01*
X157440572Y-85383714D01*
X157440572Y-85717048D01*
X157392953Y-85907524D01*
X157297715Y-86002762D01*
X157202477Y-86050381D01*
X157012000Y-86050381D01*
X156916762Y-86002762D01*
X156821524Y-85907524D01*
X156773905Y-85717048D01*
X156773905Y-85383714D01*
X156821524Y-85193238D01*
X156916762Y-85098000D01*
X157012000Y-85050381D01*
X158440572Y-86050381D02*
X158107238Y-85574190D01*
X157869143Y-86050381D02*
X157869143Y-85050381D01*
X158250096Y-85050381D01*
X158345334Y-85098000D01*
X158392953Y-85145619D01*
X158440572Y-85240857D01*
X158440572Y-85383714D01*
X158392953Y-85478952D01*
X158345334Y-85526571D01*
X158250096Y-85574190D01*
X157869143Y-85574190D01*
X158821524Y-85764667D02*
X159297715Y-85764667D01*
X158726286Y-86050381D02*
X159059619Y-85050381D01*
X159392953Y-86050381D01*
X159726286Y-86050381D02*
X159726286Y-85050381D01*
X160297715Y-86050381D01*
X160297715Y-85050381D01*
X161297715Y-85098000D02*
X161202477Y-85050381D01*
X161059620Y-85050381D01*
X160916762Y-85098000D01*
X160821524Y-85193238D01*
X160773905Y-85288476D01*
X160726286Y-85478952D01*
X160726286Y-85621810D01*
X160773905Y-85812286D01*
X160821524Y-85907524D01*
X160916762Y-86002762D01*
X161059620Y-86050381D01*
X161154858Y-86050381D01*
X161297715Y-86002762D01*
X161345334Y-85955143D01*
X161345334Y-85621810D01*
X161154858Y-85621810D01*
X161773905Y-85526571D02*
X162107239Y-85526571D01*
X162250096Y-86050381D02*
X161773905Y-86050381D01*
X161773905Y-85050381D01*
X162250096Y-85050381D01*
X160401048Y-91511429D02*
X161162953Y-91511429D01*
X160782001Y-91892381D02*
X160782001Y-91130476D01*
X157861048Y-91511429D02*
X158622953Y-91511429D01*
X158297714Y-80462381D02*
X158297714Y-79462381D01*
X158535809Y-79462381D01*
X158678667Y-79510000D01*
X158773905Y-79605238D01*
X158821524Y-79700476D01*
X158869143Y-79890952D01*
X158869143Y-80033810D01*
X158821524Y-80224286D01*
X158773905Y-80319524D01*
X158678667Y-80414762D01*
X158535809Y-80462381D01*
X158297714Y-80462381D01*
X159250095Y-80414762D02*
X159392952Y-80462381D01*
X159631048Y-80462381D01*
X159726286Y-80414762D01*
X159773905Y-80367143D01*
X159821524Y-80271905D01*
X159821524Y-80176667D01*
X159773905Y-80081429D01*
X159726286Y-80033810D01*
X159631048Y-79986190D01*
X159440571Y-79938571D01*
X159345333Y-79890952D01*
X159297714Y-79843333D01*
X159250095Y-79748095D01*
X159250095Y-79652857D01*
X159297714Y-79557619D01*
X159345333Y-79510000D01*
X159440571Y-79462381D01*
X159678667Y-79462381D01*
X159821524Y-79510000D01*
X160154857Y-79462381D02*
X160773905Y-79462381D01*
X160440571Y-79843333D01*
X160583429Y-79843333D01*
X160678667Y-79890952D01*
X160726286Y-79938571D01*
X160773905Y-80033810D01*
X160773905Y-80271905D01*
X160726286Y-80367143D01*
X160678667Y-80414762D01*
X160583429Y-80462381D01*
X160297714Y-80462381D01*
X160202476Y-80414762D01*
X160154857Y-80367143D01*
X158869143Y-71826381D02*
X158535809Y-71350190D01*
X158297714Y-71826381D02*
X158297714Y-70826381D01*
X158678667Y-70826381D01*
X158773905Y-70874000D01*
X158821524Y-70921619D01*
X158869143Y-71016857D01*
X158869143Y-71159714D01*
X158821524Y-71254952D01*
X158773905Y-71302571D01*
X158678667Y-71350190D01*
X158297714Y-71350190D01*
X159297714Y-71302571D02*
X159631048Y-71302571D01*
X159773905Y-71826381D02*
X159297714Y-71826381D01*
X159297714Y-70826381D01*
X159773905Y-70826381D01*
X160202476Y-71826381D02*
X160202476Y-70826381D01*
X160440571Y-70826381D01*
X160583429Y-70874000D01*
X160678667Y-70969238D01*
X160726286Y-71064476D01*
X160773905Y-71254952D01*
X160773905Y-71397810D01*
X160726286Y-71588286D01*
X160678667Y-71683524D01*
X160583429Y-71778762D01*
X160440571Y-71826381D01*
X160202476Y-71826381D01*
X160401048Y-77287429D02*
X161162953Y-77287429D01*
X160782001Y-77668381D02*
X160782001Y-76906476D01*
X157861048Y-77287429D02*
X158622953Y-77287429D01*
X156154381Y-104560666D02*
X155678190Y-104894000D01*
X156154381Y-105132095D02*
X155154381Y-105132095D01*
X155154381Y-104751142D01*
X155202000Y-104655904D01*
X155249619Y-104608285D01*
X155344857Y-104560666D01*
X155487714Y-104560666D01*
X155582952Y-104608285D01*
X155630571Y-104655904D01*
X155678190Y-104751142D01*
X155678190Y-105132095D01*
X156154381Y-103608285D02*
X156154381Y-104179714D01*
X156154381Y-103894000D02*
X155154381Y-103894000D01*
X155297238Y-103989238D01*
X155392476Y-104084476D01*
X155440095Y-104179714D01*
X150074381Y-105679714D02*
X150074381Y-105060666D01*
X150455333Y-105394000D01*
X150455333Y-105251142D01*
X150502952Y-105155904D01*
X150550571Y-105108285D01*
X150645810Y-105060666D01*
X150883905Y-105060666D01*
X150979143Y-105108285D01*
X151026762Y-105155904D01*
X151074381Y-105251142D01*
X151074381Y-105536857D01*
X151026762Y-105632095D01*
X150979143Y-105679714D01*
X151074381Y-104584476D02*
X151074381Y-104394000D01*
X151026762Y-104298761D01*
X150979143Y-104251142D01*
X150836286Y-104155904D01*
X150645810Y-104108285D01*
X150264857Y-104108285D01*
X150169619Y-104155904D01*
X150122000Y-104203523D01*
X150074381Y-104298761D01*
X150074381Y-104489238D01*
X150122000Y-104584476D01*
X150169619Y-104632095D01*
X150264857Y-104679714D01*
X150502952Y-104679714D01*
X150598190Y-104632095D01*
X150645810Y-104584476D01*
X150693429Y-104489238D01*
X150693429Y-104298761D01*
X150645810Y-104203523D01*
X150598190Y-104155904D01*
X150502952Y-104108285D01*
X150074381Y-103489238D02*
X150074381Y-103393999D01*
X150122000Y-103298761D01*
X150169619Y-103251142D01*
X150264857Y-103203523D01*
X150455333Y-103155904D01*
X150693429Y-103155904D01*
X150883905Y-103203523D01*
X150979143Y-103251142D01*
X151026762Y-103298761D01*
X151074381Y-103393999D01*
X151074381Y-103489238D01*
X151026762Y-103584476D01*
X150979143Y-103632095D01*
X150883905Y-103679714D01*
X150693429Y-103727333D01*
X150455333Y-103727333D01*
X150264857Y-103679714D01*
X150169619Y-103632095D01*
X150122000Y-103584476D01*
X150074381Y-103489238D01*
X156154381Y-90082666D02*
X155678190Y-90416000D01*
X156154381Y-90654095D02*
X155154381Y-90654095D01*
X155154381Y-90273142D01*
X155202000Y-90177904D01*
X155249619Y-90130285D01*
X155344857Y-90082666D01*
X155487714Y-90082666D01*
X155582952Y-90130285D01*
X155630571Y-90177904D01*
X155678190Y-90273142D01*
X155678190Y-90654095D01*
X155249619Y-89701714D02*
X155202000Y-89654095D01*
X155154381Y-89558857D01*
X155154381Y-89320761D01*
X155202000Y-89225523D01*
X155249619Y-89177904D01*
X155344857Y-89130285D01*
X155440095Y-89130285D01*
X155582952Y-89177904D01*
X156154381Y-89749333D01*
X156154381Y-89130285D01*
X150074381Y-91201714D02*
X150074381Y-90582666D01*
X150455333Y-90916000D01*
X150455333Y-90773142D01*
X150502952Y-90677904D01*
X150550571Y-90630285D01*
X150645810Y-90582666D01*
X150883905Y-90582666D01*
X150979143Y-90630285D01*
X151026762Y-90677904D01*
X151074381Y-90773142D01*
X151074381Y-91058857D01*
X151026762Y-91154095D01*
X150979143Y-91201714D01*
X151074381Y-90106476D02*
X151074381Y-89916000D01*
X151026762Y-89820761D01*
X150979143Y-89773142D01*
X150836286Y-89677904D01*
X150645810Y-89630285D01*
X150264857Y-89630285D01*
X150169619Y-89677904D01*
X150122000Y-89725523D01*
X150074381Y-89820761D01*
X150074381Y-90011238D01*
X150122000Y-90106476D01*
X150169619Y-90154095D01*
X150264857Y-90201714D01*
X150502952Y-90201714D01*
X150598190Y-90154095D01*
X150645810Y-90106476D01*
X150693429Y-90011238D01*
X150693429Y-89820761D01*
X150645810Y-89725523D01*
X150598190Y-89677904D01*
X150502952Y-89630285D01*
X150074381Y-89011238D02*
X150074381Y-88915999D01*
X150122000Y-88820761D01*
X150169619Y-88773142D01*
X150264857Y-88725523D01*
X150455333Y-88677904D01*
X150693429Y-88677904D01*
X150883905Y-88725523D01*
X150979143Y-88773142D01*
X151026762Y-88820761D01*
X151074381Y-88915999D01*
X151074381Y-89011238D01*
X151026762Y-89106476D01*
X150979143Y-89154095D01*
X150883905Y-89201714D01*
X150693429Y-89249333D01*
X150455333Y-89249333D01*
X150264857Y-89201714D01*
X150169619Y-89154095D01*
X150122000Y-89106476D01*
X150074381Y-89011238D01*
X156154381Y-75604666D02*
X155678190Y-75938000D01*
X156154381Y-76176095D02*
X155154381Y-76176095D01*
X155154381Y-75795142D01*
X155202000Y-75699904D01*
X155249619Y-75652285D01*
X155344857Y-75604666D01*
X155487714Y-75604666D01*
X155582952Y-75652285D01*
X155630571Y-75699904D01*
X155678190Y-75795142D01*
X155678190Y-76176095D01*
X155154381Y-75271333D02*
X155154381Y-74652285D01*
X155535333Y-74985619D01*
X155535333Y-74842761D01*
X155582952Y-74747523D01*
X155630571Y-74699904D01*
X155725810Y-74652285D01*
X155963905Y-74652285D01*
X156059143Y-74699904D01*
X156106762Y-74747523D01*
X156154381Y-74842761D01*
X156154381Y-75128476D01*
X156106762Y-75223714D01*
X156059143Y-75271333D01*
X151074381Y-76509428D02*
X151074381Y-77080857D01*
X151074381Y-76795143D02*
X150074381Y-76795143D01*
X150217238Y-76890381D01*
X150312476Y-76985619D01*
X150360095Y-77080857D01*
X150074381Y-75890381D02*
X150074381Y-75795142D01*
X150122000Y-75699904D01*
X150169619Y-75652285D01*
X150264857Y-75604666D01*
X150455333Y-75557047D01*
X150693429Y-75557047D01*
X150883905Y-75604666D01*
X150979143Y-75652285D01*
X151026762Y-75699904D01*
X151074381Y-75795142D01*
X151074381Y-75890381D01*
X151026762Y-75985619D01*
X150979143Y-76033238D01*
X150883905Y-76080857D01*
X150693429Y-76128476D01*
X150455333Y-76128476D01*
X150264857Y-76080857D01*
X150169619Y-76033238D01*
X150122000Y-75985619D01*
X150074381Y-75890381D01*
X150074381Y-74938000D02*
X150074381Y-74842761D01*
X150122000Y-74747523D01*
X150169619Y-74699904D01*
X150264857Y-74652285D01*
X150455333Y-74604666D01*
X150693429Y-74604666D01*
X150883905Y-74652285D01*
X150979143Y-74699904D01*
X151026762Y-74747523D01*
X151074381Y-74842761D01*
X151074381Y-74938000D01*
X151026762Y-75033238D01*
X150979143Y-75080857D01*
X150883905Y-75128476D01*
X150693429Y-75176095D01*
X150455333Y-75176095D01*
X150264857Y-75128476D01*
X150169619Y-75080857D01*
X150122000Y-75033238D01*
X150074381Y-74938000D01*
X151074381Y-74176095D02*
X150074381Y-74176095D01*
X150693429Y-74080857D02*
X151074381Y-73795142D01*
X150407714Y-73795142D02*
X150788667Y-74176095D01*
X166774762Y-117411333D02*
X166822381Y-117268476D01*
X166822381Y-117030380D01*
X166774762Y-116935142D01*
X166727143Y-116887523D01*
X166631905Y-116839904D01*
X166536667Y-116839904D01*
X166441429Y-116887523D01*
X166393810Y-116935142D01*
X166346190Y-117030380D01*
X166298571Y-117220857D01*
X166250952Y-117316095D01*
X166203333Y-117363714D01*
X166108095Y-117411333D01*
X166012857Y-117411333D01*
X165917619Y-117363714D01*
X165870000Y-117316095D01*
X165822381Y-117220857D01*
X165822381Y-116982761D01*
X165870000Y-116839904D01*
X165822381Y-116506571D02*
X166822381Y-116268476D01*
X166108095Y-116077999D01*
X166822381Y-115887523D01*
X165822381Y-115649428D01*
X166822381Y-114744666D02*
X166822381Y-115316095D01*
X166822381Y-115030381D02*
X165822381Y-115030381D01*
X165965238Y-115125619D01*
X166060476Y-115220857D01*
X166108095Y-115316095D01*
X151026762Y-117744667D02*
X151074381Y-117601810D01*
X151074381Y-117363714D01*
X151026762Y-117268476D01*
X150979143Y-117220857D01*
X150883905Y-117173238D01*
X150788667Y-117173238D01*
X150693429Y-117220857D01*
X150645810Y-117268476D01*
X150598190Y-117363714D01*
X150550571Y-117554191D01*
X150502952Y-117649429D01*
X150455333Y-117697048D01*
X150360095Y-117744667D01*
X150264857Y-117744667D01*
X150169619Y-117697048D01*
X150122000Y-117649429D01*
X150074381Y-117554191D01*
X150074381Y-117316095D01*
X150122000Y-117173238D01*
X151074381Y-116744667D02*
X150074381Y-116744667D01*
X150074381Y-116363714D01*
X150122000Y-116268476D01*
X150169619Y-116220857D01*
X150264857Y-116173238D01*
X150407714Y-116173238D01*
X150502952Y-116220857D01*
X150550571Y-116268476D01*
X150598190Y-116363714D01*
X150598190Y-116744667D01*
X151074381Y-115744667D02*
X150074381Y-115744667D01*
X150074381Y-115506572D01*
X150122000Y-115363714D01*
X150217238Y-115268476D01*
X150312476Y-115220857D01*
X150502952Y-115173238D01*
X150645810Y-115173238D01*
X150836286Y-115220857D01*
X150931524Y-115268476D01*
X151026762Y-115363714D01*
X151074381Y-115506572D01*
X151074381Y-115744667D01*
X150074381Y-114887524D02*
X150074381Y-114316095D01*
X151074381Y-114601810D02*
X150074381Y-114601810D01*
X153376381Y-118951333D02*
X153376381Y-118332285D01*
X153757333Y-118665619D01*
X153757333Y-118522761D01*
X153804952Y-118427523D01*
X153852571Y-118379904D01*
X153947810Y-118332285D01*
X154185905Y-118332285D01*
X154281143Y-118379904D01*
X154328762Y-118427523D01*
X154376381Y-118522761D01*
X154376381Y-118808476D01*
X154328762Y-118903714D01*
X154281143Y-118951333D01*
X158043619Y-118903714D02*
X157996000Y-118856095D01*
X157948381Y-118760857D01*
X157948381Y-118522761D01*
X157996000Y-118427523D01*
X158043619Y-118379904D01*
X158138857Y-118332285D01*
X158234095Y-118332285D01*
X158376952Y-118379904D01*
X158948381Y-118951333D01*
X158948381Y-118332285D01*
X163774381Y-118332285D02*
X163774381Y-118903714D01*
X163774381Y-118618000D02*
X162774381Y-118618000D01*
X162917238Y-118713238D01*
X163012476Y-118808476D01*
X163060095Y-118903714D01*
X109434476Y-106132381D02*
X109767809Y-107132381D01*
X110101143Y-106132381D01*
X111005905Y-107132381D02*
X110672571Y-106656190D01*
X110434476Y-107132381D02*
X110434476Y-106132381D01*
X110815429Y-106132381D01*
X110910667Y-106180000D01*
X110958286Y-106227619D01*
X111005905Y-106322857D01*
X111005905Y-106465714D01*
X110958286Y-106560952D01*
X110910667Y-106608571D01*
X110815429Y-106656190D01*
X110434476Y-106656190D01*
X111958286Y-107132381D02*
X111386857Y-107132381D01*
X111672571Y-107132381D02*
X111672571Y-106132381D01*
X111577333Y-106275238D01*
X111482095Y-106370476D01*
X111386857Y-106418095D01*
X108577334Y-99766381D02*
X108101143Y-99766381D01*
X108101143Y-98766381D01*
X108910667Y-99766381D02*
X108910667Y-98766381D01*
X109244001Y-99480667D01*
X109577334Y-98766381D01*
X109577334Y-99766381D01*
X109958286Y-98766381D02*
X110624953Y-98766381D01*
X110196381Y-99766381D01*
X111148762Y-99194952D02*
X111053524Y-99147333D01*
X111005905Y-99099714D01*
X110958286Y-99004476D01*
X110958286Y-98956857D01*
X111005905Y-98861619D01*
X111053524Y-98814000D01*
X111148762Y-98766381D01*
X111339239Y-98766381D01*
X111434477Y-98814000D01*
X111482096Y-98861619D01*
X111529715Y-98956857D01*
X111529715Y-99004476D01*
X111482096Y-99099714D01*
X111434477Y-99147333D01*
X111339239Y-99194952D01*
X111148762Y-99194952D01*
X111053524Y-99242571D01*
X111005905Y-99290190D01*
X110958286Y-99385429D01*
X110958286Y-99575905D01*
X111005905Y-99671143D01*
X111053524Y-99718762D01*
X111148762Y-99766381D01*
X111339239Y-99766381D01*
X111434477Y-99718762D01*
X111482096Y-99671143D01*
X111529715Y-99575905D01*
X111529715Y-99385429D01*
X111482096Y-99290190D01*
X111434477Y-99242571D01*
X111339239Y-99194952D01*
X112148762Y-98766381D02*
X112244001Y-98766381D01*
X112339239Y-98814000D01*
X112386858Y-98861619D01*
X112434477Y-98956857D01*
X112482096Y-99147333D01*
X112482096Y-99385429D01*
X112434477Y-99575905D01*
X112386858Y-99671143D01*
X112339239Y-99718762D01*
X112244001Y-99766381D01*
X112148762Y-99766381D01*
X112053524Y-99718762D01*
X112005905Y-99671143D01*
X111958286Y-99575905D01*
X111910667Y-99385429D01*
X111910667Y-99147333D01*
X111958286Y-98956857D01*
X112005905Y-98861619D01*
X112053524Y-98814000D01*
X112148762Y-98766381D01*
X113386858Y-98766381D02*
X112910667Y-98766381D01*
X112863048Y-99242571D01*
X112910667Y-99194952D01*
X113005905Y-99147333D01*
X113244001Y-99147333D01*
X113339239Y-99194952D01*
X113386858Y-99242571D01*
X113434477Y-99337810D01*
X113434477Y-99575905D01*
X113386858Y-99671143D01*
X113339239Y-99718762D01*
X113244001Y-99766381D01*
X113005905Y-99766381D01*
X112910667Y-99718762D01*
X112863048Y-99671143D01*
X114728667Y-103084381D02*
X115347715Y-103084381D01*
X115014381Y-103465333D01*
X115157239Y-103465333D01*
X115252477Y-103512952D01*
X115300096Y-103560571D01*
X115347715Y-103655810D01*
X115347715Y-103893905D01*
X115300096Y-103989143D01*
X115252477Y-104036762D01*
X115157239Y-104084381D01*
X114871524Y-104084381D01*
X114776286Y-104036762D01*
X114728667Y-103989143D01*
X106711715Y-104084381D02*
X106140286Y-104084381D01*
X106426000Y-104084381D02*
X106426000Y-103084381D01*
X106330762Y-103227238D01*
X106235524Y-103322476D01*
X106140286Y-103370095D01*
X160297905Y-129230381D02*
X160297905Y-128230381D01*
X160678858Y-128230381D01*
X160774096Y-128278000D01*
X160821715Y-128325619D01*
X160869334Y-128420857D01*
X160869334Y-128563714D01*
X160821715Y-128658952D01*
X160774096Y-128706571D01*
X160678858Y-128754190D01*
X160297905Y-128754190D01*
X161821715Y-129230381D02*
X161250286Y-129230381D01*
X161536000Y-129230381D02*
X161536000Y-128230381D01*
X161440762Y-128373238D01*
X161345524Y-128468476D01*
X161250286Y-128516095D01*
X156241905Y-126055429D02*
X157003810Y-126055429D01*
X156622858Y-126436381D02*
X156622858Y-125674476D01*
X157956191Y-125436381D02*
X157480000Y-125436381D01*
X157432381Y-125912571D01*
X157480000Y-125864952D01*
X157575238Y-125817333D01*
X157813334Y-125817333D01*
X157908572Y-125864952D01*
X157956191Y-125912571D01*
X158003810Y-126007810D01*
X158003810Y-126245905D01*
X157956191Y-126341143D01*
X157908572Y-126388762D01*
X157813334Y-126436381D01*
X157575238Y-126436381D01*
X157480000Y-126388762D01*
X157432381Y-126341143D01*
X158337143Y-125769714D02*
X158575238Y-126436381D01*
X158813334Y-125769714D01*
X162837905Y-129230381D02*
X162837905Y-128230381D01*
X163218858Y-128230381D01*
X163314096Y-128278000D01*
X163361715Y-128325619D01*
X163409334Y-128420857D01*
X163409334Y-128563714D01*
X163361715Y-128658952D01*
X163314096Y-128706571D01*
X163218858Y-128754190D01*
X162837905Y-128754190D01*
X163790286Y-128325619D02*
X163837905Y-128278000D01*
X163933143Y-128230381D01*
X164171239Y-128230381D01*
X164266477Y-128278000D01*
X164314096Y-128325619D01*
X164361715Y-128420857D01*
X164361715Y-128516095D01*
X164314096Y-128658952D01*
X163742667Y-129230381D01*
X164361715Y-129230381D01*
X166370096Y-125484000D02*
X166274858Y-125436381D01*
X166132001Y-125436381D01*
X165989143Y-125484000D01*
X165893905Y-125579238D01*
X165846286Y-125674476D01*
X165798667Y-125864952D01*
X165798667Y-126007810D01*
X165846286Y-126198286D01*
X165893905Y-126293524D01*
X165989143Y-126388762D01*
X166132001Y-126436381D01*
X166227239Y-126436381D01*
X166370096Y-126388762D01*
X166417715Y-126341143D01*
X166417715Y-126007810D01*
X166227239Y-126007810D01*
X166846286Y-126436381D02*
X166846286Y-125436381D01*
X167417715Y-126436381D01*
X167417715Y-125436381D01*
X167893905Y-126436381D02*
X167893905Y-125436381D01*
X168132000Y-125436381D01*
X168274858Y-125484000D01*
X168370096Y-125579238D01*
X168417715Y-125674476D01*
X168465334Y-125864952D01*
X168465334Y-126007810D01*
X168417715Y-126198286D01*
X168370096Y-126293524D01*
X168274858Y-126388762D01*
X168132000Y-126436381D01*
X167893905Y-126436381D01*
X110410667Y-80478381D02*
X110410667Y-81192667D01*
X110363047Y-81335524D01*
X110267809Y-81430762D01*
X110124952Y-81478381D01*
X110029714Y-81478381D01*
X111410667Y-81478381D02*
X110839238Y-81478381D01*
X111124952Y-81478381D02*
X111124952Y-80478381D01*
X111029714Y-80621238D01*
X110934476Y-80716476D01*
X110839238Y-80764095D01*
X109029714Y-67381429D02*
X109791619Y-67381429D01*
X109410667Y-67762381D02*
X109410667Y-67000476D01*
X110791619Y-67762381D02*
X110220190Y-67762381D01*
X110505904Y-67762381D02*
X110505904Y-66762381D01*
X110410666Y-66905238D01*
X110315428Y-67000476D01*
X110220190Y-67048095D01*
X111172571Y-66857619D02*
X111220190Y-66810000D01*
X111315428Y-66762381D01*
X111553524Y-66762381D01*
X111648762Y-66810000D01*
X111696381Y-66857619D01*
X111744000Y-66952857D01*
X111744000Y-67048095D01*
X111696381Y-67190952D01*
X111124952Y-67762381D01*
X111744000Y-67762381D01*
X112077333Y-67095714D02*
X112315428Y-67762381D01*
X112553524Y-67095714D01*
X113458667Y-75652381D02*
X114077715Y-75652381D01*
X113744381Y-76033333D01*
X113887239Y-76033333D01*
X113982477Y-76080952D01*
X114030096Y-76128571D01*
X114077715Y-76223810D01*
X114077715Y-76461905D01*
X114030096Y-76557143D01*
X113982477Y-76604762D01*
X113887239Y-76652381D01*
X113601524Y-76652381D01*
X113506286Y-76604762D01*
X113458667Y-76557143D01*
X110458286Y-70921619D02*
X110505905Y-70874000D01*
X110601143Y-70826381D01*
X110839239Y-70826381D01*
X110934477Y-70874000D01*
X110982096Y-70921619D01*
X111029715Y-71016857D01*
X111029715Y-71112095D01*
X110982096Y-71254952D01*
X110410667Y-71826381D01*
X111029715Y-71826381D01*
X117125715Y-71826381D02*
X116554286Y-71826381D01*
X116840000Y-71826381D02*
X116840000Y-70826381D01*
X116744762Y-70969238D01*
X116649524Y-71064476D01*
X116554286Y-71112095D01*
M02*
