M48
;DRILL file {KiCad (2015-08-21 BZR 6112)-product} date 2015 October 20, Tuesday 21:40:55
;FORMAT={-:-/ absolute / inch / decimal}
FMAT,2
INCH,TZ
T1C0.015
T2C0.030
T3C0.031
T4C0.040
T5C0.050
T6C0.080
T7C0.085
T8C0.130
%
G90
G05
M72
T1
X4.87Y-4.85
X5.05Y-4.85
T2
X4.6Y-5.0216
X4.6Y-5.2184
X4.9206Y-4.68
X4.96Y-5.0216
X4.96Y-5.2184
X4.9994Y-4.68
X6.52Y-2.81
X6.52Y-3.28
X6.52Y-3.41
X6.52Y-3.88
X6.52Y-4.01
X6.52Y-4.48
X6.75Y-3.04
X6.75Y-3.64
X6.75Y-4.24
X6.85Y-3.04
X6.85Y-3.64
X6.85Y-4.24
T3
X4.5311Y-4.68
X4.6689Y-4.68
T4
X4.58Y-3.54
X4.58Y-3.86
X5.02Y-3.54
X5.02Y-3.86
X6.76Y-5.13
X6.86Y-5.13
T5
X4.8031Y-3.015
X4.9213Y-3.2001
X5.0394Y-3.015
T6
X6.535Y-4.7
X6.72Y-4.7
T7
X5.4825Y-2.907
X5.9825Y-2.907
T8
X5.295Y-3.257
X5.295Y-4.632
X6.17Y-3.257
X6.17Y-4.632
T5
X4.6935Y-4.244G85X4.6935Y-4.244
G05
X4.7987Y-4.244G85X4.7987Y-4.244
G05
X4.9038Y-4.244G85X4.9038Y-4.244
G05
T6
X6.905Y-4.7G85X6.905Y-4.7
G05
T0
M30
