G04 #@! TF.FileFunction,Copper,L2,Bot,Signal*
%FSLAX46Y46*%
G04 Gerber Fmt 4.6, Leading zero omitted, Abs format (unit mm)*
G04 Created by KiCad (PCBNEW (2015-08-21 BZR 6112)-product) date 2015 October 15, Thursday 21:52:47*
%MOMM*%
G01*
G04 APERTURE LIST*
%ADD10C,0.100000*%
%ADD11C,0.300000*%
%ADD12C,3.302000*%
%ADD13R,2.794000X2.794000*%
%ADD14C,2.794000*%
%ADD15R,1.500000X1.500000*%
%ADD16C,1.500000*%
%ADD17C,1.524000*%
%ADD18R,1.400000X1.400000*%
%ADD19C,1.400000*%
%ADD20C,1.724000*%
%ADD21R,1.724000X1.724000*%
%ADD22R,1.524000X1.524000*%
%ADD23O,2.235200X2.616200*%
%ADD24R,2.235200X2.616200*%
%ADD25R,2.032000X2.032000*%
%ADD26C,1.800000*%
%ADD27R,1.800000X1.800000*%
%ADD28C,0.635000*%
%ADD29C,0.762000*%
%ADD30C,0.254000*%
G04 APERTURE END LIST*
D10*
D11*
X143536572Y-125916571D02*
X143250858Y-126916571D01*
X142965144Y-126202286D01*
X142679429Y-126916571D01*
X142393715Y-125916571D01*
X141965143Y-125916571D02*
X141679429Y-126916571D01*
X141393715Y-126202286D01*
X141108000Y-126916571D01*
X140822286Y-125916571D01*
X140393714Y-125916571D02*
X140108000Y-126916571D01*
X139822286Y-126202286D01*
X139536571Y-126916571D01*
X139250857Y-125916571D01*
X138679428Y-126773714D02*
X138608000Y-126845143D01*
X138679428Y-126916571D01*
X138750857Y-126845143D01*
X138679428Y-126773714D01*
X138679428Y-126916571D01*
X138107999Y-126916571D02*
X137322285Y-125916571D01*
X138107999Y-125916571D02*
X137322285Y-126916571D01*
X136822285Y-126845143D02*
X136679428Y-126916571D01*
X136393713Y-126916571D01*
X136250856Y-126845143D01*
X136179428Y-126702286D01*
X136179428Y-126630857D01*
X136250856Y-126488000D01*
X136393713Y-126416571D01*
X136607999Y-126416571D01*
X136750856Y-126345143D01*
X136822285Y-126202286D01*
X136822285Y-126130857D01*
X136750856Y-125988000D01*
X136607999Y-125916571D01*
X136393713Y-125916571D01*
X136250856Y-125988000D01*
X135536570Y-126345143D02*
X134393713Y-126345143D01*
X133465141Y-126916571D02*
X133607999Y-126845143D01*
X133679427Y-126702286D01*
X133679427Y-125416571D01*
X132250856Y-126916571D02*
X132250856Y-126130857D01*
X132322285Y-125988000D01*
X132465142Y-125916571D01*
X132750856Y-125916571D01*
X132893713Y-125988000D01*
X132250856Y-126845143D02*
X132393713Y-126916571D01*
X132750856Y-126916571D01*
X132893713Y-126845143D01*
X132965142Y-126702286D01*
X132965142Y-126559429D01*
X132893713Y-126416571D01*
X132750856Y-126345143D01*
X132393713Y-126345143D01*
X132250856Y-126273714D01*
X131536570Y-126916571D02*
X131536570Y-125416571D01*
X131536570Y-125988000D02*
X131393713Y-125916571D01*
X131107999Y-125916571D01*
X130965142Y-125988000D01*
X130893713Y-126059429D01*
X130822284Y-126202286D01*
X130822284Y-126630857D01*
X130893713Y-126773714D01*
X130965142Y-126845143D01*
X131107999Y-126916571D01*
X131393713Y-126916571D01*
X131536570Y-126845143D01*
X130250856Y-126845143D02*
X130107999Y-126916571D01*
X129822284Y-126916571D01*
X129679427Y-126845143D01*
X129607999Y-126702286D01*
X129607999Y-126630857D01*
X129679427Y-126488000D01*
X129822284Y-126416571D01*
X130036570Y-126416571D01*
X130179427Y-126345143D01*
X130250856Y-126202286D01*
X130250856Y-126130857D01*
X130179427Y-125988000D01*
X130036570Y-125916571D01*
X129822284Y-125916571D01*
X129679427Y-125988000D01*
X128965141Y-126773714D02*
X128893713Y-126845143D01*
X128965141Y-126916571D01*
X129036570Y-126845143D01*
X128965141Y-126773714D01*
X128965141Y-126916571D01*
X127607998Y-126845143D02*
X127750855Y-126916571D01*
X128036569Y-126916571D01*
X128179427Y-126845143D01*
X128250855Y-126773714D01*
X128322284Y-126630857D01*
X128322284Y-126202286D01*
X128250855Y-126059429D01*
X128179427Y-125988000D01*
X128036569Y-125916571D01*
X127750855Y-125916571D01*
X127607998Y-125988000D01*
X126750855Y-126916571D02*
X126893713Y-126845143D01*
X126965141Y-126773714D01*
X127036570Y-126630857D01*
X127036570Y-126202286D01*
X126965141Y-126059429D01*
X126893713Y-125988000D01*
X126750855Y-125916571D01*
X126536570Y-125916571D01*
X126393713Y-125988000D01*
X126322284Y-126059429D01*
X126250855Y-126202286D01*
X126250855Y-126630857D01*
X126322284Y-126773714D01*
X126393713Y-126845143D01*
X126536570Y-126916571D01*
X126750855Y-126916571D01*
X125607998Y-126916571D02*
X125607998Y-125916571D01*
X125607998Y-126059429D02*
X125536570Y-125988000D01*
X125393712Y-125916571D01*
X125179427Y-125916571D01*
X125036570Y-125988000D01*
X124965141Y-126130857D01*
X124965141Y-126916571D01*
X124965141Y-126130857D02*
X124893712Y-125988000D01*
X124750855Y-125916571D01*
X124536570Y-125916571D01*
X124393712Y-125988000D01*
X124322284Y-126130857D01*
X124322284Y-126916571D01*
D12*
X122809000Y-114604800D03*
X122809000Y-79679800D03*
X145034000Y-114604800D03*
X145034000Y-79679800D03*
D13*
X127571500Y-70789800D03*
D14*
X140271500Y-70789800D03*
D15*
X105946000Y-113792000D03*
D16*
X109446000Y-113792000D03*
D17*
X105664000Y-121960000D03*
X105664000Y-126960000D03*
X114554000Y-121960000D03*
X114554000Y-126960000D03*
D18*
X114570000Y-113792000D03*
D19*
X116570000Y-113792000D03*
D20*
X115570000Y-85852000D03*
D21*
X104394000Y-85852000D03*
D20*
X115570000Y-93980000D03*
D21*
X104394000Y-93980000D03*
D17*
X160782000Y-104648000D03*
D22*
X158242000Y-104648000D03*
D17*
X160782000Y-89916000D03*
D22*
X158242000Y-89916000D03*
D17*
X160782000Y-75692000D03*
D22*
X158242000Y-75692000D03*
D17*
X153162000Y-110490000D03*
X153162000Y-98552000D03*
X153162000Y-96012000D03*
X153162000Y-84074000D03*
X153162000Y-81534000D03*
X153162000Y-69596000D03*
D23*
X158496000Y-116078000D03*
X153797000Y-116078000D03*
D24*
X163195000Y-116078000D03*
D22*
X108040000Y-103734000D03*
D17*
X110710000Y-103734000D03*
X113380000Y-103734000D03*
D25*
X161036000Y-125984000D03*
X163576000Y-125984000D03*
D26*
X113824000Y-77980000D03*
X110824000Y-73280000D03*
D27*
X116824000Y-73280000D03*
D28*
X140208000Y-74676000D03*
X117856000Y-116840000D03*
X113030000Y-116840000D03*
X156718000Y-108458000D03*
X149860000Y-108458000D03*
D29*
X113824000Y-77980000D02*
X113824000Y-72866000D01*
X115900200Y-70789800D02*
X127571500Y-70789800D01*
X113824000Y-72866000D02*
X115900200Y-70789800D01*
X160782000Y-89916000D02*
X160782000Y-85852000D01*
X118110000Y-91440000D02*
X115570000Y-93980000D01*
X118110000Y-75946000D02*
X118110000Y-91440000D01*
X119380000Y-74676000D02*
X118110000Y-75946000D01*
X149606000Y-74676000D02*
X140208000Y-74676000D01*
X140208000Y-74676000D02*
X119380000Y-74676000D01*
X160782000Y-85852000D02*
X149606000Y-74676000D01*
X104394000Y-85852000D02*
X104394000Y-93980000D01*
X108040000Y-103734000D02*
X108040000Y-97626000D01*
X108040000Y-97626000D02*
X104394000Y-93980000D01*
X105664000Y-121960000D02*
X105664000Y-114074000D01*
X105664000Y-114074000D02*
X105946000Y-113792000D01*
X108040000Y-103734000D02*
X108040000Y-111698000D01*
X108040000Y-111698000D02*
X105946000Y-113792000D01*
X105946000Y-121678000D02*
X105664000Y-121960000D01*
X116586000Y-113792000D02*
X122428000Y-119634000D01*
X122428000Y-119634000D02*
X162052000Y-119634000D01*
X163576000Y-124968000D02*
X163576000Y-121158000D01*
X162052000Y-119634000D02*
X158496000Y-116078000D01*
X163576000Y-121158000D02*
X162052000Y-119634000D01*
X153162000Y-96012000D02*
X151130000Y-98044000D01*
X151130000Y-108458000D02*
X153162000Y-110490000D01*
X151130000Y-98044000D02*
X151130000Y-108458000D01*
X116570000Y-113792000D02*
X116586000Y-113792000D01*
X109446000Y-113792000D02*
X109446000Y-126960000D01*
X109474000Y-127000000D02*
X109474000Y-126960000D01*
X109474000Y-126988000D02*
X109474000Y-127000000D01*
X109446000Y-126960000D02*
X109474000Y-126988000D01*
X153162000Y-110490000D02*
X153162000Y-110744000D01*
X153162000Y-110744000D02*
X158496000Y-116078000D01*
X116570000Y-113792000D02*
X116570000Y-125206000D01*
X116570000Y-125206000D02*
X114816000Y-126960000D01*
X114816000Y-126960000D02*
X114554000Y-126960000D01*
X114554000Y-126960000D02*
X109474000Y-126960000D01*
X109474000Y-126960000D02*
X105664000Y-126960000D01*
X110710000Y-103734000D02*
X110710000Y-112528000D01*
X110710000Y-112528000D02*
X109446000Y-113792000D01*
X109446000Y-113792000D02*
X109474000Y-113792000D01*
X161036000Y-125984000D02*
X155956000Y-120904000D01*
X155956000Y-120904000D02*
X121920000Y-120904000D01*
X121920000Y-120904000D02*
X117856000Y-116840000D01*
X113030000Y-116840000D02*
X114554000Y-118364000D01*
X114554000Y-121960000D02*
X114554000Y-118364000D01*
X114554000Y-118364000D02*
X114554000Y-113808000D01*
X114554000Y-113808000D02*
X114570000Y-113792000D01*
X114340000Y-121960000D02*
X114554000Y-121960000D01*
X114570000Y-121944000D02*
X114554000Y-121960000D01*
X113380000Y-103734000D02*
X113380000Y-112602000D01*
X113380000Y-112602000D02*
X114570000Y-113792000D01*
X114570000Y-121944000D02*
X114554000Y-121960000D01*
X116824000Y-73280000D02*
X116824000Y-84598000D01*
X116824000Y-84598000D02*
X115570000Y-85852000D01*
X116824000Y-73280000D02*
X150242000Y-73280000D01*
X150242000Y-73280000D02*
X163322000Y-86360000D01*
X160782000Y-75692000D02*
X163322000Y-78232000D01*
X163322000Y-78232000D02*
X163322000Y-86360000D01*
X163322000Y-102108000D02*
X160782000Y-104648000D01*
X163322000Y-86360000D02*
X163322000Y-102108000D01*
X160782000Y-75692000D02*
X160782000Y-75946000D01*
X153162000Y-98552000D02*
X156972000Y-98552000D01*
X158242000Y-99822000D02*
X158242000Y-104648000D01*
X156972000Y-98552000D02*
X158242000Y-99822000D01*
X153162000Y-84074000D02*
X156972000Y-84074000D01*
X158242000Y-85344000D02*
X158242000Y-89916000D01*
X156972000Y-84074000D02*
X158242000Y-85344000D01*
X153162000Y-69596000D02*
X156972000Y-69596000D01*
X158242000Y-70866000D02*
X158242000Y-75692000D01*
X156972000Y-69596000D02*
X158242000Y-70866000D01*
X153797000Y-116078000D02*
X153797000Y-116205000D01*
X153797000Y-116205000D02*
X151638000Y-118364000D01*
X110824000Y-92282000D02*
X110824000Y-73280000D01*
X118110000Y-99568000D02*
X110824000Y-92282000D01*
X118110000Y-113699552D02*
X118110000Y-99568000D01*
X122774448Y-118364000D02*
X118110000Y-113699552D01*
X151638000Y-118364000D02*
X122774448Y-118364000D01*
X153797000Y-115189000D02*
X153797000Y-116078000D01*
X153162000Y-81534000D02*
X149860000Y-84836000D01*
X163195000Y-112395000D02*
X163195000Y-116078000D01*
X159258000Y-108458000D02*
X163195000Y-112395000D01*
X156718000Y-108458000D02*
X159258000Y-108458000D01*
X149860000Y-84836000D02*
X149860000Y-108458000D01*
D30*
G36*
X170053000Y-68124606D02*
X170053000Y-127963394D01*
X167587394Y-130429000D01*
X102668606Y-130429000D01*
X100203000Y-127963394D01*
X100203000Y-127940213D01*
X104863392Y-127940213D01*
X104932857Y-128182397D01*
X105456302Y-128369144D01*
X106011368Y-128341362D01*
X106395143Y-128182397D01*
X106464608Y-127940213D01*
X113753392Y-127940213D01*
X113822857Y-128182397D01*
X114346302Y-128369144D01*
X114901368Y-128341362D01*
X115285143Y-128182397D01*
X115354608Y-127940213D01*
X114554000Y-127139605D01*
X113753392Y-127940213D01*
X106464608Y-127940213D01*
X105664000Y-127139605D01*
X104863392Y-127940213D01*
X100203000Y-127940213D01*
X100203000Y-126752302D01*
X104254856Y-126752302D01*
X104282638Y-127307368D01*
X104441603Y-127691143D01*
X104683787Y-127760608D01*
X105484395Y-126960000D01*
X105843605Y-126960000D01*
X106644213Y-127760608D01*
X106886397Y-127691143D01*
X107073144Y-127167698D01*
X107052353Y-126752302D01*
X113144856Y-126752302D01*
X113172638Y-127307368D01*
X113331603Y-127691143D01*
X113573787Y-127760608D01*
X114374395Y-126960000D01*
X114733605Y-126960000D01*
X115534213Y-127760608D01*
X115776397Y-127691143D01*
X115963144Y-127167698D01*
X115935362Y-126612632D01*
X115776397Y-126228857D01*
X115534213Y-126159392D01*
X114733605Y-126960000D01*
X114374395Y-126960000D01*
X113573787Y-126159392D01*
X113331603Y-126228857D01*
X113144856Y-126752302D01*
X107052353Y-126752302D01*
X107045362Y-126612632D01*
X106886397Y-126228857D01*
X106644213Y-126159392D01*
X105843605Y-126960000D01*
X105484395Y-126960000D01*
X104683787Y-126159392D01*
X104441603Y-126228857D01*
X104254856Y-126752302D01*
X100203000Y-126752302D01*
X100203000Y-125979787D01*
X104863392Y-125979787D01*
X105664000Y-126780395D01*
X106464608Y-125979787D01*
X113753392Y-125979787D01*
X114554000Y-126780395D01*
X115354608Y-125979787D01*
X115285143Y-125737603D01*
X114761698Y-125550856D01*
X114206632Y-125578638D01*
X113822857Y-125737603D01*
X113753392Y-125979787D01*
X106464608Y-125979787D01*
X106395143Y-125737603D01*
X105871698Y-125550856D01*
X105316632Y-125578638D01*
X104932857Y-125737603D01*
X104863392Y-125979787D01*
X100203000Y-125979787D01*
X100203000Y-124103000D01*
X123180142Y-124103000D01*
X123180142Y-128073000D01*
X144535859Y-128073000D01*
X144535859Y-124103000D01*
X123180142Y-124103000D01*
X100203000Y-124103000D01*
X100203000Y-84990000D01*
X102884560Y-84990000D01*
X102884560Y-86714000D01*
X102928838Y-86949317D01*
X103067910Y-87165441D01*
X103280110Y-87310431D01*
X103378000Y-87330254D01*
X103378000Y-92499537D01*
X103296683Y-92514838D01*
X103080559Y-92653910D01*
X102935569Y-92866110D01*
X102884560Y-93118000D01*
X102884560Y-94842000D01*
X102928838Y-95077317D01*
X103067910Y-95293441D01*
X103280110Y-95438431D01*
X103532000Y-95489440D01*
X104466600Y-95489440D01*
X107024000Y-98046841D01*
X107024000Y-102380860D01*
X106826559Y-102507910D01*
X106681569Y-102720110D01*
X106630560Y-102972000D01*
X106630560Y-104496000D01*
X106674838Y-104731317D01*
X106813910Y-104947441D01*
X107024000Y-105090989D01*
X107024000Y-111277159D01*
X105906600Y-112394560D01*
X105196000Y-112394560D01*
X104960683Y-112438838D01*
X104744559Y-112577910D01*
X104599569Y-112790110D01*
X104548560Y-113042000D01*
X104548560Y-114542000D01*
X104592838Y-114777317D01*
X104648000Y-114863041D01*
X104648000Y-121000293D01*
X104480371Y-121167630D01*
X104267243Y-121680900D01*
X104266758Y-122236661D01*
X104478990Y-122750303D01*
X104871630Y-123143629D01*
X105384900Y-123356757D01*
X105940661Y-123357242D01*
X106454303Y-123145010D01*
X106847629Y-122752370D01*
X107060757Y-122239100D01*
X107061242Y-121683339D01*
X106849010Y-121169697D01*
X106715353Y-121035807D01*
X106680000Y-120982897D01*
X106680000Y-115189440D01*
X106696000Y-115189440D01*
X106931317Y-115145162D01*
X107147441Y-115006090D01*
X107292431Y-114793890D01*
X107298581Y-114763517D01*
X108654088Y-114763517D01*
X108722077Y-115004460D01*
X109241171Y-115189201D01*
X109791448Y-115161230D01*
X110169923Y-115004460D01*
X110237912Y-114763517D01*
X109446000Y-113971605D01*
X108654088Y-114763517D01*
X107298581Y-114763517D01*
X107343440Y-114542000D01*
X107343440Y-113831400D01*
X107587669Y-113587171D01*
X108048799Y-113587171D01*
X108076770Y-114137448D01*
X108233540Y-114515923D01*
X108474483Y-114583912D01*
X109266395Y-113792000D01*
X109625605Y-113792000D01*
X110417517Y-114583912D01*
X110658460Y-114515923D01*
X110843201Y-113996829D01*
X110815230Y-113446552D01*
X110658460Y-113068077D01*
X110417517Y-113000088D01*
X109625605Y-113792000D01*
X109266395Y-113792000D01*
X108474483Y-113000088D01*
X108233540Y-113068077D01*
X108048799Y-113587171D01*
X107587669Y-113587171D01*
X108354357Y-112820483D01*
X108654088Y-112820483D01*
X109446000Y-113612395D01*
X110237912Y-112820483D01*
X110169923Y-112579540D01*
X109650829Y-112394799D01*
X109100552Y-112422770D01*
X108722077Y-112579540D01*
X108654088Y-112820483D01*
X108354357Y-112820483D01*
X108758420Y-112416421D01*
X108978661Y-112086807D01*
X108978662Y-112086806D01*
X109056000Y-111698000D01*
X109056000Y-105087140D01*
X109253441Y-104960090D01*
X109398431Y-104747890D01*
X109405250Y-104714213D01*
X109909392Y-104714213D01*
X109978857Y-104956397D01*
X110502302Y-105143144D01*
X111057368Y-105115362D01*
X111441143Y-104956397D01*
X111510608Y-104714213D01*
X110710000Y-103913605D01*
X109909392Y-104714213D01*
X109405250Y-104714213D01*
X109449440Y-104496000D01*
X109449440Y-104373009D01*
X109487603Y-104465143D01*
X109729787Y-104534608D01*
X110530395Y-103734000D01*
X109729787Y-102933392D01*
X109487603Y-103002857D01*
X109449440Y-103109826D01*
X109449440Y-102972000D01*
X109408381Y-102753787D01*
X109909392Y-102753787D01*
X110710000Y-103554395D01*
X111510608Y-102753787D01*
X111441143Y-102511603D01*
X110917698Y-102324856D01*
X110362632Y-102352638D01*
X109978857Y-102511603D01*
X109909392Y-102753787D01*
X109408381Y-102753787D01*
X109405162Y-102736683D01*
X109266090Y-102520559D01*
X109056000Y-102377011D01*
X109056000Y-97626000D01*
X108978662Y-97237194D01*
X108978662Y-97237193D01*
X108758421Y-96907580D01*
X105903440Y-94052600D01*
X105903440Y-93118000D01*
X105859162Y-92882683D01*
X105720090Y-92666559D01*
X105507890Y-92521569D01*
X105410000Y-92501746D01*
X105410000Y-87332463D01*
X105491317Y-87317162D01*
X105707441Y-87178090D01*
X105852431Y-86965890D01*
X105903440Y-86714000D01*
X105903440Y-84990000D01*
X105859162Y-84754683D01*
X105720090Y-84538559D01*
X105507890Y-84393569D01*
X105256000Y-84342560D01*
X103532000Y-84342560D01*
X103296683Y-84386838D01*
X103080559Y-84525910D01*
X102935569Y-84738110D01*
X102884560Y-84990000D01*
X100203000Y-84990000D01*
X100203000Y-73583991D01*
X109288735Y-73583991D01*
X109521932Y-74148371D01*
X109808000Y-74434940D01*
X109808000Y-92282000D01*
X109842611Y-92456000D01*
X109885338Y-92670807D01*
X110105580Y-93000420D01*
X117094000Y-99988841D01*
X117094000Y-112561163D01*
X116762878Y-112444581D01*
X116232560Y-112473336D01*
X115876169Y-112620958D01*
X115831375Y-112791744D01*
X115734090Y-112640559D01*
X115521890Y-112495569D01*
X115270000Y-112444560D01*
X114659400Y-112444560D01*
X114396000Y-112181160D01*
X114396000Y-104693707D01*
X114563629Y-104526370D01*
X114776757Y-104013100D01*
X114777242Y-103457339D01*
X114565010Y-102943697D01*
X114172370Y-102550371D01*
X113659100Y-102337243D01*
X113103339Y-102336758D01*
X112589697Y-102548990D01*
X112196371Y-102941630D01*
X112051525Y-103290458D01*
X111932397Y-103002857D01*
X111690213Y-102933392D01*
X110889605Y-103734000D01*
X111690213Y-104534608D01*
X111932397Y-104465143D01*
X112042745Y-104155841D01*
X112194990Y-104524303D01*
X112364000Y-104693608D01*
X112364000Y-112602000D01*
X112414668Y-112856725D01*
X112441338Y-112990807D01*
X112661580Y-113320420D01*
X113222560Y-113881400D01*
X113222560Y-114492000D01*
X113266838Y-114727317D01*
X113405910Y-114943441D01*
X113538000Y-115033694D01*
X113538000Y-115980981D01*
X113418807Y-115901338D01*
X113030000Y-115824001D01*
X112641193Y-115901338D01*
X112311580Y-116121580D01*
X112091338Y-116451193D01*
X112014001Y-116840000D01*
X112091338Y-117228807D01*
X112311580Y-117558420D01*
X113538000Y-118784841D01*
X113538000Y-121000293D01*
X113370371Y-121167630D01*
X113157243Y-121680900D01*
X113156758Y-122236661D01*
X113368990Y-122750303D01*
X113761630Y-123143629D01*
X114274900Y-123356757D01*
X114830661Y-123357242D01*
X115344303Y-123145010D01*
X115737629Y-122752370D01*
X115950757Y-122239100D01*
X115951242Y-121683339D01*
X115739010Y-121169697D01*
X115570000Y-121000392D01*
X115570000Y-116840000D01*
X116840001Y-116840000D01*
X116917338Y-117228807D01*
X117137580Y-117558420D01*
X121201580Y-121622421D01*
X121531193Y-121842662D01*
X121595700Y-121855493D01*
X121920000Y-121920000D01*
X155535160Y-121920000D01*
X159372560Y-125757401D01*
X159372560Y-127000000D01*
X159416838Y-127235317D01*
X159555910Y-127451441D01*
X159768110Y-127596431D01*
X160020000Y-127647440D01*
X162052000Y-127647440D01*
X162287317Y-127603162D01*
X162314539Y-127585645D01*
X162433691Y-127635000D01*
X163290250Y-127635000D01*
X163449000Y-127476250D01*
X163449000Y-126111000D01*
X163703000Y-126111000D01*
X163703000Y-127476250D01*
X163861750Y-127635000D01*
X164718309Y-127635000D01*
X164951698Y-127538327D01*
X165130327Y-127359699D01*
X165227000Y-127126310D01*
X165227000Y-126269750D01*
X165068250Y-126111000D01*
X163703000Y-126111000D01*
X163449000Y-126111000D01*
X163429000Y-126111000D01*
X163429000Y-125857000D01*
X163449000Y-125857000D01*
X163449000Y-124491750D01*
X163703000Y-124491750D01*
X163703000Y-125857000D01*
X165068250Y-125857000D01*
X165227000Y-125698250D01*
X165227000Y-124841690D01*
X165130327Y-124608301D01*
X164951698Y-124429673D01*
X164718309Y-124333000D01*
X163861750Y-124333000D01*
X163703000Y-124491750D01*
X163449000Y-124491750D01*
X163290250Y-124333000D01*
X162433691Y-124333000D01*
X162317737Y-124381030D01*
X162303890Y-124371569D01*
X162052000Y-124320560D01*
X160809401Y-124320560D01*
X156674420Y-120185580D01*
X156344807Y-119965338D01*
X156280300Y-119952507D01*
X155956000Y-119888000D01*
X122340841Y-119888000D01*
X118574420Y-116121580D01*
X118244807Y-115901338D01*
X117856000Y-115824001D01*
X117467193Y-115901338D01*
X117137580Y-116121580D01*
X116917338Y-116451193D01*
X116840001Y-116840000D01*
X115570000Y-116840000D01*
X115570000Y-115053540D01*
X115721441Y-114956090D01*
X115831932Y-114794381D01*
X115876169Y-114963042D01*
X116377122Y-115139419D01*
X116907440Y-115110664D01*
X117263831Y-114963042D01*
X117325669Y-114727275D01*
X116570000Y-113971605D01*
X116555858Y-113985748D01*
X116376252Y-113806142D01*
X116390395Y-113792000D01*
X116376252Y-113777858D01*
X116555858Y-113598252D01*
X116570000Y-113612395D01*
X116584142Y-113598252D01*
X116763748Y-113777858D01*
X116749605Y-113792000D01*
X117505275Y-114547669D01*
X117517952Y-114544344D01*
X122056028Y-119082421D01*
X122385641Y-119302662D01*
X122774448Y-119380000D01*
X151638000Y-119380000D01*
X151962300Y-119315493D01*
X152026807Y-119302662D01*
X152356420Y-119082420D01*
X153448912Y-117989929D01*
X153797000Y-118059168D01*
X154467691Y-117925759D01*
X155036275Y-117545843D01*
X155416191Y-116977259D01*
X155515040Y-116480308D01*
X156752777Y-116480308D01*
X156966527Y-117131288D01*
X157413126Y-117650916D01*
X158024583Y-117960084D01*
X158097117Y-117975104D01*
X158369000Y-117857282D01*
X158369000Y-116205000D01*
X158623000Y-116205000D01*
X158623000Y-117857282D01*
X158894883Y-117975104D01*
X158967417Y-117960084D01*
X159578874Y-117650916D01*
X160025473Y-117131288D01*
X160239223Y-116480308D01*
X160092145Y-116205000D01*
X158623000Y-116205000D01*
X158369000Y-116205000D01*
X156899855Y-116205000D01*
X156752777Y-116480308D01*
X155515040Y-116480308D01*
X155549600Y-116306568D01*
X155549600Y-115849432D01*
X155515041Y-115675692D01*
X156752777Y-115675692D01*
X156899855Y-115951000D01*
X158369000Y-115951000D01*
X158369000Y-114298718D01*
X158623000Y-114298718D01*
X158623000Y-115951000D01*
X160092145Y-115951000D01*
X160239223Y-115675692D01*
X160025473Y-115024712D01*
X159578874Y-114505084D01*
X158967417Y-114195916D01*
X158894883Y-114180896D01*
X158623000Y-114298718D01*
X158369000Y-114298718D01*
X158097117Y-114180896D01*
X158024583Y-114195916D01*
X157413126Y-114505084D01*
X156966527Y-115024712D01*
X156752777Y-115675692D01*
X155515041Y-115675692D01*
X155416191Y-115178741D01*
X155036275Y-114610157D01*
X154467691Y-114230241D01*
X153797000Y-114096832D01*
X153126309Y-114230241D01*
X152557725Y-114610157D01*
X152177809Y-115178741D01*
X152044400Y-115849432D01*
X152044400Y-116306568D01*
X152079937Y-116485223D01*
X151217160Y-117348000D01*
X123195289Y-117348000D01*
X122738028Y-116890739D01*
X123261719Y-116891196D01*
X124102223Y-116543906D01*
X124745846Y-115901405D01*
X125094602Y-115061508D01*
X125094605Y-115057519D01*
X142747604Y-115057519D01*
X143094894Y-115898023D01*
X143737395Y-116541646D01*
X144577292Y-116890402D01*
X145486719Y-116891196D01*
X146327223Y-116543906D01*
X146970846Y-115901405D01*
X147319602Y-115061508D01*
X147320396Y-114152081D01*
X146973106Y-113311577D01*
X146330605Y-112667954D01*
X145490708Y-112319198D01*
X144581281Y-112318404D01*
X143740777Y-112665694D01*
X143097154Y-113308195D01*
X142748398Y-114148092D01*
X142747604Y-115057519D01*
X125094605Y-115057519D01*
X125095396Y-114152081D01*
X124748106Y-113311577D01*
X124105605Y-112667954D01*
X123265708Y-112319198D01*
X122356281Y-112318404D01*
X121515777Y-112665694D01*
X120872154Y-113308195D01*
X120523398Y-114148092D01*
X120522937Y-114675649D01*
X119126000Y-113278712D01*
X119126000Y-111470213D01*
X152361392Y-111470213D01*
X152430857Y-111712397D01*
X152954302Y-111899144D01*
X153509368Y-111871362D01*
X153893143Y-111712397D01*
X153962608Y-111470213D01*
X153162000Y-110669605D01*
X152361392Y-111470213D01*
X119126000Y-111470213D01*
X119126000Y-110282302D01*
X151752856Y-110282302D01*
X151780638Y-110837368D01*
X151939603Y-111221143D01*
X152181787Y-111290608D01*
X152982395Y-110490000D01*
X153341605Y-110490000D01*
X154142213Y-111290608D01*
X154384397Y-111221143D01*
X154571144Y-110697698D01*
X154543362Y-110142632D01*
X154384397Y-109758857D01*
X154142213Y-109689392D01*
X153341605Y-110490000D01*
X152982395Y-110490000D01*
X152181787Y-109689392D01*
X151939603Y-109758857D01*
X151752856Y-110282302D01*
X119126000Y-110282302D01*
X119126000Y-109509787D01*
X152361392Y-109509787D01*
X153162000Y-110310395D01*
X153962608Y-109509787D01*
X153893143Y-109267603D01*
X153369698Y-109080856D01*
X152814632Y-109108638D01*
X152430857Y-109267603D01*
X152361392Y-109509787D01*
X119126000Y-109509787D01*
X119126000Y-99568000D01*
X119048662Y-99179194D01*
X119048662Y-99179193D01*
X118828420Y-98849579D01*
X115455742Y-95476901D01*
X115866465Y-95477259D01*
X116416875Y-95249835D01*
X116838355Y-94829090D01*
X117066740Y-94279078D01*
X117067053Y-93919787D01*
X118828420Y-92158421D01*
X119048661Y-91828807D01*
X119048662Y-91828806D01*
X119126000Y-91440000D01*
X119126000Y-80132519D01*
X120522604Y-80132519D01*
X120869894Y-80973023D01*
X121512395Y-81616646D01*
X122352292Y-81965402D01*
X123261719Y-81966196D01*
X124102223Y-81618906D01*
X124745846Y-80976405D01*
X125094602Y-80136508D01*
X125094605Y-80132519D01*
X142747604Y-80132519D01*
X143094894Y-80973023D01*
X143737395Y-81616646D01*
X144577292Y-81965402D01*
X145486719Y-81966196D01*
X146327223Y-81618906D01*
X146970846Y-80976405D01*
X147319602Y-80136508D01*
X147320396Y-79227081D01*
X146973106Y-78386577D01*
X146330605Y-77742954D01*
X145490708Y-77394198D01*
X144581281Y-77393404D01*
X143740777Y-77740694D01*
X143097154Y-78383195D01*
X142748398Y-79223092D01*
X142747604Y-80132519D01*
X125094605Y-80132519D01*
X125095396Y-79227081D01*
X124748106Y-78386577D01*
X124105605Y-77742954D01*
X123265708Y-77394198D01*
X122356281Y-77393404D01*
X121515777Y-77740694D01*
X120872154Y-78383195D01*
X120523398Y-79223092D01*
X120522604Y-80132519D01*
X119126000Y-80132519D01*
X119126000Y-76366840D01*
X119800841Y-75692000D01*
X149185160Y-75692000D01*
X153764825Y-80271665D01*
X153441100Y-80137243D01*
X152885339Y-80136758D01*
X152371697Y-80348990D01*
X151978371Y-80741630D01*
X151765243Y-81254900D01*
X151765034Y-81494125D01*
X149141580Y-84117580D01*
X148921338Y-84447193D01*
X148918232Y-84462807D01*
X148844000Y-84836000D01*
X148844000Y-108458000D01*
X148921338Y-108846806D01*
X149141580Y-109176420D01*
X149471194Y-109396662D01*
X149860000Y-109474000D01*
X150248806Y-109396662D01*
X150578420Y-109176420D01*
X150798662Y-108846806D01*
X150876000Y-108458000D01*
X155702000Y-108458000D01*
X155779338Y-108846806D01*
X155999580Y-109176420D01*
X156329194Y-109396662D01*
X156718000Y-109474000D01*
X158837160Y-109474000D01*
X162179000Y-112815841D01*
X162179000Y-114122460D01*
X162077400Y-114122460D01*
X161842083Y-114166738D01*
X161625959Y-114305810D01*
X161480969Y-114518010D01*
X161429960Y-114769900D01*
X161429960Y-117386100D01*
X161474238Y-117621417D01*
X161613310Y-117837541D01*
X161825510Y-117982531D01*
X162077400Y-118033540D01*
X164312600Y-118033540D01*
X164547917Y-117989262D01*
X164764041Y-117850190D01*
X164909031Y-117637990D01*
X164960040Y-117386100D01*
X164960040Y-114769900D01*
X164915762Y-114534583D01*
X164776690Y-114318459D01*
X164564490Y-114173469D01*
X164312600Y-114122460D01*
X164211000Y-114122460D01*
X164211000Y-112395000D01*
X164133662Y-112006194D01*
X164133662Y-112006193D01*
X163913421Y-111676580D01*
X159976420Y-107739580D01*
X159646807Y-107519338D01*
X159576408Y-107505335D01*
X159258000Y-107442000D01*
X156718000Y-107442000D01*
X156329194Y-107519338D01*
X155999580Y-107739580D01*
X155779338Y-108069194D01*
X155702000Y-108458000D01*
X150876000Y-108458000D01*
X150876000Y-95804302D01*
X151752856Y-95804302D01*
X151780638Y-96359368D01*
X151939603Y-96743143D01*
X152181787Y-96812608D01*
X152982395Y-96012000D01*
X153341605Y-96012000D01*
X154142213Y-96812608D01*
X154384397Y-96743143D01*
X154571144Y-96219698D01*
X154543362Y-95664632D01*
X154384397Y-95280857D01*
X154142213Y-95211392D01*
X153341605Y-96012000D01*
X152982395Y-96012000D01*
X152181787Y-95211392D01*
X151939603Y-95280857D01*
X151752856Y-95804302D01*
X150876000Y-95804302D01*
X150876000Y-95031787D01*
X152361392Y-95031787D01*
X153162000Y-95832395D01*
X153962608Y-95031787D01*
X153893143Y-94789603D01*
X153369698Y-94602856D01*
X152814632Y-94630638D01*
X152430857Y-94789603D01*
X152361392Y-95031787D01*
X150876000Y-95031787D01*
X150876000Y-85256840D01*
X151769852Y-84362989D01*
X151976990Y-84864303D01*
X152369630Y-85257629D01*
X152882900Y-85470757D01*
X153438661Y-85471242D01*
X153952303Y-85259010D01*
X154121608Y-85090000D01*
X156551160Y-85090000D01*
X157226000Y-85764841D01*
X157226000Y-88562860D01*
X157028559Y-88689910D01*
X156883569Y-88902110D01*
X156832560Y-89154000D01*
X156832560Y-90678000D01*
X156876838Y-90913317D01*
X157015910Y-91129441D01*
X157228110Y-91274431D01*
X157480000Y-91325440D01*
X159004000Y-91325440D01*
X159239317Y-91281162D01*
X159455441Y-91142090D01*
X159600431Y-90929890D01*
X159637492Y-90746876D01*
X159989630Y-91099629D01*
X160502900Y-91312757D01*
X161058661Y-91313242D01*
X161572303Y-91101010D01*
X161965629Y-90708370D01*
X162178757Y-90195100D01*
X162179242Y-89639339D01*
X161967010Y-89125697D01*
X161798000Y-88956392D01*
X161798000Y-86272841D01*
X162306000Y-86780841D01*
X162306000Y-101687159D01*
X160742195Y-103250965D01*
X160505339Y-103250758D01*
X159991697Y-103462990D01*
X159638237Y-103815833D01*
X159607162Y-103650683D01*
X159468090Y-103434559D01*
X159258000Y-103291011D01*
X159258000Y-99822000D01*
X159180662Y-99433194D01*
X159107581Y-99323821D01*
X158960420Y-99103579D01*
X157690420Y-97833580D01*
X157360807Y-97613338D01*
X157296300Y-97600507D01*
X156972000Y-97536000D01*
X154121707Y-97536000D01*
X153954370Y-97368371D01*
X153762273Y-97288605D01*
X153893143Y-97234397D01*
X153962608Y-96992213D01*
X153162000Y-96191605D01*
X152361392Y-96992213D01*
X152430857Y-97234397D01*
X152571318Y-97284509D01*
X152371697Y-97366990D01*
X151978371Y-97759630D01*
X151765243Y-98272900D01*
X151764758Y-98828661D01*
X151976990Y-99342303D01*
X152369630Y-99735629D01*
X152882900Y-99948757D01*
X153438661Y-99949242D01*
X153952303Y-99737010D01*
X154121608Y-99568000D01*
X156551160Y-99568000D01*
X157226000Y-100242841D01*
X157226000Y-103294860D01*
X157028559Y-103421910D01*
X156883569Y-103634110D01*
X156832560Y-103886000D01*
X156832560Y-105410000D01*
X156876838Y-105645317D01*
X157015910Y-105861441D01*
X157228110Y-106006431D01*
X157480000Y-106057440D01*
X159004000Y-106057440D01*
X159239317Y-106013162D01*
X159455441Y-105874090D01*
X159600431Y-105661890D01*
X159637492Y-105478876D01*
X159989630Y-105831629D01*
X160502900Y-106044757D01*
X161058661Y-106045242D01*
X161572303Y-105833010D01*
X161965629Y-105440370D01*
X162178757Y-104927100D01*
X162178966Y-104687875D01*
X164040420Y-102826421D01*
X164224871Y-102550371D01*
X164260662Y-102496806D01*
X164338000Y-102108000D01*
X164338000Y-78232000D01*
X164260662Y-77843194D01*
X164147162Y-77673330D01*
X164040420Y-77513579D01*
X162179035Y-75652195D01*
X162179242Y-75415339D01*
X161967010Y-74901697D01*
X161574370Y-74508371D01*
X161061100Y-74295243D01*
X160505339Y-74294758D01*
X159991697Y-74506990D01*
X159638237Y-74859833D01*
X159607162Y-74694683D01*
X159468090Y-74478559D01*
X159258000Y-74335011D01*
X159258000Y-70866000D01*
X159180662Y-70477194D01*
X159107581Y-70367821D01*
X158960420Y-70147579D01*
X157690420Y-68877580D01*
X157360807Y-68657338D01*
X157296300Y-68644507D01*
X156972000Y-68580000D01*
X154121707Y-68580000D01*
X153954370Y-68412371D01*
X153441100Y-68199243D01*
X152885339Y-68198758D01*
X152371697Y-68410990D01*
X151978371Y-68803630D01*
X151765243Y-69316900D01*
X151764758Y-69872661D01*
X151976990Y-70386303D01*
X152369630Y-70779629D01*
X152882900Y-70992757D01*
X153438661Y-70993242D01*
X153952303Y-70781010D01*
X154121608Y-70612000D01*
X156551160Y-70612000D01*
X157226000Y-71286841D01*
X157226000Y-74338860D01*
X157028559Y-74465910D01*
X156883569Y-74678110D01*
X156832560Y-74930000D01*
X156832560Y-76454000D01*
X156876838Y-76689317D01*
X157015910Y-76905441D01*
X157228110Y-77050431D01*
X157480000Y-77101440D01*
X159004000Y-77101440D01*
X159239317Y-77057162D01*
X159455441Y-76918090D01*
X159600431Y-76705890D01*
X159637492Y-76522876D01*
X159989630Y-76875629D01*
X160502900Y-77088757D01*
X160742125Y-77088966D01*
X162306000Y-78652841D01*
X162306000Y-83907159D01*
X150960420Y-72561580D01*
X150630807Y-72341338D01*
X150566300Y-72328507D01*
X150242000Y-72264000D01*
X141670917Y-72264000D01*
X141993141Y-71942338D01*
X142303146Y-71195763D01*
X142303852Y-70387384D01*
X141995150Y-69640268D01*
X141424038Y-69068159D01*
X140677463Y-68758154D01*
X139869084Y-68757448D01*
X139121968Y-69066150D01*
X138549859Y-69637262D01*
X138239854Y-70383837D01*
X138239148Y-71192216D01*
X138547850Y-71939332D01*
X138871952Y-72264000D01*
X129600307Y-72264000D01*
X129615940Y-72186800D01*
X129615940Y-69392800D01*
X129571662Y-69157483D01*
X129432590Y-68941359D01*
X129220390Y-68796369D01*
X128968500Y-68745360D01*
X126174500Y-68745360D01*
X125939183Y-68789638D01*
X125723059Y-68928710D01*
X125578069Y-69140910D01*
X125527060Y-69392800D01*
X125527060Y-69773800D01*
X115900200Y-69773800D01*
X115511394Y-69851138D01*
X115402021Y-69924219D01*
X115181779Y-70071380D01*
X113105580Y-72147580D01*
X112885338Y-72477193D01*
X112885338Y-72477194D01*
X112808000Y-72866000D01*
X112808000Y-76825303D01*
X112523449Y-77109357D01*
X112289267Y-77673330D01*
X112288735Y-78283991D01*
X112521932Y-78848371D01*
X112953357Y-79280551D01*
X113517330Y-79514733D01*
X114127991Y-79515265D01*
X114692371Y-79282068D01*
X115124551Y-78850643D01*
X115358733Y-78286670D01*
X115359265Y-77676009D01*
X115126068Y-77111629D01*
X114840000Y-76825060D01*
X114840000Y-73286840D01*
X115276560Y-72850280D01*
X115276560Y-74180000D01*
X115320838Y-74415317D01*
X115459910Y-74631441D01*
X115672110Y-74776431D01*
X115808000Y-74803949D01*
X115808000Y-84177159D01*
X115630108Y-84355052D01*
X115273535Y-84354741D01*
X114723125Y-84582165D01*
X114301645Y-85002910D01*
X114073260Y-85552922D01*
X114072741Y-86148465D01*
X114300165Y-86698875D01*
X114720910Y-87120355D01*
X115270922Y-87348740D01*
X115866465Y-87349259D01*
X116416875Y-87121835D01*
X116838355Y-86701090D01*
X117066740Y-86151078D01*
X117067053Y-85791788D01*
X117094000Y-85764841D01*
X117094000Y-91019159D01*
X115630108Y-92483052D01*
X115273535Y-92482741D01*
X114723125Y-92710165D01*
X114301645Y-93130910D01*
X114073260Y-93680922D01*
X114072900Y-94094060D01*
X111840000Y-91861160D01*
X111840000Y-74434697D01*
X112124551Y-74150643D01*
X112358733Y-73586670D01*
X112359265Y-72976009D01*
X112126068Y-72411629D01*
X111694643Y-71979449D01*
X111130670Y-71745267D01*
X110520009Y-71744735D01*
X109955629Y-71977932D01*
X109523449Y-72409357D01*
X109289267Y-72973330D01*
X109288735Y-73583991D01*
X100203000Y-73583991D01*
X100203000Y-68124606D01*
X102668606Y-65659000D01*
X167587394Y-65659000D01*
X170053000Y-68124606D01*
X170053000Y-68124606D01*
G37*
X170053000Y-68124606D02*
X170053000Y-127963394D01*
X167587394Y-130429000D01*
X102668606Y-130429000D01*
X100203000Y-127963394D01*
X100203000Y-127940213D01*
X104863392Y-127940213D01*
X104932857Y-128182397D01*
X105456302Y-128369144D01*
X106011368Y-128341362D01*
X106395143Y-128182397D01*
X106464608Y-127940213D01*
X113753392Y-127940213D01*
X113822857Y-128182397D01*
X114346302Y-128369144D01*
X114901368Y-128341362D01*
X115285143Y-128182397D01*
X115354608Y-127940213D01*
X114554000Y-127139605D01*
X113753392Y-127940213D01*
X106464608Y-127940213D01*
X105664000Y-127139605D01*
X104863392Y-127940213D01*
X100203000Y-127940213D01*
X100203000Y-126752302D01*
X104254856Y-126752302D01*
X104282638Y-127307368D01*
X104441603Y-127691143D01*
X104683787Y-127760608D01*
X105484395Y-126960000D01*
X105843605Y-126960000D01*
X106644213Y-127760608D01*
X106886397Y-127691143D01*
X107073144Y-127167698D01*
X107052353Y-126752302D01*
X113144856Y-126752302D01*
X113172638Y-127307368D01*
X113331603Y-127691143D01*
X113573787Y-127760608D01*
X114374395Y-126960000D01*
X114733605Y-126960000D01*
X115534213Y-127760608D01*
X115776397Y-127691143D01*
X115963144Y-127167698D01*
X115935362Y-126612632D01*
X115776397Y-126228857D01*
X115534213Y-126159392D01*
X114733605Y-126960000D01*
X114374395Y-126960000D01*
X113573787Y-126159392D01*
X113331603Y-126228857D01*
X113144856Y-126752302D01*
X107052353Y-126752302D01*
X107045362Y-126612632D01*
X106886397Y-126228857D01*
X106644213Y-126159392D01*
X105843605Y-126960000D01*
X105484395Y-126960000D01*
X104683787Y-126159392D01*
X104441603Y-126228857D01*
X104254856Y-126752302D01*
X100203000Y-126752302D01*
X100203000Y-125979787D01*
X104863392Y-125979787D01*
X105664000Y-126780395D01*
X106464608Y-125979787D01*
X113753392Y-125979787D01*
X114554000Y-126780395D01*
X115354608Y-125979787D01*
X115285143Y-125737603D01*
X114761698Y-125550856D01*
X114206632Y-125578638D01*
X113822857Y-125737603D01*
X113753392Y-125979787D01*
X106464608Y-125979787D01*
X106395143Y-125737603D01*
X105871698Y-125550856D01*
X105316632Y-125578638D01*
X104932857Y-125737603D01*
X104863392Y-125979787D01*
X100203000Y-125979787D01*
X100203000Y-124103000D01*
X123180142Y-124103000D01*
X123180142Y-128073000D01*
X144535859Y-128073000D01*
X144535859Y-124103000D01*
X123180142Y-124103000D01*
X100203000Y-124103000D01*
X100203000Y-84990000D01*
X102884560Y-84990000D01*
X102884560Y-86714000D01*
X102928838Y-86949317D01*
X103067910Y-87165441D01*
X103280110Y-87310431D01*
X103378000Y-87330254D01*
X103378000Y-92499537D01*
X103296683Y-92514838D01*
X103080559Y-92653910D01*
X102935569Y-92866110D01*
X102884560Y-93118000D01*
X102884560Y-94842000D01*
X102928838Y-95077317D01*
X103067910Y-95293441D01*
X103280110Y-95438431D01*
X103532000Y-95489440D01*
X104466600Y-95489440D01*
X107024000Y-98046841D01*
X107024000Y-102380860D01*
X106826559Y-102507910D01*
X106681569Y-102720110D01*
X106630560Y-102972000D01*
X106630560Y-104496000D01*
X106674838Y-104731317D01*
X106813910Y-104947441D01*
X107024000Y-105090989D01*
X107024000Y-111277159D01*
X105906600Y-112394560D01*
X105196000Y-112394560D01*
X104960683Y-112438838D01*
X104744559Y-112577910D01*
X104599569Y-112790110D01*
X104548560Y-113042000D01*
X104548560Y-114542000D01*
X104592838Y-114777317D01*
X104648000Y-114863041D01*
X104648000Y-121000293D01*
X104480371Y-121167630D01*
X104267243Y-121680900D01*
X104266758Y-122236661D01*
X104478990Y-122750303D01*
X104871630Y-123143629D01*
X105384900Y-123356757D01*
X105940661Y-123357242D01*
X106454303Y-123145010D01*
X106847629Y-122752370D01*
X107060757Y-122239100D01*
X107061242Y-121683339D01*
X106849010Y-121169697D01*
X106715353Y-121035807D01*
X106680000Y-120982897D01*
X106680000Y-115189440D01*
X106696000Y-115189440D01*
X106931317Y-115145162D01*
X107147441Y-115006090D01*
X107292431Y-114793890D01*
X107298581Y-114763517D01*
X108654088Y-114763517D01*
X108722077Y-115004460D01*
X109241171Y-115189201D01*
X109791448Y-115161230D01*
X110169923Y-115004460D01*
X110237912Y-114763517D01*
X109446000Y-113971605D01*
X108654088Y-114763517D01*
X107298581Y-114763517D01*
X107343440Y-114542000D01*
X107343440Y-113831400D01*
X107587669Y-113587171D01*
X108048799Y-113587171D01*
X108076770Y-114137448D01*
X108233540Y-114515923D01*
X108474483Y-114583912D01*
X109266395Y-113792000D01*
X109625605Y-113792000D01*
X110417517Y-114583912D01*
X110658460Y-114515923D01*
X110843201Y-113996829D01*
X110815230Y-113446552D01*
X110658460Y-113068077D01*
X110417517Y-113000088D01*
X109625605Y-113792000D01*
X109266395Y-113792000D01*
X108474483Y-113000088D01*
X108233540Y-113068077D01*
X108048799Y-113587171D01*
X107587669Y-113587171D01*
X108354357Y-112820483D01*
X108654088Y-112820483D01*
X109446000Y-113612395D01*
X110237912Y-112820483D01*
X110169923Y-112579540D01*
X109650829Y-112394799D01*
X109100552Y-112422770D01*
X108722077Y-112579540D01*
X108654088Y-112820483D01*
X108354357Y-112820483D01*
X108758420Y-112416421D01*
X108978661Y-112086807D01*
X108978662Y-112086806D01*
X109056000Y-111698000D01*
X109056000Y-105087140D01*
X109253441Y-104960090D01*
X109398431Y-104747890D01*
X109405250Y-104714213D01*
X109909392Y-104714213D01*
X109978857Y-104956397D01*
X110502302Y-105143144D01*
X111057368Y-105115362D01*
X111441143Y-104956397D01*
X111510608Y-104714213D01*
X110710000Y-103913605D01*
X109909392Y-104714213D01*
X109405250Y-104714213D01*
X109449440Y-104496000D01*
X109449440Y-104373009D01*
X109487603Y-104465143D01*
X109729787Y-104534608D01*
X110530395Y-103734000D01*
X109729787Y-102933392D01*
X109487603Y-103002857D01*
X109449440Y-103109826D01*
X109449440Y-102972000D01*
X109408381Y-102753787D01*
X109909392Y-102753787D01*
X110710000Y-103554395D01*
X111510608Y-102753787D01*
X111441143Y-102511603D01*
X110917698Y-102324856D01*
X110362632Y-102352638D01*
X109978857Y-102511603D01*
X109909392Y-102753787D01*
X109408381Y-102753787D01*
X109405162Y-102736683D01*
X109266090Y-102520559D01*
X109056000Y-102377011D01*
X109056000Y-97626000D01*
X108978662Y-97237194D01*
X108978662Y-97237193D01*
X108758421Y-96907580D01*
X105903440Y-94052600D01*
X105903440Y-93118000D01*
X105859162Y-92882683D01*
X105720090Y-92666559D01*
X105507890Y-92521569D01*
X105410000Y-92501746D01*
X105410000Y-87332463D01*
X105491317Y-87317162D01*
X105707441Y-87178090D01*
X105852431Y-86965890D01*
X105903440Y-86714000D01*
X105903440Y-84990000D01*
X105859162Y-84754683D01*
X105720090Y-84538559D01*
X105507890Y-84393569D01*
X105256000Y-84342560D01*
X103532000Y-84342560D01*
X103296683Y-84386838D01*
X103080559Y-84525910D01*
X102935569Y-84738110D01*
X102884560Y-84990000D01*
X100203000Y-84990000D01*
X100203000Y-73583991D01*
X109288735Y-73583991D01*
X109521932Y-74148371D01*
X109808000Y-74434940D01*
X109808000Y-92282000D01*
X109842611Y-92456000D01*
X109885338Y-92670807D01*
X110105580Y-93000420D01*
X117094000Y-99988841D01*
X117094000Y-112561163D01*
X116762878Y-112444581D01*
X116232560Y-112473336D01*
X115876169Y-112620958D01*
X115831375Y-112791744D01*
X115734090Y-112640559D01*
X115521890Y-112495569D01*
X115270000Y-112444560D01*
X114659400Y-112444560D01*
X114396000Y-112181160D01*
X114396000Y-104693707D01*
X114563629Y-104526370D01*
X114776757Y-104013100D01*
X114777242Y-103457339D01*
X114565010Y-102943697D01*
X114172370Y-102550371D01*
X113659100Y-102337243D01*
X113103339Y-102336758D01*
X112589697Y-102548990D01*
X112196371Y-102941630D01*
X112051525Y-103290458D01*
X111932397Y-103002857D01*
X111690213Y-102933392D01*
X110889605Y-103734000D01*
X111690213Y-104534608D01*
X111932397Y-104465143D01*
X112042745Y-104155841D01*
X112194990Y-104524303D01*
X112364000Y-104693608D01*
X112364000Y-112602000D01*
X112414668Y-112856725D01*
X112441338Y-112990807D01*
X112661580Y-113320420D01*
X113222560Y-113881400D01*
X113222560Y-114492000D01*
X113266838Y-114727317D01*
X113405910Y-114943441D01*
X113538000Y-115033694D01*
X113538000Y-115980981D01*
X113418807Y-115901338D01*
X113030000Y-115824001D01*
X112641193Y-115901338D01*
X112311580Y-116121580D01*
X112091338Y-116451193D01*
X112014001Y-116840000D01*
X112091338Y-117228807D01*
X112311580Y-117558420D01*
X113538000Y-118784841D01*
X113538000Y-121000293D01*
X113370371Y-121167630D01*
X113157243Y-121680900D01*
X113156758Y-122236661D01*
X113368990Y-122750303D01*
X113761630Y-123143629D01*
X114274900Y-123356757D01*
X114830661Y-123357242D01*
X115344303Y-123145010D01*
X115737629Y-122752370D01*
X115950757Y-122239100D01*
X115951242Y-121683339D01*
X115739010Y-121169697D01*
X115570000Y-121000392D01*
X115570000Y-116840000D01*
X116840001Y-116840000D01*
X116917338Y-117228807D01*
X117137580Y-117558420D01*
X121201580Y-121622421D01*
X121531193Y-121842662D01*
X121595700Y-121855493D01*
X121920000Y-121920000D01*
X155535160Y-121920000D01*
X159372560Y-125757401D01*
X159372560Y-127000000D01*
X159416838Y-127235317D01*
X159555910Y-127451441D01*
X159768110Y-127596431D01*
X160020000Y-127647440D01*
X162052000Y-127647440D01*
X162287317Y-127603162D01*
X162314539Y-127585645D01*
X162433691Y-127635000D01*
X163290250Y-127635000D01*
X163449000Y-127476250D01*
X163449000Y-126111000D01*
X163703000Y-126111000D01*
X163703000Y-127476250D01*
X163861750Y-127635000D01*
X164718309Y-127635000D01*
X164951698Y-127538327D01*
X165130327Y-127359699D01*
X165227000Y-127126310D01*
X165227000Y-126269750D01*
X165068250Y-126111000D01*
X163703000Y-126111000D01*
X163449000Y-126111000D01*
X163429000Y-126111000D01*
X163429000Y-125857000D01*
X163449000Y-125857000D01*
X163449000Y-124491750D01*
X163703000Y-124491750D01*
X163703000Y-125857000D01*
X165068250Y-125857000D01*
X165227000Y-125698250D01*
X165227000Y-124841690D01*
X165130327Y-124608301D01*
X164951698Y-124429673D01*
X164718309Y-124333000D01*
X163861750Y-124333000D01*
X163703000Y-124491750D01*
X163449000Y-124491750D01*
X163290250Y-124333000D01*
X162433691Y-124333000D01*
X162317737Y-124381030D01*
X162303890Y-124371569D01*
X162052000Y-124320560D01*
X160809401Y-124320560D01*
X156674420Y-120185580D01*
X156344807Y-119965338D01*
X156280300Y-119952507D01*
X155956000Y-119888000D01*
X122340841Y-119888000D01*
X118574420Y-116121580D01*
X118244807Y-115901338D01*
X117856000Y-115824001D01*
X117467193Y-115901338D01*
X117137580Y-116121580D01*
X116917338Y-116451193D01*
X116840001Y-116840000D01*
X115570000Y-116840000D01*
X115570000Y-115053540D01*
X115721441Y-114956090D01*
X115831932Y-114794381D01*
X115876169Y-114963042D01*
X116377122Y-115139419D01*
X116907440Y-115110664D01*
X117263831Y-114963042D01*
X117325669Y-114727275D01*
X116570000Y-113971605D01*
X116555858Y-113985748D01*
X116376252Y-113806142D01*
X116390395Y-113792000D01*
X116376252Y-113777858D01*
X116555858Y-113598252D01*
X116570000Y-113612395D01*
X116584142Y-113598252D01*
X116763748Y-113777858D01*
X116749605Y-113792000D01*
X117505275Y-114547669D01*
X117517952Y-114544344D01*
X122056028Y-119082421D01*
X122385641Y-119302662D01*
X122774448Y-119380000D01*
X151638000Y-119380000D01*
X151962300Y-119315493D01*
X152026807Y-119302662D01*
X152356420Y-119082420D01*
X153448912Y-117989929D01*
X153797000Y-118059168D01*
X154467691Y-117925759D01*
X155036275Y-117545843D01*
X155416191Y-116977259D01*
X155515040Y-116480308D01*
X156752777Y-116480308D01*
X156966527Y-117131288D01*
X157413126Y-117650916D01*
X158024583Y-117960084D01*
X158097117Y-117975104D01*
X158369000Y-117857282D01*
X158369000Y-116205000D01*
X158623000Y-116205000D01*
X158623000Y-117857282D01*
X158894883Y-117975104D01*
X158967417Y-117960084D01*
X159578874Y-117650916D01*
X160025473Y-117131288D01*
X160239223Y-116480308D01*
X160092145Y-116205000D01*
X158623000Y-116205000D01*
X158369000Y-116205000D01*
X156899855Y-116205000D01*
X156752777Y-116480308D01*
X155515040Y-116480308D01*
X155549600Y-116306568D01*
X155549600Y-115849432D01*
X155515041Y-115675692D01*
X156752777Y-115675692D01*
X156899855Y-115951000D01*
X158369000Y-115951000D01*
X158369000Y-114298718D01*
X158623000Y-114298718D01*
X158623000Y-115951000D01*
X160092145Y-115951000D01*
X160239223Y-115675692D01*
X160025473Y-115024712D01*
X159578874Y-114505084D01*
X158967417Y-114195916D01*
X158894883Y-114180896D01*
X158623000Y-114298718D01*
X158369000Y-114298718D01*
X158097117Y-114180896D01*
X158024583Y-114195916D01*
X157413126Y-114505084D01*
X156966527Y-115024712D01*
X156752777Y-115675692D01*
X155515041Y-115675692D01*
X155416191Y-115178741D01*
X155036275Y-114610157D01*
X154467691Y-114230241D01*
X153797000Y-114096832D01*
X153126309Y-114230241D01*
X152557725Y-114610157D01*
X152177809Y-115178741D01*
X152044400Y-115849432D01*
X152044400Y-116306568D01*
X152079937Y-116485223D01*
X151217160Y-117348000D01*
X123195289Y-117348000D01*
X122738028Y-116890739D01*
X123261719Y-116891196D01*
X124102223Y-116543906D01*
X124745846Y-115901405D01*
X125094602Y-115061508D01*
X125094605Y-115057519D01*
X142747604Y-115057519D01*
X143094894Y-115898023D01*
X143737395Y-116541646D01*
X144577292Y-116890402D01*
X145486719Y-116891196D01*
X146327223Y-116543906D01*
X146970846Y-115901405D01*
X147319602Y-115061508D01*
X147320396Y-114152081D01*
X146973106Y-113311577D01*
X146330605Y-112667954D01*
X145490708Y-112319198D01*
X144581281Y-112318404D01*
X143740777Y-112665694D01*
X143097154Y-113308195D01*
X142748398Y-114148092D01*
X142747604Y-115057519D01*
X125094605Y-115057519D01*
X125095396Y-114152081D01*
X124748106Y-113311577D01*
X124105605Y-112667954D01*
X123265708Y-112319198D01*
X122356281Y-112318404D01*
X121515777Y-112665694D01*
X120872154Y-113308195D01*
X120523398Y-114148092D01*
X120522937Y-114675649D01*
X119126000Y-113278712D01*
X119126000Y-111470213D01*
X152361392Y-111470213D01*
X152430857Y-111712397D01*
X152954302Y-111899144D01*
X153509368Y-111871362D01*
X153893143Y-111712397D01*
X153962608Y-111470213D01*
X153162000Y-110669605D01*
X152361392Y-111470213D01*
X119126000Y-111470213D01*
X119126000Y-110282302D01*
X151752856Y-110282302D01*
X151780638Y-110837368D01*
X151939603Y-111221143D01*
X152181787Y-111290608D01*
X152982395Y-110490000D01*
X153341605Y-110490000D01*
X154142213Y-111290608D01*
X154384397Y-111221143D01*
X154571144Y-110697698D01*
X154543362Y-110142632D01*
X154384397Y-109758857D01*
X154142213Y-109689392D01*
X153341605Y-110490000D01*
X152982395Y-110490000D01*
X152181787Y-109689392D01*
X151939603Y-109758857D01*
X151752856Y-110282302D01*
X119126000Y-110282302D01*
X119126000Y-109509787D01*
X152361392Y-109509787D01*
X153162000Y-110310395D01*
X153962608Y-109509787D01*
X153893143Y-109267603D01*
X153369698Y-109080856D01*
X152814632Y-109108638D01*
X152430857Y-109267603D01*
X152361392Y-109509787D01*
X119126000Y-109509787D01*
X119126000Y-99568000D01*
X119048662Y-99179194D01*
X119048662Y-99179193D01*
X118828420Y-98849579D01*
X115455742Y-95476901D01*
X115866465Y-95477259D01*
X116416875Y-95249835D01*
X116838355Y-94829090D01*
X117066740Y-94279078D01*
X117067053Y-93919787D01*
X118828420Y-92158421D01*
X119048661Y-91828807D01*
X119048662Y-91828806D01*
X119126000Y-91440000D01*
X119126000Y-80132519D01*
X120522604Y-80132519D01*
X120869894Y-80973023D01*
X121512395Y-81616646D01*
X122352292Y-81965402D01*
X123261719Y-81966196D01*
X124102223Y-81618906D01*
X124745846Y-80976405D01*
X125094602Y-80136508D01*
X125094605Y-80132519D01*
X142747604Y-80132519D01*
X143094894Y-80973023D01*
X143737395Y-81616646D01*
X144577292Y-81965402D01*
X145486719Y-81966196D01*
X146327223Y-81618906D01*
X146970846Y-80976405D01*
X147319602Y-80136508D01*
X147320396Y-79227081D01*
X146973106Y-78386577D01*
X146330605Y-77742954D01*
X145490708Y-77394198D01*
X144581281Y-77393404D01*
X143740777Y-77740694D01*
X143097154Y-78383195D01*
X142748398Y-79223092D01*
X142747604Y-80132519D01*
X125094605Y-80132519D01*
X125095396Y-79227081D01*
X124748106Y-78386577D01*
X124105605Y-77742954D01*
X123265708Y-77394198D01*
X122356281Y-77393404D01*
X121515777Y-77740694D01*
X120872154Y-78383195D01*
X120523398Y-79223092D01*
X120522604Y-80132519D01*
X119126000Y-80132519D01*
X119126000Y-76366840D01*
X119800841Y-75692000D01*
X149185160Y-75692000D01*
X153764825Y-80271665D01*
X153441100Y-80137243D01*
X152885339Y-80136758D01*
X152371697Y-80348990D01*
X151978371Y-80741630D01*
X151765243Y-81254900D01*
X151765034Y-81494125D01*
X149141580Y-84117580D01*
X148921338Y-84447193D01*
X148918232Y-84462807D01*
X148844000Y-84836000D01*
X148844000Y-108458000D01*
X148921338Y-108846806D01*
X149141580Y-109176420D01*
X149471194Y-109396662D01*
X149860000Y-109474000D01*
X150248806Y-109396662D01*
X150578420Y-109176420D01*
X150798662Y-108846806D01*
X150876000Y-108458000D01*
X155702000Y-108458000D01*
X155779338Y-108846806D01*
X155999580Y-109176420D01*
X156329194Y-109396662D01*
X156718000Y-109474000D01*
X158837160Y-109474000D01*
X162179000Y-112815841D01*
X162179000Y-114122460D01*
X162077400Y-114122460D01*
X161842083Y-114166738D01*
X161625959Y-114305810D01*
X161480969Y-114518010D01*
X161429960Y-114769900D01*
X161429960Y-117386100D01*
X161474238Y-117621417D01*
X161613310Y-117837541D01*
X161825510Y-117982531D01*
X162077400Y-118033540D01*
X164312600Y-118033540D01*
X164547917Y-117989262D01*
X164764041Y-117850190D01*
X164909031Y-117637990D01*
X164960040Y-117386100D01*
X164960040Y-114769900D01*
X164915762Y-114534583D01*
X164776690Y-114318459D01*
X164564490Y-114173469D01*
X164312600Y-114122460D01*
X164211000Y-114122460D01*
X164211000Y-112395000D01*
X164133662Y-112006194D01*
X164133662Y-112006193D01*
X163913421Y-111676580D01*
X159976420Y-107739580D01*
X159646807Y-107519338D01*
X159576408Y-107505335D01*
X159258000Y-107442000D01*
X156718000Y-107442000D01*
X156329194Y-107519338D01*
X155999580Y-107739580D01*
X155779338Y-108069194D01*
X155702000Y-108458000D01*
X150876000Y-108458000D01*
X150876000Y-95804302D01*
X151752856Y-95804302D01*
X151780638Y-96359368D01*
X151939603Y-96743143D01*
X152181787Y-96812608D01*
X152982395Y-96012000D01*
X153341605Y-96012000D01*
X154142213Y-96812608D01*
X154384397Y-96743143D01*
X154571144Y-96219698D01*
X154543362Y-95664632D01*
X154384397Y-95280857D01*
X154142213Y-95211392D01*
X153341605Y-96012000D01*
X152982395Y-96012000D01*
X152181787Y-95211392D01*
X151939603Y-95280857D01*
X151752856Y-95804302D01*
X150876000Y-95804302D01*
X150876000Y-95031787D01*
X152361392Y-95031787D01*
X153162000Y-95832395D01*
X153962608Y-95031787D01*
X153893143Y-94789603D01*
X153369698Y-94602856D01*
X152814632Y-94630638D01*
X152430857Y-94789603D01*
X152361392Y-95031787D01*
X150876000Y-95031787D01*
X150876000Y-85256840D01*
X151769852Y-84362989D01*
X151976990Y-84864303D01*
X152369630Y-85257629D01*
X152882900Y-85470757D01*
X153438661Y-85471242D01*
X153952303Y-85259010D01*
X154121608Y-85090000D01*
X156551160Y-85090000D01*
X157226000Y-85764841D01*
X157226000Y-88562860D01*
X157028559Y-88689910D01*
X156883569Y-88902110D01*
X156832560Y-89154000D01*
X156832560Y-90678000D01*
X156876838Y-90913317D01*
X157015910Y-91129441D01*
X157228110Y-91274431D01*
X157480000Y-91325440D01*
X159004000Y-91325440D01*
X159239317Y-91281162D01*
X159455441Y-91142090D01*
X159600431Y-90929890D01*
X159637492Y-90746876D01*
X159989630Y-91099629D01*
X160502900Y-91312757D01*
X161058661Y-91313242D01*
X161572303Y-91101010D01*
X161965629Y-90708370D01*
X162178757Y-90195100D01*
X162179242Y-89639339D01*
X161967010Y-89125697D01*
X161798000Y-88956392D01*
X161798000Y-86272841D01*
X162306000Y-86780841D01*
X162306000Y-101687159D01*
X160742195Y-103250965D01*
X160505339Y-103250758D01*
X159991697Y-103462990D01*
X159638237Y-103815833D01*
X159607162Y-103650683D01*
X159468090Y-103434559D01*
X159258000Y-103291011D01*
X159258000Y-99822000D01*
X159180662Y-99433194D01*
X159107581Y-99323821D01*
X158960420Y-99103579D01*
X157690420Y-97833580D01*
X157360807Y-97613338D01*
X157296300Y-97600507D01*
X156972000Y-97536000D01*
X154121707Y-97536000D01*
X153954370Y-97368371D01*
X153762273Y-97288605D01*
X153893143Y-97234397D01*
X153962608Y-96992213D01*
X153162000Y-96191605D01*
X152361392Y-96992213D01*
X152430857Y-97234397D01*
X152571318Y-97284509D01*
X152371697Y-97366990D01*
X151978371Y-97759630D01*
X151765243Y-98272900D01*
X151764758Y-98828661D01*
X151976990Y-99342303D01*
X152369630Y-99735629D01*
X152882900Y-99948757D01*
X153438661Y-99949242D01*
X153952303Y-99737010D01*
X154121608Y-99568000D01*
X156551160Y-99568000D01*
X157226000Y-100242841D01*
X157226000Y-103294860D01*
X157028559Y-103421910D01*
X156883569Y-103634110D01*
X156832560Y-103886000D01*
X156832560Y-105410000D01*
X156876838Y-105645317D01*
X157015910Y-105861441D01*
X157228110Y-106006431D01*
X157480000Y-106057440D01*
X159004000Y-106057440D01*
X159239317Y-106013162D01*
X159455441Y-105874090D01*
X159600431Y-105661890D01*
X159637492Y-105478876D01*
X159989630Y-105831629D01*
X160502900Y-106044757D01*
X161058661Y-106045242D01*
X161572303Y-105833010D01*
X161965629Y-105440370D01*
X162178757Y-104927100D01*
X162178966Y-104687875D01*
X164040420Y-102826421D01*
X164224871Y-102550371D01*
X164260662Y-102496806D01*
X164338000Y-102108000D01*
X164338000Y-78232000D01*
X164260662Y-77843194D01*
X164147162Y-77673330D01*
X164040420Y-77513579D01*
X162179035Y-75652195D01*
X162179242Y-75415339D01*
X161967010Y-74901697D01*
X161574370Y-74508371D01*
X161061100Y-74295243D01*
X160505339Y-74294758D01*
X159991697Y-74506990D01*
X159638237Y-74859833D01*
X159607162Y-74694683D01*
X159468090Y-74478559D01*
X159258000Y-74335011D01*
X159258000Y-70866000D01*
X159180662Y-70477194D01*
X159107581Y-70367821D01*
X158960420Y-70147579D01*
X157690420Y-68877580D01*
X157360807Y-68657338D01*
X157296300Y-68644507D01*
X156972000Y-68580000D01*
X154121707Y-68580000D01*
X153954370Y-68412371D01*
X153441100Y-68199243D01*
X152885339Y-68198758D01*
X152371697Y-68410990D01*
X151978371Y-68803630D01*
X151765243Y-69316900D01*
X151764758Y-69872661D01*
X151976990Y-70386303D01*
X152369630Y-70779629D01*
X152882900Y-70992757D01*
X153438661Y-70993242D01*
X153952303Y-70781010D01*
X154121608Y-70612000D01*
X156551160Y-70612000D01*
X157226000Y-71286841D01*
X157226000Y-74338860D01*
X157028559Y-74465910D01*
X156883569Y-74678110D01*
X156832560Y-74930000D01*
X156832560Y-76454000D01*
X156876838Y-76689317D01*
X157015910Y-76905441D01*
X157228110Y-77050431D01*
X157480000Y-77101440D01*
X159004000Y-77101440D01*
X159239317Y-77057162D01*
X159455441Y-76918090D01*
X159600431Y-76705890D01*
X159637492Y-76522876D01*
X159989630Y-76875629D01*
X160502900Y-77088757D01*
X160742125Y-77088966D01*
X162306000Y-78652841D01*
X162306000Y-83907159D01*
X150960420Y-72561580D01*
X150630807Y-72341338D01*
X150566300Y-72328507D01*
X150242000Y-72264000D01*
X141670917Y-72264000D01*
X141993141Y-71942338D01*
X142303146Y-71195763D01*
X142303852Y-70387384D01*
X141995150Y-69640268D01*
X141424038Y-69068159D01*
X140677463Y-68758154D01*
X139869084Y-68757448D01*
X139121968Y-69066150D01*
X138549859Y-69637262D01*
X138239854Y-70383837D01*
X138239148Y-71192216D01*
X138547850Y-71939332D01*
X138871952Y-72264000D01*
X129600307Y-72264000D01*
X129615940Y-72186800D01*
X129615940Y-69392800D01*
X129571662Y-69157483D01*
X129432590Y-68941359D01*
X129220390Y-68796369D01*
X128968500Y-68745360D01*
X126174500Y-68745360D01*
X125939183Y-68789638D01*
X125723059Y-68928710D01*
X125578069Y-69140910D01*
X125527060Y-69392800D01*
X125527060Y-69773800D01*
X115900200Y-69773800D01*
X115511394Y-69851138D01*
X115402021Y-69924219D01*
X115181779Y-70071380D01*
X113105580Y-72147580D01*
X112885338Y-72477193D01*
X112885338Y-72477194D01*
X112808000Y-72866000D01*
X112808000Y-76825303D01*
X112523449Y-77109357D01*
X112289267Y-77673330D01*
X112288735Y-78283991D01*
X112521932Y-78848371D01*
X112953357Y-79280551D01*
X113517330Y-79514733D01*
X114127991Y-79515265D01*
X114692371Y-79282068D01*
X115124551Y-78850643D01*
X115358733Y-78286670D01*
X115359265Y-77676009D01*
X115126068Y-77111629D01*
X114840000Y-76825060D01*
X114840000Y-73286840D01*
X115276560Y-72850280D01*
X115276560Y-74180000D01*
X115320838Y-74415317D01*
X115459910Y-74631441D01*
X115672110Y-74776431D01*
X115808000Y-74803949D01*
X115808000Y-84177159D01*
X115630108Y-84355052D01*
X115273535Y-84354741D01*
X114723125Y-84582165D01*
X114301645Y-85002910D01*
X114073260Y-85552922D01*
X114072741Y-86148465D01*
X114300165Y-86698875D01*
X114720910Y-87120355D01*
X115270922Y-87348740D01*
X115866465Y-87349259D01*
X116416875Y-87121835D01*
X116838355Y-86701090D01*
X117066740Y-86151078D01*
X117067053Y-85791788D01*
X117094000Y-85764841D01*
X117094000Y-91019159D01*
X115630108Y-92483052D01*
X115273535Y-92482741D01*
X114723125Y-92710165D01*
X114301645Y-93130910D01*
X114073260Y-93680922D01*
X114072900Y-94094060D01*
X111840000Y-91861160D01*
X111840000Y-74434697D01*
X112124551Y-74150643D01*
X112358733Y-73586670D01*
X112359265Y-72976009D01*
X112126068Y-72411629D01*
X111694643Y-71979449D01*
X111130670Y-71745267D01*
X110520009Y-71744735D01*
X109955629Y-71977932D01*
X109523449Y-72409357D01*
X109289267Y-72973330D01*
X109288735Y-73583991D01*
X100203000Y-73583991D01*
X100203000Y-68124606D01*
X102668606Y-65659000D01*
X167587394Y-65659000D01*
X170053000Y-68124606D01*
M02*
