G04 #@! TF.FileFunction,Legend,Bot*
%FSLAX46Y46*%
G04 Gerber Fmt 4.6, Leading zero omitted, Abs format (unit mm)*
G04 Created by KiCad (PCBNEW (2015-08-21 BZR 6112)-product) date 2015 October 15, Thursday 21:52:47*
%MOMM*%
G01*
G04 APERTURE LIST*
%ADD10C,0.100000*%
%ADD11C,0.010000*%
G04 APERTURE END LIST*
D10*
D11*
G36*
X125301837Y-95381197D02*
X126699557Y-93983478D01*
X125498181Y-92771774D01*
X125012787Y-92275856D01*
X124637199Y-91870905D01*
X124357504Y-91532268D01*
X124159792Y-91235293D01*
X124030150Y-90955327D01*
X123954666Y-90667717D01*
X123919429Y-90347811D01*
X123910528Y-89970956D01*
X123910522Y-89958334D01*
X123921049Y-89527674D01*
X123958538Y-89209169D01*
X124031848Y-88946608D01*
X124093049Y-88800460D01*
X124408064Y-88288897D01*
X124840606Y-87826183D01*
X125338919Y-87465230D01*
X125464019Y-87398900D01*
X125739451Y-87276693D01*
X125990553Y-87205393D01*
X126282619Y-87172208D01*
X126661333Y-87164334D01*
X126881770Y-87162648D01*
X127075836Y-87162577D01*
X127252907Y-87171598D01*
X127422363Y-87197191D01*
X127593583Y-87246833D01*
X127775944Y-87328004D01*
X127978825Y-87448181D01*
X128211604Y-87614843D01*
X128483660Y-87835470D01*
X128804371Y-88117538D01*
X129183117Y-88468528D01*
X129629274Y-88895916D01*
X130152222Y-89407182D01*
X130761338Y-90009805D01*
X131466002Y-90711262D01*
X132275592Y-91519032D01*
X132885683Y-92127722D01*
X137543699Y-96773224D01*
X138939349Y-95375467D01*
X140335000Y-93977710D01*
X135466666Y-89121468D01*
X134548605Y-88205838D01*
X133741035Y-87401671D01*
X133034480Y-86700926D01*
X132419461Y-86095563D01*
X131886499Y-85577543D01*
X131426117Y-85138825D01*
X131028837Y-84771369D01*
X130685180Y-84467134D01*
X130385669Y-84218082D01*
X130120825Y-84016171D01*
X129881170Y-83853361D01*
X129657227Y-83721613D01*
X129439517Y-83612886D01*
X129218561Y-83519139D01*
X128984883Y-83432334D01*
X128729004Y-83344429D01*
X128608666Y-83303911D01*
X128232243Y-83183786D01*
X127914277Y-83103293D01*
X127597684Y-83053410D01*
X127225382Y-83025114D01*
X126746000Y-83009512D01*
X126320074Y-83003559D01*
X125939239Y-83004765D01*
X125644653Y-83012573D01*
X125477470Y-83026426D01*
X125476000Y-83026705D01*
X124385315Y-83315877D01*
X123385378Y-83740891D01*
X122484788Y-84294108D01*
X121692142Y-84967889D01*
X121016040Y-85754593D01*
X120465081Y-86646581D01*
X120047863Y-87636214D01*
X119955786Y-87931125D01*
X119874090Y-88240549D01*
X119818601Y-88533430D01*
X119784757Y-88854933D01*
X119767999Y-89250223D01*
X119763762Y-89764468D01*
X119763867Y-89831334D01*
X119767166Y-90324697D01*
X119778608Y-90693616D01*
X119804367Y-90982969D01*
X119850613Y-91237633D01*
X119923518Y-91502487D01*
X120029254Y-91822409D01*
X120043307Y-91863334D01*
X120216659Y-92336926D01*
X120397484Y-92754192D01*
X120603365Y-93140250D01*
X120851882Y-93520215D01*
X121160617Y-93919207D01*
X121547153Y-94362343D01*
X122029071Y-94874739D01*
X122460087Y-95315959D01*
X123904118Y-96778917D01*
X125301837Y-95381197D01*
X125301837Y-95381197D01*
G37*
X125301837Y-95381197D02*
X126699557Y-93983478D01*
X125498181Y-92771774D01*
X125012787Y-92275856D01*
X124637199Y-91870905D01*
X124357504Y-91532268D01*
X124159792Y-91235293D01*
X124030150Y-90955327D01*
X123954666Y-90667717D01*
X123919429Y-90347811D01*
X123910528Y-89970956D01*
X123910522Y-89958334D01*
X123921049Y-89527674D01*
X123958538Y-89209169D01*
X124031848Y-88946608D01*
X124093049Y-88800460D01*
X124408064Y-88288897D01*
X124840606Y-87826183D01*
X125338919Y-87465230D01*
X125464019Y-87398900D01*
X125739451Y-87276693D01*
X125990553Y-87205393D01*
X126282619Y-87172208D01*
X126661333Y-87164334D01*
X126881770Y-87162648D01*
X127075836Y-87162577D01*
X127252907Y-87171598D01*
X127422363Y-87197191D01*
X127593583Y-87246833D01*
X127775944Y-87328004D01*
X127978825Y-87448181D01*
X128211604Y-87614843D01*
X128483660Y-87835470D01*
X128804371Y-88117538D01*
X129183117Y-88468528D01*
X129629274Y-88895916D01*
X130152222Y-89407182D01*
X130761338Y-90009805D01*
X131466002Y-90711262D01*
X132275592Y-91519032D01*
X132885683Y-92127722D01*
X137543699Y-96773224D01*
X138939349Y-95375467D01*
X140335000Y-93977710D01*
X135466666Y-89121468D01*
X134548605Y-88205838D01*
X133741035Y-87401671D01*
X133034480Y-86700926D01*
X132419461Y-86095563D01*
X131886499Y-85577543D01*
X131426117Y-85138825D01*
X131028837Y-84771369D01*
X130685180Y-84467134D01*
X130385669Y-84218082D01*
X130120825Y-84016171D01*
X129881170Y-83853361D01*
X129657227Y-83721613D01*
X129439517Y-83612886D01*
X129218561Y-83519139D01*
X128984883Y-83432334D01*
X128729004Y-83344429D01*
X128608666Y-83303911D01*
X128232243Y-83183786D01*
X127914277Y-83103293D01*
X127597684Y-83053410D01*
X127225382Y-83025114D01*
X126746000Y-83009512D01*
X126320074Y-83003559D01*
X125939239Y-83004765D01*
X125644653Y-83012573D01*
X125477470Y-83026426D01*
X125476000Y-83026705D01*
X124385315Y-83315877D01*
X123385378Y-83740891D01*
X122484788Y-84294108D01*
X121692142Y-84967889D01*
X121016040Y-85754593D01*
X120465081Y-86646581D01*
X120047863Y-87636214D01*
X119955786Y-87931125D01*
X119874090Y-88240549D01*
X119818601Y-88533430D01*
X119784757Y-88854933D01*
X119767999Y-89250223D01*
X119763762Y-89764468D01*
X119763867Y-89831334D01*
X119767166Y-90324697D01*
X119778608Y-90693616D01*
X119804367Y-90982969D01*
X119850613Y-91237633D01*
X119923518Y-91502487D01*
X120029254Y-91822409D01*
X120043307Y-91863334D01*
X120216659Y-92336926D01*
X120397484Y-92754192D01*
X120603365Y-93140250D01*
X120851882Y-93520215D01*
X121160617Y-93919207D01*
X121547153Y-94362343D01*
X122029071Y-94874739D01*
X122460087Y-95315959D01*
X123904118Y-96778917D01*
X125301837Y-95381197D01*
G36*
X142293484Y-98700859D02*
X143206379Y-97785411D01*
X144007865Y-96980416D01*
X144706029Y-96276348D01*
X145308953Y-95663679D01*
X145824724Y-95132882D01*
X146261425Y-94674432D01*
X146627142Y-94278801D01*
X146929960Y-93936462D01*
X147177962Y-93637888D01*
X147379234Y-93373553D01*
X147541861Y-93133929D01*
X147673927Y-92909491D01*
X147783518Y-92690711D01*
X147878717Y-92468062D01*
X147967610Y-92232018D01*
X148058281Y-91973052D01*
X148096025Y-91863334D01*
X148205793Y-91534517D01*
X148282044Y-91265757D01*
X148330949Y-91012177D01*
X148358680Y-90728899D01*
X148371410Y-90371045D01*
X148375309Y-89893736D01*
X148375465Y-89831334D01*
X148372246Y-89298940D01*
X148356864Y-88890885D01*
X148324847Y-88562350D01*
X148271719Y-88268515D01*
X148193009Y-87964560D01*
X148187075Y-87943988D01*
X147813394Y-86947439D01*
X147299400Y-86030444D01*
X146658791Y-85206792D01*
X145905266Y-84490271D01*
X145052523Y-83894670D01*
X144114263Y-83433776D01*
X143495490Y-83221688D01*
X143022678Y-83119117D01*
X142448983Y-83046513D01*
X141828248Y-83006023D01*
X141214318Y-82999791D01*
X140661033Y-83029964D01*
X140249180Y-83092329D01*
X139504259Y-83309210D01*
X138755166Y-83611227D01*
X138075555Y-83967253D01*
X137867741Y-84098857D01*
X137630063Y-84278693D01*
X137303070Y-84555410D01*
X136914752Y-84903770D01*
X136493099Y-85298536D01*
X136066102Y-85714469D01*
X135975660Y-85804868D01*
X134664320Y-87122063D01*
X136058037Y-88517703D01*
X137451755Y-89913343D01*
X138642843Y-88732408D01*
X139135971Y-88250042D01*
X139538718Y-87877576D01*
X139876085Y-87600977D01*
X140173076Y-87406209D01*
X140454694Y-87279239D01*
X140745941Y-87206031D01*
X141071822Y-87172552D01*
X141435666Y-87164762D01*
X141833061Y-87171681D01*
X142121893Y-87200580D01*
X142362604Y-87262875D01*
X142615635Y-87369980D01*
X142675314Y-87398900D01*
X143180325Y-87725942D01*
X143632099Y-88166672D01*
X143979211Y-88668470D01*
X144045062Y-88800460D01*
X144147773Y-89078119D01*
X144205144Y-89389122D01*
X144226968Y-89793179D01*
X144228018Y-89916000D01*
X144230200Y-90136661D01*
X144230668Y-90330900D01*
X144221931Y-90508122D01*
X144196500Y-90677732D01*
X144146884Y-90849135D01*
X144065594Y-91031734D01*
X143945140Y-91234934D01*
X143778031Y-91468139D01*
X143556778Y-91740754D01*
X143273890Y-92062184D01*
X142921878Y-92441832D01*
X142493252Y-92889104D01*
X141980521Y-93413403D01*
X141376197Y-94024133D01*
X140672787Y-94730700D01*
X139862804Y-95542508D01*
X139288092Y-96118564D01*
X134664424Y-100754794D01*
X136061387Y-102151756D01*
X137458349Y-103548718D01*
X142293484Y-98700859D01*
X142293484Y-98700859D01*
G37*
X142293484Y-98700859D02*
X143206379Y-97785411D01*
X144007865Y-96980416D01*
X144706029Y-96276348D01*
X145308953Y-95663679D01*
X145824724Y-95132882D01*
X146261425Y-94674432D01*
X146627142Y-94278801D01*
X146929960Y-93936462D01*
X147177962Y-93637888D01*
X147379234Y-93373553D01*
X147541861Y-93133929D01*
X147673927Y-92909491D01*
X147783518Y-92690711D01*
X147878717Y-92468062D01*
X147967610Y-92232018D01*
X148058281Y-91973052D01*
X148096025Y-91863334D01*
X148205793Y-91534517D01*
X148282044Y-91265757D01*
X148330949Y-91012177D01*
X148358680Y-90728899D01*
X148371410Y-90371045D01*
X148375309Y-89893736D01*
X148375465Y-89831334D01*
X148372246Y-89298940D01*
X148356864Y-88890885D01*
X148324847Y-88562350D01*
X148271719Y-88268515D01*
X148193009Y-87964560D01*
X148187075Y-87943988D01*
X147813394Y-86947439D01*
X147299400Y-86030444D01*
X146658791Y-85206792D01*
X145905266Y-84490271D01*
X145052523Y-83894670D01*
X144114263Y-83433776D01*
X143495490Y-83221688D01*
X143022678Y-83119117D01*
X142448983Y-83046513D01*
X141828248Y-83006023D01*
X141214318Y-82999791D01*
X140661033Y-83029964D01*
X140249180Y-83092329D01*
X139504259Y-83309210D01*
X138755166Y-83611227D01*
X138075555Y-83967253D01*
X137867741Y-84098857D01*
X137630063Y-84278693D01*
X137303070Y-84555410D01*
X136914752Y-84903770D01*
X136493099Y-85298536D01*
X136066102Y-85714469D01*
X135975660Y-85804868D01*
X134664320Y-87122063D01*
X136058037Y-88517703D01*
X137451755Y-89913343D01*
X138642843Y-88732408D01*
X139135971Y-88250042D01*
X139538718Y-87877576D01*
X139876085Y-87600977D01*
X140173076Y-87406209D01*
X140454694Y-87279239D01*
X140745941Y-87206031D01*
X141071822Y-87172552D01*
X141435666Y-87164762D01*
X141833061Y-87171681D01*
X142121893Y-87200580D01*
X142362604Y-87262875D01*
X142615635Y-87369980D01*
X142675314Y-87398900D01*
X143180325Y-87725942D01*
X143632099Y-88166672D01*
X143979211Y-88668470D01*
X144045062Y-88800460D01*
X144147773Y-89078119D01*
X144205144Y-89389122D01*
X144226968Y-89793179D01*
X144228018Y-89916000D01*
X144230200Y-90136661D01*
X144230668Y-90330900D01*
X144221931Y-90508122D01*
X144196500Y-90677732D01*
X144146884Y-90849135D01*
X144065594Y-91031734D01*
X143945140Y-91234934D01*
X143778031Y-91468139D01*
X143556778Y-91740754D01*
X143273890Y-92062184D01*
X142921878Y-92441832D01*
X142493252Y-92889104D01*
X141980521Y-93413403D01*
X141376197Y-94024133D01*
X140672787Y-94730700D01*
X139862804Y-95542508D01*
X139288092Y-96118564D01*
X134664424Y-100754794D01*
X136061387Y-102151756D01*
X137458349Y-103548718D01*
X142293484Y-98700859D01*
G36*
X126576666Y-111630133D02*
X127070029Y-111626834D01*
X127438948Y-111615392D01*
X127728301Y-111589633D01*
X127982966Y-111543387D01*
X128247820Y-111470482D01*
X128567741Y-111364746D01*
X128608666Y-111350693D01*
X129086677Y-111175589D01*
X129507409Y-110992805D01*
X129896377Y-110784515D01*
X130279091Y-110532895D01*
X130681067Y-110220121D01*
X131127816Y-109828366D01*
X131644852Y-109339807D01*
X132037666Y-108955003D01*
X133477000Y-107531703D01*
X132082289Y-106133514D01*
X130687578Y-104735324D01*
X129496490Y-105916260D01*
X129003361Y-106398626D01*
X128600615Y-106771092D01*
X128263248Y-107047691D01*
X127966257Y-107242458D01*
X127684639Y-107369429D01*
X127393391Y-107442636D01*
X127067510Y-107476116D01*
X126703666Y-107483906D01*
X126306272Y-107476986D01*
X126017440Y-107448087D01*
X125776729Y-107385793D01*
X125523697Y-107278688D01*
X125464019Y-107249768D01*
X124959007Y-106922726D01*
X124507233Y-106481996D01*
X124160121Y-105980198D01*
X124094270Y-105848207D01*
X123991559Y-105570549D01*
X123934188Y-105259546D01*
X123912365Y-104855488D01*
X123911315Y-104732667D01*
X123909132Y-104512007D01*
X123908665Y-104317768D01*
X123917401Y-104140546D01*
X123942832Y-103970935D01*
X123992448Y-103799533D01*
X124073738Y-103616934D01*
X124194192Y-103413734D01*
X124361301Y-103180529D01*
X124582554Y-102907913D01*
X124865442Y-102586484D01*
X125217454Y-102206835D01*
X125646080Y-101759564D01*
X126158811Y-101235265D01*
X126763136Y-100624534D01*
X127466545Y-99917967D01*
X128276529Y-99106159D01*
X128851240Y-98530104D01*
X133474908Y-93893874D01*
X132077945Y-92496912D01*
X130680983Y-91099949D01*
X125845849Y-95947808D01*
X124932954Y-96863256D01*
X124131467Y-97668251D01*
X123433304Y-98372320D01*
X122830379Y-98984989D01*
X122314608Y-99515785D01*
X121877907Y-99974236D01*
X121512190Y-100369867D01*
X121209373Y-100712206D01*
X120961370Y-101010780D01*
X120760098Y-101275115D01*
X120597471Y-101514738D01*
X120465405Y-101739176D01*
X120355815Y-101957957D01*
X120260616Y-102180605D01*
X120171723Y-102416650D01*
X120081052Y-102675616D01*
X120043307Y-102785334D01*
X119933539Y-103114151D01*
X119857289Y-103382910D01*
X119808383Y-103636490D01*
X119780652Y-103919769D01*
X119767923Y-104277623D01*
X119764024Y-104754932D01*
X119763867Y-104817334D01*
X119766987Y-105347685D01*
X119782119Y-105754033D01*
X119813826Y-106081544D01*
X119866668Y-106375382D01*
X119945208Y-106680714D01*
X119955786Y-106717543D01*
X120332457Y-107723167D01*
X120849981Y-108644246D01*
X121496066Y-109468490D01*
X122258419Y-110183605D01*
X123124748Y-110777299D01*
X124082761Y-111237280D01*
X124676457Y-111438214D01*
X124985882Y-111519910D01*
X125278762Y-111575399D01*
X125600265Y-111609243D01*
X125995556Y-111626001D01*
X126509800Y-111630238D01*
X126576666Y-111630133D01*
X126576666Y-111630133D01*
G37*
X126576666Y-111630133D02*
X127070029Y-111626834D01*
X127438948Y-111615392D01*
X127728301Y-111589633D01*
X127982966Y-111543387D01*
X128247820Y-111470482D01*
X128567741Y-111364746D01*
X128608666Y-111350693D01*
X129086677Y-111175589D01*
X129507409Y-110992805D01*
X129896377Y-110784515D01*
X130279091Y-110532895D01*
X130681067Y-110220121D01*
X131127816Y-109828366D01*
X131644852Y-109339807D01*
X132037666Y-108955003D01*
X133477000Y-107531703D01*
X132082289Y-106133514D01*
X130687578Y-104735324D01*
X129496490Y-105916260D01*
X129003361Y-106398626D01*
X128600615Y-106771092D01*
X128263248Y-107047691D01*
X127966257Y-107242458D01*
X127684639Y-107369429D01*
X127393391Y-107442636D01*
X127067510Y-107476116D01*
X126703666Y-107483906D01*
X126306272Y-107476986D01*
X126017440Y-107448087D01*
X125776729Y-107385793D01*
X125523697Y-107278688D01*
X125464019Y-107249768D01*
X124959007Y-106922726D01*
X124507233Y-106481996D01*
X124160121Y-105980198D01*
X124094270Y-105848207D01*
X123991559Y-105570549D01*
X123934188Y-105259546D01*
X123912365Y-104855488D01*
X123911315Y-104732667D01*
X123909132Y-104512007D01*
X123908665Y-104317768D01*
X123917401Y-104140546D01*
X123942832Y-103970935D01*
X123992448Y-103799533D01*
X124073738Y-103616934D01*
X124194192Y-103413734D01*
X124361301Y-103180529D01*
X124582554Y-102907913D01*
X124865442Y-102586484D01*
X125217454Y-102206835D01*
X125646080Y-101759564D01*
X126158811Y-101235265D01*
X126763136Y-100624534D01*
X127466545Y-99917967D01*
X128276529Y-99106159D01*
X128851240Y-98530104D01*
X133474908Y-93893874D01*
X132077945Y-92496912D01*
X130680983Y-91099949D01*
X125845849Y-95947808D01*
X124932954Y-96863256D01*
X124131467Y-97668251D01*
X123433304Y-98372320D01*
X122830379Y-98984989D01*
X122314608Y-99515785D01*
X121877907Y-99974236D01*
X121512190Y-100369867D01*
X121209373Y-100712206D01*
X120961370Y-101010780D01*
X120760098Y-101275115D01*
X120597471Y-101514738D01*
X120465405Y-101739176D01*
X120355815Y-101957957D01*
X120260616Y-102180605D01*
X120171723Y-102416650D01*
X120081052Y-102675616D01*
X120043307Y-102785334D01*
X119933539Y-103114151D01*
X119857289Y-103382910D01*
X119808383Y-103636490D01*
X119780652Y-103919769D01*
X119767923Y-104277623D01*
X119764024Y-104754932D01*
X119763867Y-104817334D01*
X119766987Y-105347685D01*
X119782119Y-105754033D01*
X119813826Y-106081544D01*
X119866668Y-106375382D01*
X119945208Y-106680714D01*
X119955786Y-106717543D01*
X120332457Y-107723167D01*
X120849981Y-108644246D01*
X121496066Y-109468490D01*
X122258419Y-110183605D01*
X123124748Y-110777299D01*
X124082761Y-111237280D01*
X124676457Y-111438214D01*
X124985882Y-111519910D01*
X125278762Y-111575399D01*
X125600265Y-111609243D01*
X125995556Y-111626001D01*
X126509800Y-111630238D01*
X126576666Y-111630133D01*
G36*
X142093018Y-111627013D02*
X142499366Y-111611881D01*
X142826876Y-111580174D01*
X143120714Y-111527332D01*
X143426046Y-111448792D01*
X143462875Y-111438214D01*
X144468499Y-111061543D01*
X145389579Y-110544019D01*
X146213822Y-109897934D01*
X146928937Y-109135581D01*
X147522631Y-108269252D01*
X147982612Y-107311239D01*
X148183546Y-106717543D01*
X148265243Y-106408118D01*
X148320732Y-106115238D01*
X148354575Y-105793735D01*
X148371334Y-105398444D01*
X148375570Y-104884200D01*
X148375465Y-104817334D01*
X148372167Y-104323971D01*
X148360724Y-103955052D01*
X148334966Y-103665699D01*
X148288720Y-103411034D01*
X148215814Y-103146180D01*
X148110079Y-102826259D01*
X148096025Y-102785334D01*
X147922673Y-102311741D01*
X147741848Y-101894475D01*
X147535968Y-101508418D01*
X147287451Y-101128452D01*
X146978715Y-100729460D01*
X146592179Y-100286325D01*
X146110261Y-99773928D01*
X145679245Y-99332709D01*
X144235214Y-97869751D01*
X141439775Y-100665190D01*
X142641152Y-101876894D01*
X143126524Y-102372794D01*
X143502096Y-102777739D01*
X143781787Y-103116390D01*
X143979517Y-103413407D01*
X144109206Y-103693450D01*
X144184774Y-103981180D01*
X144220141Y-104301258D01*
X144229227Y-104678344D01*
X144229238Y-104690334D01*
X144222319Y-105087728D01*
X144193420Y-105376560D01*
X144131125Y-105617271D01*
X144024020Y-105870303D01*
X143995100Y-105929981D01*
X143668058Y-106434993D01*
X143227328Y-106886767D01*
X142725530Y-107233879D01*
X142593540Y-107299730D01*
X142315881Y-107402441D01*
X142004878Y-107459812D01*
X141600821Y-107481635D01*
X141478000Y-107482685D01*
X141257804Y-107484883D01*
X141063954Y-107485409D01*
X140887075Y-107476790D01*
X140717792Y-107451554D01*
X140546730Y-107402227D01*
X140364513Y-107321334D01*
X140161767Y-107201404D01*
X139929115Y-107034962D01*
X139657184Y-106814536D01*
X139336598Y-106532651D01*
X138957982Y-106181834D01*
X138511960Y-105754612D01*
X137989158Y-105243512D01*
X137380200Y-104641060D01*
X136675711Y-103939783D01*
X135866317Y-103132208D01*
X135253650Y-102520946D01*
X130595633Y-97875443D01*
X129199983Y-99273201D01*
X127804333Y-100670958D01*
X132672666Y-105527199D01*
X133589897Y-106442008D01*
X134396651Y-107245386D01*
X135102426Y-107945399D01*
X135716721Y-108550112D01*
X136249035Y-109067592D01*
X136708867Y-109505904D01*
X137105714Y-109873115D01*
X137449077Y-110177290D01*
X137748453Y-110426495D01*
X138013341Y-110628795D01*
X138253240Y-110792258D01*
X138477649Y-110924948D01*
X138696067Y-111034932D01*
X138917992Y-111130274D01*
X139152922Y-111219043D01*
X139410357Y-111309302D01*
X139530666Y-111350693D01*
X139859483Y-111460461D01*
X140128243Y-111536711D01*
X140381823Y-111585617D01*
X140665101Y-111613348D01*
X141022955Y-111626077D01*
X141500264Y-111629976D01*
X141562666Y-111630133D01*
X142093018Y-111627013D01*
X142093018Y-111627013D01*
G37*
X142093018Y-111627013D02*
X142499366Y-111611881D01*
X142826876Y-111580174D01*
X143120714Y-111527332D01*
X143426046Y-111448792D01*
X143462875Y-111438214D01*
X144468499Y-111061543D01*
X145389579Y-110544019D01*
X146213822Y-109897934D01*
X146928937Y-109135581D01*
X147522631Y-108269252D01*
X147982612Y-107311239D01*
X148183546Y-106717543D01*
X148265243Y-106408118D01*
X148320732Y-106115238D01*
X148354575Y-105793735D01*
X148371334Y-105398444D01*
X148375570Y-104884200D01*
X148375465Y-104817334D01*
X148372167Y-104323971D01*
X148360724Y-103955052D01*
X148334966Y-103665699D01*
X148288720Y-103411034D01*
X148215814Y-103146180D01*
X148110079Y-102826259D01*
X148096025Y-102785334D01*
X147922673Y-102311741D01*
X147741848Y-101894475D01*
X147535968Y-101508418D01*
X147287451Y-101128452D01*
X146978715Y-100729460D01*
X146592179Y-100286325D01*
X146110261Y-99773928D01*
X145679245Y-99332709D01*
X144235214Y-97869751D01*
X141439775Y-100665190D01*
X142641152Y-101876894D01*
X143126524Y-102372794D01*
X143502096Y-102777739D01*
X143781787Y-103116390D01*
X143979517Y-103413407D01*
X144109206Y-103693450D01*
X144184774Y-103981180D01*
X144220141Y-104301258D01*
X144229227Y-104678344D01*
X144229238Y-104690334D01*
X144222319Y-105087728D01*
X144193420Y-105376560D01*
X144131125Y-105617271D01*
X144024020Y-105870303D01*
X143995100Y-105929981D01*
X143668058Y-106434993D01*
X143227328Y-106886767D01*
X142725530Y-107233879D01*
X142593540Y-107299730D01*
X142315881Y-107402441D01*
X142004878Y-107459812D01*
X141600821Y-107481635D01*
X141478000Y-107482685D01*
X141257804Y-107484883D01*
X141063954Y-107485409D01*
X140887075Y-107476790D01*
X140717792Y-107451554D01*
X140546730Y-107402227D01*
X140364513Y-107321334D01*
X140161767Y-107201404D01*
X139929115Y-107034962D01*
X139657184Y-106814536D01*
X139336598Y-106532651D01*
X138957982Y-106181834D01*
X138511960Y-105754612D01*
X137989158Y-105243512D01*
X137380200Y-104641060D01*
X136675711Y-103939783D01*
X135866317Y-103132208D01*
X135253650Y-102520946D01*
X130595633Y-97875443D01*
X129199983Y-99273201D01*
X127804333Y-100670958D01*
X132672666Y-105527199D01*
X133589897Y-106442008D01*
X134396651Y-107245386D01*
X135102426Y-107945399D01*
X135716721Y-108550112D01*
X136249035Y-109067592D01*
X136708867Y-109505904D01*
X137105714Y-109873115D01*
X137449077Y-110177290D01*
X137748453Y-110426495D01*
X138013341Y-110628795D01*
X138253240Y-110792258D01*
X138477649Y-110924948D01*
X138696067Y-111034932D01*
X138917992Y-111130274D01*
X139152922Y-111219043D01*
X139410357Y-111309302D01*
X139530666Y-111350693D01*
X139859483Y-111460461D01*
X140128243Y-111536711D01*
X140381823Y-111585617D01*
X140665101Y-111613348D01*
X141022955Y-111626077D01*
X141500264Y-111629976D01*
X141562666Y-111630133D01*
X142093018Y-111627013D01*
M02*
