M48
;DRILL file {KiCad (2015-08-21 BZR 6112)-product} date 2015 October 15, Thursday 21:52:58
;FORMAT={-:-/ absolute / inch / decimal}
FMAT,2
INCH,TZ
T1C0.015
T2C0.028
T3C0.030
T4C0.031
T5C0.038
T6C0.040
T7C0.047
T8C0.058
T9C0.081
T10C0.130
%
G90
G05
M72
T1
X4.45Y-4.6
X4.64Y-4.6
X5.52Y-2.94
X5.9Y-4.27
X6.17Y-4.27
T2
X4.5106Y-4.48
X4.5894Y-4.48
T3
X4.16Y-4.8016
X4.16Y-4.9984
X4.51Y-4.8016
X4.51Y-4.9984
X6.03Y-2.74
X6.03Y-3.21
X6.03Y-3.31
X6.03Y-3.78
X6.03Y-3.88
X6.03Y-4.35
X6.23Y-2.98
X6.23Y-3.54
X6.23Y-4.12
X6.33Y-2.98
X6.33Y-3.54
X6.33Y-4.12
T4
X4.1711Y-4.48
X4.3089Y-4.48
T5
X4.11Y-3.38
X4.11Y-3.7
X4.55Y-3.38
X4.55Y-3.7
T6
X6.34Y-4.96
X6.44Y-4.96
T7
X4.3631Y-2.885
X4.4813Y-3.0701
X4.5994Y-2.885
T9
X5.0225Y-2.787
X5.5225Y-2.787
T10
X4.835Y-3.137
X4.835Y-4.512
X5.71Y-3.137
X5.71Y-4.512
T2
X4.2457Y-4.084G85X4.2614Y-4.084
G05
X4.3508Y-4.084G85X4.3665Y-4.084
G05
X4.4559Y-4.084G85X4.4717Y-4.084
G05
T8
X6.055Y-4.5775G85X6.055Y-4.5625
G05
X6.24Y-4.5775G85X6.24Y-4.5625
G05
X6.425Y-4.5775G85X6.425Y-4.5625
G05
T0
M30
